<ttFont>
    <TTGlyph name=".notdef" xMin="0" yMin="0" xMax="500" yMax="700">
      <contour>
        <pt x="0" y="700" on="1"/>
        <pt x="500" y="700" on="1"/>
        <pt x="500" y="0" on="1"/>
        <pt x="0" y="0" on="1"/>
      </contour>
      <contour>
        <pt x="50" y="650" on="1"/>
        <pt x="50" y="50" on="1"/>
        <pt x="450" y="50" on="1"/>
        <pt x="450" y="650" on="1"/>
      </contour>
      <contour>
        <pt x="229" y="278" on="1"/>
        <pt x="229" y="307" on="0"/>
        <pt x="256" y="345" on="0"/>
        <pt x="283" y="367" on="1"/>
        <pt x="311" y="390" on="0"/>
        <pt x="339" y="431" on="0"/>
        <pt x="339" y="465" on="1"/>
        <pt x="339" y="496" on="0"/>
        <pt x="301" y="552" on="0"/>
        <pt x="250" y="552" on="1"/>
        <pt x="192" y="552" on="0"/>
        <pt x="152" y="485" on="0"/>
        <pt x="152" y="452" on="1"/>
        <pt x="152" y="424" on="1"/>
        <pt x="103" y="424" on="1"/>
        <pt x="99" y="438" on="0"/>
        <pt x="99" y="455" on="1"/>
        <pt x="99" y="478" on="0"/>
        <pt x="120" y="544" on="0"/>
        <pt x="187" y="602" on="0"/>
        <pt x="250" y="602" on="1"/>
        <pt x="313" y="602" on="0"/>
        <pt x="376" y="546" on="0"/>
        <pt x="393" y="486" on="0"/>
        <pt x="393" y="467" on="1"/>
        <pt x="393" y="422" on="0"/>
        <pt x="356" y="364" on="0"/>
        <pt x="326" y="338" on="1"/>
        <pt x="304" y="320" on="0"/>
        <pt x="282" y="290" on="0"/>
        <pt x="282" y="268" on="1"/>
        <pt x="282" y="215" on="1"/>
        <pt x="229" y="215" on="1"/>
      </contour>
      <contour>
        <pt x="225" y="169" on="1"/>
        <pt x="285" y="169" on="1"/>
        <pt x="285" y="99" on="1"/>
        <pt x="225" y="99" on="1"/>
      </contour>
    </TTGlyph>
    <TTGlyph name="A" xMin="1" yMin="0" xMax="516" yMax="688">
      <contour>
        <pt x="319" y="117" on="1"/>
        <pt x="194" y="117" on="1"/>
        <pt x="178" y="0" on="1"/>
        <pt x="1" y="0" on="1"/>
        <pt x="127" y="688" on="1"/>
        <pt x="390" y="688" on="1"/>
        <pt x="516" y="0" on="1"/>
        <pt x="335" y="0" on="1"/>
      </contour>
      <contour>
        <pt x="253" y="529" on="1"/>
        <pt x="216" y="260" on="1"/>
        <pt x="297" y="260" on="1"/>
        <pt x="260" y="529" on="1"/>
      </contour>
    </TTGlyph>
    <TTGlyph name="A.ss01" xMin="37" yMin="0" xMax="469" yMax="696">
      <contour>
        <pt x="289" y="170" on="1"/>
        <pt x="217" y="170" on="1"/>
        <pt x="217" y="0" on="1"/>
        <pt x="37" y="0" on="1"/>
        <pt x="37" y="379" on="1"/>
        <pt x="37" y="519" on="0"/>
        <pt x="58" y="639" on="0"/>
        <pt x="148" y="696" on="0"/>
        <pt x="253" y="696" on="1"/>
        <pt x="358" y="696" on="0"/>
        <pt x="448" y="639" on="0"/>
        <pt x="469" y="518" on="0"/>
        <pt x="469" y="379" on="1"/>
        <pt x="469" y="0" on="1"/>
        <pt x="289" y="0" on="1"/>
      </contour>
      <contour>
        <pt x="289" y="491" on="0"/>
        <pt x="285" y="535" on="0"/>
        <pt x="272" y="547" on="0"/>
        <pt x="253" y="547" on="1"/>
        <pt x="233" y="547" on="0"/>
        <pt x="220" y="535" on="0"/>
        <pt x="217" y="492" on="0"/>
        <pt x="217" y="427" on="1"/>
        <pt x="217" y="319" on="1"/>
        <pt x="289" y="319" on="1"/>
        <pt x="289" y="427" on="1"/>
      </contour>
    </TTGlyph>
    <TTGlyph name="AE" xMin="-18" yMin="0" xMax="662" yMax="688">
      <contour>
        <pt x="312" y="118" on="1"/>
        <pt x="183" y="118" on="1"/>
        <pt x="159" y="0" on="1"/>
        <pt x="-18" y="0" on="1"/>
        <pt x="163" y="688" on="1"/>
        <pt x="662" y="688" on="1"/>
        <pt x="662" y="540" on="1"/>
        <pt x="443" y="540" on="1"/>
        <pt x="454" y="421" on="1"/>
        <pt x="637" y="421" on="1"/>
        <pt x="637" y="274" on="1"/>
        <pt x="468" y="274" on="1"/>
        <pt x="480" y="148" on="1"/>
        <pt x="662" y="148" on="1"/>
        <pt x="662" y="0" on="1"/>
        <pt x="321" y="0" on="1"/>
      </contour>
      <contour>
        <pt x="272" y="536" on="1"/>
        <pt x="215" y="261" on="1"/>
        <pt x="301" y="261" on="1"/>
        <pt x="280" y="536" on="1"/>
      </contour>
    </TTGlyph>
    <TTGlyph name="AEacute" xMin="-18" yMin="0" xMax="662" yMax="888">
      <component glyphName="AE" x="0" y="0" flags="0x0"/>
      <component glyphName="acutecomb.case" x="502" y="0" flags="0x0"/>
    </TTGlyph>
    <TTGlyph name="Aacute" xMin="1" yMin="0" xMax="516" yMax="898">
      <component glyphName="A" x="0" y="0" flags="0x0"/>
      <component glyphName="acute" x="171" y="155" flags="0x4"/>
    </TTGlyph>
    <TTGlyph name="Aacute.ss01" xMin="37" yMin="0" xMax="469" yMax="898">
      <component glyphName="A.ss01" x="0" y="0" flags="0x0"/>
      <component glyphName="acute" x="186" y="155" flags="0x4"/>
    </TTGlyph>
    <TTGlyph name="Abreve" xMin="1" yMin="0" xMax="516" yMax="888">
      <component glyphName="A" x="0" y="0" flags="0x0"/>
      <component glyphName="uni0306.case" x="404" y="0" flags="0x0"/>
    </TTGlyph>
    <TTGlyph name="Abreve.ss01" xMin="37" yMin="0" xMax="469" yMax="888">
      <component glyphName="A.ss01" x="0" y="0" flags="0x0"/>
      <component glyphName="uni0306.case" x="398" y="0" flags="0x0"/>
    </TTGlyph>
    <TTGlyph name="Acircumflex" xMin="1" yMin="0" xMax="516" yMax="881">
      <component glyphName="A" x="0" y="0" flags="0x0"/>
      <component glyphName="circumflex" x="98" y="138" flags="0x4"/>
    </TTGlyph>
    <TTGlyph name="Acircumflex.ss01" xMin="37" yMin="0" xMax="469" yMax="881">
      <component glyphName="A.ss01" x="0" y="0" flags="0x0"/>
      <component glyphName="circumflex" x="98" y="138" flags="0x4"/>
    </TTGlyph>
    <TTGlyph name="Adieresis" xMin="1" yMin="0" xMax="516" yMax="892">
      <component glyphName="A" x="0" y="0" flags="0x0"/>
      <component glyphName="dieresis" x="95" y="162" flags="0x4"/>
    </TTGlyph>
    <TTGlyph name="Adieresis.ss01" xMin="37" yMin="0" xMax="469" yMax="892">
      <component glyphName="A.ss01" x="0" y="0" flags="0x0"/>
      <component glyphName="dieresis" x="94" y="162" flags="0x4"/>
    </TTGlyph>
    <TTGlyph name="Agrave" xMin="1" yMin="0" xMax="516" yMax="897">
      <component glyphName="A" x="0" y="0" flags="0x0"/>
      <component glyphName="grave" x="111" y="154" flags="0x4"/>
    </TTGlyph>
    <TTGlyph name="Agrave.ss01" xMin="37" yMin="0" xMax="469" yMax="898">
      <component glyphName="A.ss01" x="0" y="0" flags="0x0"/>
      <component glyphName="grave" x="107" y="155" flags="0x4"/>
    </TTGlyph>
    <TTGlyph name="Amacron" xMin="1" yMin="0" xMax="516" yMax="888">
      <component glyphName="A" x="0" y="0" flags="0x0"/>
      <component glyphName="uni0304.case" x="410" y="0" flags="0x0"/>
    </TTGlyph>
    <TTGlyph name="Amacron.ss01" xMin="37" yMin="0" xMax="469" yMax="888">
      <component glyphName="A.ss01" x="0" y="0" flags="0x0"/>
      <component glyphName="uni0304.case" x="404" y="0" flags="0x0"/>
    </TTGlyph>
    <TTGlyph name="Aogonek" xMin="1" yMin="-196" xMax="516" yMax="688">
      <contour>
        <pt x="411" y="-93" on="0"/>
        <pt x="427" y="-112" on="0"/>
        <pt x="448" y="-112" on="1"/>
        <pt x="461" y="-111" on="1"/>
        <pt x="461" y="-191" on="1"/>
        <pt x="433" y="-196" on="0"/>
        <pt x="396" y="-196" on="1"/>
        <pt x="336" y="-196" on="0"/>
        <pt x="283" y="-146" on="0"/>
        <pt x="283" y="-106" on="1"/>
        <pt x="283" y="-79" on="0"/>
        <pt x="311" y="-22" on="0"/>
        <pt x="335" y="2" on="1"/>
        <pt x="319" y="117" on="1"/>
        <pt x="194" y="117" on="1"/>
        <pt x="178" y="0" on="1"/>
        <pt x="1" y="0" on="1"/>
        <pt x="127" y="688" on="1"/>
        <pt x="390" y="688" on="1"/>
        <pt x="516" y="0" on="1"/>
        <pt x="455" y="0" on="1"/>
        <pt x="438" y="-14" on="0"/>
        <pt x="411" y="-57" on="0"/>
        <pt x="411" y="-76" on="1"/>
      </contour>
      <contour>
        <pt x="297" y="260" on="1"/>
        <pt x="260" y="529" on="1"/>
        <pt x="253" y="529" on="1"/>
        <pt x="216" y="260" on="1"/>
      </contour>
    </TTGlyph>
    <TTGlyph name="Aogonek.ss01" xMin="37" yMin="-196" xMax="469" yMax="696">
      <contour>
        <pt x="391" y="-14" on="0"/>
        <pt x="364" y="-57" on="0"/>
        <pt x="364" y="-76" on="1"/>
        <pt x="364" y="-93" on="0"/>
        <pt x="380" y="-112" on="0"/>
        <pt x="402" y="-112" on="1"/>
        <pt x="414" y="-111" on="1"/>
        <pt x="414" y="-191" on="1"/>
        <pt x="387" y="-196" on="0"/>
        <pt x="350" y="-196" on="1"/>
        <pt x="289" y="-196" on="0"/>
        <pt x="237" y="-146" on="0"/>
        <pt x="237" y="-106" on="1"/>
        <pt x="237" y="-79" on="0"/>
        <pt x="265" y="-22" on="0"/>
        <pt x="289" y="2" on="1"/>
        <pt x="289" y="170" on="1"/>
        <pt x="217" y="170" on="1"/>
        <pt x="217" y="0" on="1"/>
        <pt x="37" y="0" on="1"/>
        <pt x="37" y="379" on="1"/>
        <pt x="37" y="519" on="0"/>
        <pt x="58" y="639" on="0"/>
        <pt x="148" y="696" on="0"/>
        <pt x="253" y="696" on="1"/>
        <pt x="358" y="696" on="0"/>
        <pt x="448" y="639" on="0"/>
        <pt x="469" y="518" on="0"/>
        <pt x="469" y="379" on="1"/>
        <pt x="469" y="0" on="1"/>
        <pt x="408" y="0" on="1"/>
      </contour>
      <contour>
        <pt x="289" y="319" on="1"/>
        <pt x="289" y="427" on="1"/>
        <pt x="289" y="491" on="0"/>
        <pt x="285" y="535" on="0"/>
        <pt x="272" y="547" on="0"/>
        <pt x="253" y="547" on="1"/>
        <pt x="233" y="547" on="0"/>
        <pt x="220" y="535" on="0"/>
        <pt x="217" y="492" on="0"/>
        <pt x="217" y="427" on="1"/>
        <pt x="217" y="319" on="1"/>
      </contour>
    </TTGlyph>
    <TTGlyph name="Aring" xMin="1" yMin="0" xMax="516" yMax="893">
      <contour>
        <pt x="516" y="0" on="1"/>
        <pt x="335" y="0" on="1"/>
        <pt x="319" y="117" on="1"/>
        <pt x="194" y="117" on="1"/>
        <pt x="178" y="0" on="1"/>
        <pt x="1" y="0" on="1"/>
        <pt x="127" y="689" on="1"/>
        <pt x="118" y="702" on="0"/>
        <pt x="113" y="739" on="0"/>
        <pt x="113" y="770" on="1"/>
        <pt x="113" y="819" on="0"/>
        <pt x="130" y="868" on="0"/>
        <pt x="192" y="893" on="0"/>
        <pt x="259" y="893" on="1"/>
        <pt x="325" y="893" on="0"/>
        <pt x="387" y="868" on="0"/>
        <pt x="404" y="819" on="0"/>
        <pt x="404" y="770" on="1"/>
        <pt x="404" y="740" on="0"/>
        <pt x="398" y="702" on="0"/>
        <pt x="390" y="688" on="1"/>
      </contour>
      <contour>
        <pt x="281" y="728" on="0"/>
        <pt x="298" y="735" on="0"/>
        <pt x="302" y="750" on="0"/>
        <pt x="302" y="770" on="1"/>
        <pt x="302" y="791" on="0"/>
        <pt x="298" y="807" on="0"/>
        <pt x="280" y="815" on="0"/>
        <pt x="259" y="815" on="1"/>
        <pt x="238" y="815" on="0"/>
        <pt x="220" y="807" on="0"/>
        <pt x="216" y="791" on="0"/>
        <pt x="216" y="770" on="1"/>
        <pt x="216" y="750" on="0"/>
        <pt x="220" y="735" on="0"/>
        <pt x="237" y="728" on="0"/>
        <pt x="259" y="728" on="1"/>
      </contour>
      <contour>
        <pt x="297" y="260" on="1"/>
        <pt x="260" y="529" on="1"/>
        <pt x="253" y="529" on="1"/>
        <pt x="216" y="260" on="1"/>
      </contour>
    </TTGlyph>
    <TTGlyph name="Aring.ss01" xMin="37" yMin="0" xMax="469" yMax="957">
      <component glyphName="A.ss01" x="0" y="0" flags="0x0"/>
      <component glyphName="ring" x="114" y="123" flags="0x4"/>
    </TTGlyph>
    <TTGlyph name="Aringacute" xMin="1" yMin="0" xMax="516" yMax="1093">
      <component glyphName="Aring" x="0" y="0" flags="0x0"/>
      <component glyphName="acutecomb.case" x="413" y="205" flags="0x4"/>
    </TTGlyph>
    <TTGlyph name="Aringacute.ss01" xMin="37" yMin="0" xMax="469" yMax="1119">
      <component glyphName="A.ss01" x="0" y="0" flags="0x0"/>
      <component glyphName="uni030A.case" x="396" y="0" flags="0x0"/>
      <component glyphName="acutecomb.case" x="409" y="231" flags="0x4"/>
    </TTGlyph>
    <TTGlyph name="Atilde" xMin="1" yMin="0" xMax="516" yMax="904">
      <component glyphName="A" x="0" y="0" flags="0x0"/>
      <component glyphName="tilde" x="87" y="161" flags="0x4"/>
    </TTGlyph>
    <TTGlyph name="Atilde.ss01" xMin="37" yMin="0" xMax="469" yMax="904">
      <component glyphName="A.ss01" x="0" y="0" flags="0x0"/>
      <component glyphName="tilde" x="87" y="161" flags="0x4"/>
    </TTGlyph>
    <TTGlyph name="B" xMin="40" yMin="0" xMax="469" yMax="688">
      <contour>
        <pt x="40" y="688" on="1"/>
        <pt x="297" y="688" on="1"/>
        <pt x="464" y="688" on="0"/>
        <pt x="464" y="515" on="1"/>
        <pt x="464" y="441" on="0"/>
        <pt x="419" y="366" on="0"/>
        <pt x="372" y="353" on="1"/>
        <pt x="372" y="349" on="1"/>
        <pt x="422" y="336" on="0"/>
        <pt x="469" y="266" on="0"/>
        <pt x="469" y="185" on="1"/>
        <pt x="469" y="91" on="0"/>
        <pt x="386" y="0" on="0"/>
        <pt x="297" y="0" on="1"/>
        <pt x="40" y="0" on="1"/>
      </contour>
      <contour>
        <pt x="266" y="415" on="0"/>
        <pt x="283" y="423" on="0"/>
        <pt x="288" y="447" on="0"/>
        <pt x="288" y="478" on="1"/>
        <pt x="288" y="511" on="0"/>
        <pt x="283" y="535" on="0"/>
        <pt x="267" y="542" on="0"/>
        <pt x="245" y="542" on="1"/>
        <pt x="217" y="542" on="1"/>
        <pt x="217" y="415" on="1"/>
        <pt x="245" y="415" on="1"/>
      </contour>
      <contour>
        <pt x="267" y="146" on="0"/>
        <pt x="283" y="153" on="0"/>
        <pt x="288" y="178" on="0"/>
        <pt x="288" y="213" on="1"/>
        <pt x="288" y="246" on="0"/>
        <pt x="282" y="272" on="0"/>
        <pt x="266" y="280" on="0"/>
        <pt x="245" y="280" on="1"/>
        <pt x="217" y="280" on="1"/>
        <pt x="217" y="146" on="1"/>
        <pt x="245" y="146" on="1"/>
      </contour>
    </TTGlyph>
    <TTGlyph name="C" xMin="30" yMin="-8" xMax="378" yMax="696">
      <contour>
        <pt x="355" y="2" on="0"/>
        <pt x="283" y="-8" on="0"/>
        <pt x="251" y="-8" on="1"/>
        <pt x="153" y="-8" on="0"/>
        <pt x="60" y="57" on="0"/>
        <pt x="30" y="200" on="0"/>
        <pt x="30" y="344" on="1"/>
        <pt x="30" y="487" on="0"/>
        <pt x="61" y="631" on="0"/>
        <pt x="154" y="696" on="0"/>
        <pt x="251" y="696" on="1"/>
        <pt x="286" y="696" on="0"/>
        <pt x="357" y="686" on="0"/>
        <pt x="376" y="679" on="1"/>
        <pt x="376" y="542" on="1"/>
        <pt x="313" y="548" on="0"/>
        <pt x="288" y="548" on="1"/>
        <pt x="247" y="548" on="0"/>
        <pt x="218" y="524" on="0"/>
        <pt x="211" y="451" on="0"/>
        <pt x="211" y="344" on="1"/>
        <pt x="211" y="237" on="0"/>
        <pt x="218" y="163" on="0"/>
        <pt x="247" y="140" on="0"/>
        <pt x="288" y="140" on="1"/>
        <pt x="341" y="140" on="0"/>
        <pt x="378" y="146" on="1"/>
        <pt x="378" y="10" on="1"/>
      </contour>
    </TTGlyph>
    <TTGlyph name="Cacute" xMin="30" yMin="-8" xMax="378" yMax="888">
      <component glyphName="C" x="0" y="0" flags="0x0"/>
      <component glyphName="acutecomb.case" x="356" y="0" flags="0x0"/>
    </TTGlyph>
    <TTGlyph name="Cacute.loclPLK" xMin="30" yMin="-8" xMax="378" yMax="888">
      <component glyphName="C" x="0" y="0" flags="0x0"/>
      <component glyphName="acute.case.loclPLK" x="132" y="0" flags="0x0"/>
    </TTGlyph>
    <TTGlyph name="Ccaron" xMin="30" yMin="-8" xMax="378" yMax="888">
      <component glyphName="C" x="0" y="0" flags="0x0"/>
      <component glyphName="uni030C.case" x="361" y="0" flags="0x0"/>
    </TTGlyph>
    <TTGlyph name="Ccedilla" xMin="30" yMin="-188" xMax="378" yMax="696">
      <contour>
        <pt x="378" y="10" on="1"/>
        <pt x="357" y="3" on="0"/>
        <pt x="287" y="-7" on="0"/>
        <pt x="255" y="-8" on="1"/>
        <pt x="224" y="-188" on="1"/>
        <pt x="82" y="-188" on="1"/>
        <pt x="82" y="-183" on="1"/>
        <pt x="150" y="4" on="1"/>
        <pt x="99" y="20" on="0"/>
        <pt x="47" y="98" on="0"/>
        <pt x="30" y="230" on="0"/>
        <pt x="30" y="344" on="1"/>
        <pt x="30" y="487" on="0"/>
        <pt x="61" y="631" on="0"/>
        <pt x="154" y="696" on="0"/>
        <pt x="251" y="696" on="1"/>
        <pt x="286" y="696" on="0"/>
        <pt x="357" y="686" on="0"/>
        <pt x="376" y="679" on="1"/>
        <pt x="376" y="542" on="1"/>
        <pt x="313" y="548" on="0"/>
        <pt x="288" y="548" on="1"/>
        <pt x="247" y="548" on="0"/>
        <pt x="218" y="524" on="0"/>
        <pt x="211" y="451" on="0"/>
        <pt x="211" y="344" on="1"/>
        <pt x="211" y="237" on="0"/>
        <pt x="218" y="163" on="0"/>
        <pt x="247" y="140" on="0"/>
        <pt x="288" y="140" on="1"/>
        <pt x="341" y="140" on="0"/>
        <pt x="378" y="146" on="1"/>
      </contour>
    </TTGlyph>
    <TTGlyph name="Ccircumflex" xMin="30" yMin="-8" xMax="378" yMax="888">
      <component glyphName="C" x="0" y="0" flags="0x0"/>
      <component glyphName="uni0302.case" x="361" y="0" flags="0x0"/>
    </TTGlyph>
    <TTGlyph name="Cdotaccent" xMin="30" yMin="-8" xMax="378" yMax="875">
      <component glyphName="C" x="0" y="0" flags="0x0"/>
      <component glyphName="uni0307.case" x="274" y="0" flags="0x0"/>
    </TTGlyph>
    <TTGlyph name="D" xMin="40" yMin="0" xMax="470" yMax="688">
      <contour>
        <pt x="40" y="688" on="1"/>
        <pt x="240" y="688" on="1"/>
        <pt x="353" y="688" on="0"/>
        <pt x="448" y="627" on="0"/>
        <pt x="470" y="498" on="0"/>
        <pt x="470" y="344" on="1"/>
        <pt x="470" y="190" on="0"/>
        <pt x="448" y="61" on="0"/>
        <pt x="353" y="0" on="0"/>
        <pt x="240" y="0" on="1"/>
        <pt x="40" y="0" on="1"/>
      </contour>
      <contour>
        <pt x="241" y="148" on="1"/>
        <pt x="268" y="148" on="0"/>
        <pt x="286" y="167" on="0"/>
        <pt x="290" y="236" on="0"/>
        <pt x="290" y="344" on="1"/>
        <pt x="290" y="452" on="0"/>
        <pt x="286" y="522" on="0"/>
        <pt x="268" y="540" on="0"/>
        <pt x="241" y="540" on="1"/>
        <pt x="219" y="540" on="1"/>
        <pt x="219" y="148" on="1"/>
      </contour>
    </TTGlyph>
    <TTGlyph name="Dcaron" xMin="40" yMin="0" xMax="470" yMax="888">
      <component glyphName="D" x="0" y="0" flags="0x0"/>
      <component glyphName="uni030C.case" x="409" y="0" flags="0x0"/>
    </TTGlyph>
    <TTGlyph name="Dcroat" xMin="-4" yMin="0" xMax="470" yMax="688">
      <component glyphName="Eth" x="0" y="0" flags="0x0"/>
    </TTGlyph>
    <TTGlyph name="E" xMin="40" yMin="0" xMax="393" yMax="688">
      <contour>
        <pt x="40" y="688" on="1"/>
        <pt x="393" y="688" on="1"/>
        <pt x="393" y="540" on="1"/>
        <pt x="220" y="540" on="1"/>
        <pt x="220" y="421" on="1"/>
        <pt x="367" y="421" on="1"/>
        <pt x="367" y="274" on="1"/>
        <pt x="220" y="274" on="1"/>
        <pt x="220" y="148" on="1"/>
        <pt x="393" y="148" on="1"/>
        <pt x="393" y="0" on="1"/>
        <pt x="40" y="0" on="1"/>
      </contour>
    </TTGlyph>
    <TTGlyph name="Eacute" xMin="40" yMin="0" xMax="393" yMax="898">
      <component glyphName="E" x="0" y="0" flags="0x0"/>
      <component glyphName="acute" x="142" y="155" flags="0x4"/>
    </TTGlyph>
    <TTGlyph name="Ebreve" xMin="40" yMin="0" xMax="393" yMax="888">
      <component glyphName="E" x="0" y="0" flags="0x0"/>
      <component glyphName="uni0306.case" x="361" y="0" flags="0x0"/>
    </TTGlyph>
    <TTGlyph name="Ecaron" xMin="40" yMin="0" xMax="393" yMax="888">
      <component glyphName="E" x="0" y="0" flags="0x0"/>
      <component glyphName="uni030C.case" x="375" y="0" flags="0x0"/>
    </TTGlyph>
    <TTGlyph name="Ecircumflex" xMin="40" yMin="0" xMax="393" yMax="881">
      <component glyphName="E" x="0" y="0" flags="0x0"/>
      <component glyphName="circumflex" x="56" y="138" flags="0x4"/>
    </TTGlyph>
    <TTGlyph name="Edieresis" xMin="40" yMin="0" xMax="393" yMax="883">
      <component glyphName="E" x="0" y="0" flags="0x0"/>
      <component glyphName="dieresis" x="54" y="153" flags="0x4"/>
    </TTGlyph>
    <TTGlyph name="Edotaccent" xMin="40" yMin="0" xMax="393" yMax="875">
      <component glyphName="E" x="0" y="0" flags="0x0"/>
      <component glyphName="uni0307.case" x="288" y="0" flags="0x0"/>
    </TTGlyph>
    <TTGlyph name="Egrave" xMin="40" yMin="0" xMax="393" yMax="898">
      <component glyphName="E" x="0" y="0" flags="0x0"/>
      <component glyphName="grave" x="80" y="155" flags="0x4"/>
    </TTGlyph>
    <TTGlyph name="Emacron" xMin="40" yMin="0" xMax="393" yMax="888">
      <component glyphName="E" x="0" y="0" flags="0x0"/>
      <component glyphName="uni0304.case" x="367" y="0" flags="0x0"/>
    </TTGlyph>
    <TTGlyph name="Eng" xMin="40" yMin="-198" xMax="486" yMax="688">
      <contour>
        <pt x="486" y="688" on="1"/>
        <pt x="486" y="12" on="1"/>
        <pt x="484" y="-85" on="0"/>
        <pt x="447" y="-172" on="0"/>
        <pt x="358" y="-198" on="0"/>
        <pt x="260" y="-198" on="1"/>
        <pt x="260" y="-80" on="1"/>
        <pt x="287" y="-80" on="0"/>
        <pt x="310" y="-70" on="0"/>
        <pt x="316" y="-50" on="0"/>
        <pt x="316" y="-29" on="1"/>
        <pt x="316" y="35" on="1"/>
        <pt x="216" y="310" on="1"/>
        <pt x="211" y="310" on="1"/>
        <pt x="211" y="0" on="1"/>
        <pt x="40" y="0" on="1"/>
        <pt x="40" y="688" on="1"/>
        <pt x="213" y="688" on="1"/>
        <pt x="309" y="421" on="1"/>
        <pt x="315" y="421" on="1"/>
        <pt x="315" y="688" on="1"/>
      </contour>
    </TTGlyph>
    <TTGlyph name="Eogonek" xMin="40" yMin="-196" xMax="393" yMax="688">
      <contour>
        <pt x="259" y="-196" on="0"/>
        <pt x="206" y="-146" on="0"/>
        <pt x="206" y="-110" on="1"/>
        <pt x="206" y="-53" on="0"/>
        <pt x="271" y="0" on="1"/>
        <pt x="40" y="0" on="1"/>
        <pt x="40" y="688" on="1"/>
        <pt x="393" y="688" on="1"/>
        <pt x="393" y="540" on="1"/>
        <pt x="220" y="540" on="1"/>
        <pt x="220" y="421" on="1"/>
        <pt x="367" y="421" on="1"/>
        <pt x="367" y="274" on="1"/>
        <pt x="220" y="274" on="1"/>
        <pt x="220" y="148" on="1"/>
        <pt x="393" y="148" on="1"/>
        <pt x="393" y="0" on="1"/>
        <pt x="370" y="-14" on="0"/>
        <pt x="333" y="-56" on="0"/>
        <pt x="333" y="-80" on="1"/>
        <pt x="333" y="-112" on="0"/>
        <pt x="371" y="-112" on="1"/>
        <pt x="383" y="-111" on="1"/>
        <pt x="383" y="-191" on="1"/>
        <pt x="356" y="-196" on="0"/>
        <pt x="320" y="-196" on="1"/>
      </contour>
    </TTGlyph>
    <TTGlyph name="Eth" xMin="-4" yMin="0" xMax="470" yMax="688">
      <contour>
        <pt x="40" y="279" on="1"/>
        <pt x="-4" y="279" on="1"/>
        <pt x="-4" y="417" on="1"/>
        <pt x="40" y="417" on="1"/>
        <pt x="40" y="688" on="1"/>
        <pt x="240" y="688" on="1"/>
        <pt x="353" y="688" on="0"/>
        <pt x="448" y="627" on="0"/>
        <pt x="470" y="498" on="0"/>
        <pt x="470" y="344" on="1"/>
        <pt x="470" y="190" on="0"/>
        <pt x="448" y="61" on="0"/>
        <pt x="353" y="0" on="0"/>
        <pt x="240" y="0" on="1"/>
        <pt x="40" y="0" on="1"/>
      </contour>
      <contour>
        <pt x="268" y="148" on="0"/>
        <pt x="286" y="167" on="0"/>
        <pt x="290" y="236" on="0"/>
        <pt x="290" y="344" on="1"/>
        <pt x="290" y="452" on="0"/>
        <pt x="286" y="522" on="0"/>
        <pt x="268" y="540" on="0"/>
        <pt x="241" y="540" on="1"/>
        <pt x="219" y="540" on="1"/>
        <pt x="219" y="417" on="1"/>
        <pt x="262" y="417" on="1"/>
        <pt x="262" y="279" on="1"/>
        <pt x="219" y="279" on="1"/>
        <pt x="219" y="148" on="1"/>
        <pt x="241" y="148" on="1"/>
      </contour>
    </TTGlyph>
    <TTGlyph name="Euro" xMin="19" yMin="-8" xMax="418" yMax="696">
      <contour>
        <pt x="212" y="-8" on="0"/>
        <pt x="122" y="38" on="0"/>
        <pt x="81" y="138" on="0"/>
        <pt x="76" y="227" on="1"/>
        <pt x="19" y="227" on="1"/>
        <pt x="19" y="311" on="1"/>
        <pt x="74" y="311" on="1"/>
        <pt x="74" y="379" on="1"/>
        <pt x="19" y="379" on="1"/>
        <pt x="19" y="463" on="1"/>
        <pt x="76" y="463" on="1"/>
        <pt x="82" y="550" on="0"/>
        <pt x="123" y="650" on="0"/>
        <pt x="213" y="696" on="0"/>
        <pt x="293" y="696" on="1"/>
        <pt x="328" y="696" on="0"/>
        <pt x="397" y="686" on="0"/>
        <pt x="416" y="679" on="1"/>
        <pt x="416" y="543" on="1"/>
        <pt x="369" y="549" on="0"/>
        <pt x="330" y="549" on="1"/>
        <pt x="299" y="549" on="0"/>
        <pt x="269" y="538" on="0"/>
        <pt x="255" y="503" on="0"/>
        <pt x="252" y="463" on="1"/>
        <pt x="382" y="463" on="1"/>
        <pt x="382" y="379" on="1"/>
        <pt x="250" y="379" on="1"/>
        <pt x="250" y="311" on="1"/>
        <pt x="382" y="311" on="1"/>
        <pt x="382" y="227" on="1"/>
        <pt x="252" y="227" on="1"/>
        <pt x="255" y="187" on="0"/>
        <pt x="269" y="150" on="0"/>
        <pt x="299" y="139" on="0"/>
        <pt x="330" y="139" on="1"/>
        <pt x="380" y="139" on="0"/>
        <pt x="418" y="145" on="1"/>
        <pt x="418" y="10" on="1"/>
        <pt x="395" y="2" on="0"/>
        <pt x="324" y="-8" on="0"/>
        <pt x="293" y="-8" on="1"/>
      </contour>
    </TTGlyph>
    <TTGlyph name="F" xMin="40" yMin="0" xMax="377" yMax="688">
      <contour>
        <pt x="40" y="688" on="1"/>
        <pt x="377" y="688" on="1"/>
        <pt x="377" y="540" on="1"/>
        <pt x="220" y="540" on="1"/>
        <pt x="220" y="402" on="1"/>
        <pt x="356" y="402" on="1"/>
        <pt x="356" y="254" on="1"/>
        <pt x="220" y="254" on="1"/>
        <pt x="220" y="0" on="1"/>
        <pt x="40" y="0" on="1"/>
      </contour>
    </TTGlyph>
    <TTGlyph name="G" xMin="30" yMin="-8" xMax="458" yMax="696">
      <contour>
        <pt x="256" y="272" on="1"/>
        <pt x="256" y="413" on="1"/>
        <pt x="458" y="413" on="1"/>
        <pt x="458" y="14" on="1"/>
        <pt x="420" y="4" on="0"/>
        <pt x="311" y="-8" on="0"/>
        <pt x="264" y="-8" on="1"/>
        <pt x="166" y="-8" on="0"/>
        <pt x="68" y="51" on="0"/>
        <pt x="30" y="198" on="0"/>
        <pt x="30" y="344" on="1"/>
        <pt x="30" y="490" on="0"/>
        <pt x="70" y="637" on="0"/>
        <pt x="173" y="696" on="0"/>
        <pt x="276" y="696" on="1"/>
        <pt x="315" y="696" on="0"/>
        <pt x="417" y="684" on="0"/>
        <pt x="456" y="675" on="1"/>
        <pt x="456" y="538" on="1"/>
        <pt x="360" y="548" on="0"/>
        <pt x="326" y="548" on="1"/>
        <pt x="264" y="548" on="0"/>
        <pt x="221" y="529" on="0"/>
        <pt x="207" y="451" on="0"/>
        <pt x="207" y="344" on="1"/>
        <pt x="207" y="244" on="0"/>
        <pt x="215" y="162" on="0"/>
        <pt x="240" y="135" on="0"/>
        <pt x="271" y="135" on="1"/>
        <pt x="299" y="136" on="1"/>
        <pt x="299" y="272" on="1"/>
      </contour>
    </TTGlyph>
    <TTGlyph name="G.ss01" xMin="30" yMin="-8" xMax="470" yMax="696">
      <contour>
        <pt x="158" y="-8" on="0"/>
        <pt x="61" y="51" on="0"/>
        <pt x="30" y="194" on="0"/>
        <pt x="30" y="344" on="1"/>
        <pt x="30" y="490" on="0"/>
        <pt x="70" y="637" on="0"/>
        <pt x="175" y="696" on="0"/>
        <pt x="281" y="696" on="1"/>
        <pt x="319" y="696" on="0"/>
        <pt x="417" y="684" on="0"/>
        <pt x="453" y="675" on="1"/>
        <pt x="453" y="538" on="1"/>
        <pt x="368" y="548" on="0"/>
        <pt x="326" y="548" on="1"/>
        <pt x="265" y="548" on="0"/>
        <pt x="221" y="526" on="0"/>
        <pt x="209" y="450" on="0"/>
        <pt x="209" y="344" on="1"/>
        <pt x="209" y="239" on="0"/>
        <pt x="215" y="159" on="0"/>
        <pt x="232" y="139" on="0"/>
        <pt x="255" y="139" on="1"/>
        <pt x="278" y="139" on="0"/>
        <pt x="293" y="148" on="0"/>
        <pt x="297" y="181" on="0"/>
        <pt x="297" y="233" on="1"/>
        <pt x="297" y="274" on="1"/>
        <pt x="257" y="274" on="1"/>
        <pt x="257" y="416" on="1"/>
        <pt x="470" y="416" on="1"/>
        <pt x="470" y="250" on="1"/>
        <pt x="470" y="145" on="0"/>
        <pt x="450" y="47" on="0"/>
        <pt x="363" y="-8" on="0"/>
        <pt x="264" y="-8" on="1"/>
      </contour>
    </TTGlyph>
    <TTGlyph name="G_tilde.loclGUA" xMin="30" yMin="-8" xMax="458" yMax="888">
      <component glyphName="G" x="0" y="0" flags="0x0"/>
      <component glyphName="tildecomb.case" x="416" y="0" flags="0x0"/>
    </TTGlyph>
    <TTGlyph name="Gbreve" xMin="30" yMin="-8" xMax="458" yMax="888">
      <component glyphName="G" x="0" y="0" flags="0x0"/>
      <component glyphName="uni0306.case" x="391" y="0" flags="0x0"/>
    </TTGlyph>
    <TTGlyph name="Gbreve.ss01" xMin="30" yMin="-8" xMax="470" yMax="888">
      <component glyphName="G.ss01" x="0" y="0" flags="0x0"/>
      <component glyphName="uni0306.case" x="396" y="0" flags="0x0"/>
    </TTGlyph>
    <TTGlyph name="Gcaron" xMin="30" yMin="-8" xMax="458" yMax="888">
      <component glyphName="G" x="0" y="0" flags="0x0"/>
      <component glyphName="uni030C.case" x="405" y="0" flags="0x0"/>
    </TTGlyph>
    <TTGlyph name="Gcaron.ss01" xMin="30" yMin="-8" xMax="470" yMax="888">
      <component glyphName="G.ss01" x="0" y="0" flags="0x0"/>
      <component glyphName="uni030C.case" x="410" y="0" flags="0x0"/>
    </TTGlyph>
    <TTGlyph name="Gcircumflex" xMin="30" yMin="-8" xMax="458" yMax="888">
      <component glyphName="G" x="0" y="0" flags="0x0"/>
      <component glyphName="uni0302.case" x="405" y="0" flags="0x0"/>
    </TTGlyph>
    <TTGlyph name="Gcircumflex.ss01" xMin="30" yMin="-8" xMax="470" yMax="888">
      <component glyphName="G.ss01" x="0" y="0" flags="0x0"/>
      <component glyphName="uni0302.case" x="410" y="0" flags="0x0"/>
    </TTGlyph>
    <TTGlyph name="Gcommaaccent" xMin="30" yMin="-289" xMax="458" yMax="696">
      <component glyphName="G" x="0" y="0" flags="0x0"/>
      <component glyphName="uni0326" x="382" y="0" flags="0x0"/>
    </TTGlyph>
    <TTGlyph name="Gcommaaccent.ss01" xMin="30" yMin="-289" xMax="470" yMax="696">
      <component glyphName="G.ss01" x="0" y="0" flags="0x0"/>
      <component glyphName="uni0326" x="387" y="0" flags="0x0"/>
    </TTGlyph>
    <TTGlyph name="Gdotaccent" xMin="30" yMin="-8" xMax="458" yMax="875">
      <component glyphName="G" x="0" y="0" flags="0x0"/>
      <component glyphName="uni0307.case" x="318" y="0" flags="0x0"/>
    </TTGlyph>
    <TTGlyph name="Gdotaccent.ss01" xMin="30" yMin="-8" xMax="470" yMax="875">
      <component glyphName="G.ss01" x="0" y="0" flags="0x0"/>
      <component glyphName="uni0307.case" x="323" y="0" flags="0x0"/>
    </TTGlyph>
    <TTGlyph name="Gtilde.loclGUA.ss01" xMin="30" yMin="-8" xMax="470" yMax="888">
      <component glyphName="G.ss01" x="0" y="0" flags="0x0"/>
      <component glyphName="tildecomb.case" x="421" y="0" flags="0x0"/>
    </TTGlyph>
    <TTGlyph name="H" xMin="40" yMin="0" xMax="480" yMax="688">
      <contour>
        <pt x="300" y="266" on="1"/>
        <pt x="220" y="266" on="1"/>
        <pt x="220" y="0" on="1"/>
        <pt x="40" y="0" on="1"/>
        <pt x="40" y="688" on="1"/>
        <pt x="220" y="688" on="1"/>
        <pt x="220" y="426" on="1"/>
        <pt x="300" y="426" on="1"/>
        <pt x="300" y="688" on="1"/>
        <pt x="480" y="688" on="1"/>
        <pt x="480" y="0" on="1"/>
        <pt x="300" y="0" on="1"/>
      </contour>
    </TTGlyph>
    <TTGlyph name="Hbar" xMin="40" yMin="0" xMax="480" yMax="688">
      <contour>
        <pt x="480" y="688" on="1"/>
        <pt x="480" y="0" on="1"/>
        <pt x="300" y="0" on="1"/>
        <pt x="300" y="226" on="1"/>
        <pt x="220" y="226" on="1"/>
        <pt x="220" y="0" on="1"/>
        <pt x="40" y="0" on="1"/>
        <pt x="40" y="688" on="1"/>
        <pt x="220" y="688" on="1"/>
        <pt x="220" y="612" on="1"/>
        <pt x="300" y="612" on="1"/>
        <pt x="300" y="688" on="1"/>
      </contour>
      <contour>
        <pt x="300" y="386" on="1"/>
        <pt x="300" y="473" on="1"/>
        <pt x="220" y="473" on="1"/>
        <pt x="220" y="386" on="1"/>
      </contour>
    </TTGlyph>
    <TTGlyph name="Hcircumflex" xMin="40" yMin="0" xMax="480" yMax="888">
      <component glyphName="H" x="0" y="0" flags="0x0"/>
      <component glyphName="uni0302.case" x="419" y="0" flags="0x0"/>
    </TTGlyph>
    <TTGlyph name="I" xMin="40" yMin="0" xMax="220" yMax="688">
      <contour>
        <pt x="40" y="688" on="1"/>
        <pt x="220" y="688" on="1"/>
        <pt x="220" y="0" on="1"/>
        <pt x="40" y="0" on="1"/>
      </contour>
    </TTGlyph>
    <TTGlyph name="IJ" xMin="40" yMin="0" xMax="549" yMax="688">
      <component glyphName="I" x="0" y="0" flags="0x0"/>
      <component glyphName="J" x="260" y="0" flags="0x0"/>
    </TTGlyph>
    <TTGlyph name="Iacute" xMin="40" yMin="0" xMax="254" yMax="898">
      <component glyphName="I" x="0" y="0" flags="0x0"/>
      <component glyphName="acute" x="36" y="155" flags="0x4"/>
    </TTGlyph>
    <TTGlyph name="Iacute_J.loclNLD" xMin="40" yMin="0" xMax="606" yMax="888">
      <component glyphName="I" x="0" y="0" flags="0x0"/>
      <component glyphName="acutecomb.case" x="284" y="0" flags="0x0"/>
      <component glyphName="J" x="260" y="0" flags="0x0"/>
      <component glyphName="acutecomb.case" x="612" y="0" flags="0x0"/>
    </TTGlyph>
    <TTGlyph name="Ibreve" xMin="-10" yMin="0" xMax="268" yMax="888">
      <component glyphName="I" x="0" y="0" flags="0x0"/>
      <component glyphName="uni0306.case" x="275" y="0" flags="0x0"/>
    </TTGlyph>
    <TTGlyph name="Icircumflex" xMin="-23" yMin="0" xMax="283" yMax="881">
      <component glyphName="I" x="0" y="0" flags="0x0"/>
      <component glyphName="circumflex" x="-30" y="138" flags="0x4"/>
    </TTGlyph>
    <TTGlyph name="Idieresis" xMin="-29" yMin="0" xMax="288" yMax="892">
      <component glyphName="I" x="0" y="0" flags="0x0"/>
      <component glyphName="dieresis" x="-34" y="162" flags="0x4"/>
    </TTGlyph>
    <TTGlyph name="Idotaccent" xMin="40" yMin="0" xMax="220" yMax="875">
      <component glyphName="I" x="0" y="0" flags="0x0"/>
      <component glyphName="uni0307.case" x="202" y="0" flags="0x0"/>
    </TTGlyph>
    <TTGlyph name="Igrave" xMin="9" yMin="0" xMax="220" yMax="898">
      <component glyphName="I" x="0" y="0" flags="0x0"/>
      <component glyphName="grave" x="2" y="155" flags="0x4"/>
    </TTGlyph>
    <TTGlyph name="Imacron" xMin="21" yMin="0" xMax="238" yMax="888">
      <component glyphName="I" x="0" y="0" flags="0x0"/>
      <component glyphName="uni0304.case" x="281" y="0" flags="0x0"/>
    </TTGlyph>
    <TTGlyph name="Iogonek" xMin="40" yMin="-196" xMax="221" yMax="688">
      <contour>
        <pt x="96" y="-196" on="0"/>
        <pt x="43" y="-146" on="0"/>
        <pt x="43" y="-106" on="1"/>
        <pt x="43" y="-80" on="0"/>
        <pt x="73" y="-24" on="0"/>
        <pt x="98" y="0" on="1"/>
        <pt x="40" y="0" on="1"/>
        <pt x="40" y="688" on="1"/>
        <pt x="220" y="688" on="1"/>
        <pt x="220" y="0" on="1"/>
        <pt x="202" y="-13" on="0"/>
        <pt x="171" y="-56" on="0"/>
        <pt x="171" y="-77" on="1"/>
        <pt x="171" y="-112" on="0"/>
        <pt x="209" y="-112" on="1"/>
        <pt x="221" y="-111" on="1"/>
        <pt x="221" y="-191" on="1"/>
        <pt x="194" y="-196" on="0"/>
        <pt x="156" y="-196" on="1"/>
      </contour>
    </TTGlyph>
    <TTGlyph name="Itilde" xMin="-35" yMin="0" xMax="293" yMax="888">
      <component glyphName="I" x="0" y="0" flags="0x0"/>
      <component glyphName="tildecomb.case" x="300" y="0" flags="0x0"/>
    </TTGlyph>
    <TTGlyph name="J" xMin="9" yMin="0" xMax="289" yMax="688">
      <contour>
        <pt x="59" y="139" on="0"/>
        <pt x="97" y="152" on="0"/>
        <pt x="108" y="194" on="0"/>
        <pt x="108" y="250" on="1"/>
        <pt x="108" y="688" on="1"/>
        <pt x="289" y="688" on="1"/>
        <pt x="289" y="328" on="1"/>
        <pt x="289" y="158" on="0"/>
        <pt x="259" y="35" on="0"/>
        <pt x="154" y="0" on="0"/>
        <pt x="9" y="0" on="1"/>
        <pt x="9" y="139" on="1"/>
      </contour>
    </TTGlyph>
    <TTGlyph name="Jcircumflex" xMin="9" yMin="0" xMax="351" yMax="888">
      <component glyphName="J" x="0" y="0" flags="0x0"/>
      <component glyphName="uni0302.case" x="357" y="0" flags="0x0"/>
    </TTGlyph>
    <TTGlyph name="K" xMin="40" yMin="0" xMax="507" yMax="688">
      <contour>
        <pt x="233" y="273" on="1"/>
        <pt x="220" y="273" on="1"/>
        <pt x="220" y="0" on="1"/>
        <pt x="40" y="0" on="1"/>
        <pt x="40" y="688" on="1"/>
        <pt x="220" y="688" on="1"/>
        <pt x="220" y="425" on="1"/>
        <pt x="233" y="425" on="1"/>
        <pt x="319" y="688" on="1"/>
        <pt x="505" y="688" on="1"/>
        <pt x="376" y="360" on="1"/>
        <pt x="507" y="0" on="1"/>
        <pt x="316" y="0" on="1"/>
      </contour>
    </TTGlyph>
    <TTGlyph name="Kcommaaccent" xMin="40" yMin="-289" xMax="507" yMax="688">
      <component glyphName="K" x="0" y="0" flags="0x0"/>
      <component glyphName="uni0326" x="391" y="0" flags="0x0"/>
    </TTGlyph>
    <TTGlyph name="L" xMin="40" yMin="0" xMax="372" yMax="688">
      <contour>
        <pt x="40" y="688" on="1"/>
        <pt x="220" y="688" on="1"/>
        <pt x="220" y="153" on="1"/>
        <pt x="372" y="153" on="1"/>
        <pt x="372" y="0" on="1"/>
        <pt x="40" y="0" on="1"/>
      </contour>
    </TTGlyph>
    <TTGlyph name="Lacute" xMin="40" yMin="0" xMax="372" yMax="888">
      <component glyphName="L" x="0" y="0" flags="0x0"/>
      <component glyphName="acutecomb.case" x="284" y="0" flags="0x0"/>
    </TTGlyph>
    <TTGlyph name="Lcaron" xMin="40" yMin="0" xMax="435" yMax="688">
      <component glyphName="L" x="0" y="0" flags="0x0"/>
      <component glyphName="caron.loclCSY" x="236" y="0" flags="0x0"/>
    </TTGlyph>
    <TTGlyph name="Lcommaaccent" xMin="40" yMin="-289" xMax="372" yMax="688">
      <component glyphName="L" x="0" y="0" flags="0x0"/>
      <component glyphName="uni0326" x="332" y="0" flags="0x0"/>
    </TTGlyph>
    <TTGlyph name="Ldot" xMin="40" yMin="0" xMax="434" yMax="688">
      <component glyphName="L" x="0" y="0" flags="0x0"/>
      <component glyphName="periodcentered" x="207" y="83" flags="0x4"/>
    </TTGlyph>
    <TTGlyph name="Lslash" xMin="0" yMin="0" xMax="372" yMax="688">
      <contour>
        <pt x="372" y="153" on="1"/>
        <pt x="372" y="0" on="1"/>
        <pt x="40" y="0" on="1"/>
        <pt x="40" y="248" on="1"/>
        <pt x="0" y="233" on="1"/>
        <pt x="0" y="366" on="1"/>
        <pt x="40" y="381" on="1"/>
        <pt x="40" y="688" on="1"/>
        <pt x="220" y="688" on="1"/>
        <pt x="220" y="448" on="1"/>
        <pt x="310" y="481" on="1"/>
        <pt x="310" y="348" on="1"/>
        <pt x="220" y="315" on="1"/>
        <pt x="220" y="153" on="1"/>
      </contour>
    </TTGlyph>
    <TTGlyph name="M" xMin="40" yMin="0" xMax="684" yMax="688">
      <contour>
        <pt x="511" y="467" on="1"/>
        <pt x="502" y="467" on="1"/>
        <pt x="436" y="0" on="1"/>
        <pt x="283" y="0" on="1"/>
        <pt x="218" y="467" on="1"/>
        <pt x="208" y="467" on="1"/>
        <pt x="208" y="0" on="1"/>
        <pt x="40" y="0" on="1"/>
        <pt x="40" y="688" on="1"/>
        <pt x="306" y="688" on="1"/>
        <pt x="360" y="270" on="1"/>
        <pt x="368" y="270" on="1"/>
        <pt x="421" y="688" on="1"/>
        <pt x="684" y="688" on="1"/>
        <pt x="684" y="0" on="1"/>
        <pt x="511" y="0" on="1"/>
      </contour>
    </TTGlyph>
    <TTGlyph name="N" xMin="40" yMin="0" xMax="486" yMax="688">
      <contour>
        <pt x="216" y="310" on="1"/>
        <pt x="211" y="310" on="1"/>
        <pt x="211" y="0" on="1"/>
        <pt x="40" y="0" on="1"/>
        <pt x="40" y="688" on="1"/>
        <pt x="213" y="688" on="1"/>
        <pt x="309" y="421" on="1"/>
        <pt x="315" y="421" on="1"/>
        <pt x="315" y="688" on="1"/>
        <pt x="486" y="688" on="1"/>
        <pt x="486" y="0" on="1"/>
        <pt x="327" y="0" on="1"/>
      </contour>
    </TTGlyph>
    <TTGlyph name="Nacute" xMin="40" yMin="0" xMax="486" yMax="888">
      <component glyphName="N" x="0" y="0" flags="0x0"/>
      <component glyphName="acutecomb.case" x="418" y="0" flags="0x0"/>
    </TTGlyph>
    <TTGlyph name="Nacute.loclPLK" xMin="40" yMin="0" xMax="486" yMax="888">
      <component glyphName="N" x="0" y="0" flags="0x0"/>
      <component glyphName="acute.case.loclPLK" x="194" y="0" flags="0x0"/>
    </TTGlyph>
    <TTGlyph name="Ncaron" xMin="40" yMin="0" xMax="486" yMax="888">
      <component glyphName="N" x="0" y="0" flags="0x0"/>
      <component glyphName="uni030C.case" x="423" y="0" flags="0x0"/>
    </TTGlyph>
    <TTGlyph name="Ncommaaccent" xMin="40" yMin="-289" xMax="486" yMax="688">
      <component glyphName="N" x="0" y="0" flags="0x0"/>
      <component glyphName="uni0326" x="400" y="0" flags="0x0"/>
    </TTGlyph>
    <TTGlyph name="Ntilde" xMin="40" yMin="0" xMax="486" yMax="905">
      <component glyphName="N" x="0" y="0" flags="0x0"/>
      <component glyphName="tilde" x="92" y="162" flags="0x4"/>
    </TTGlyph>
    <TTGlyph name="O" xMin="30" yMin="-8" xMax="479" yMax="696">
      <contour>
        <pt x="144" y="-8" on="0"/>
        <pt x="51" y="55" on="0"/>
        <pt x="30" y="188" on="0"/>
        <pt x="30" y="344" on="1"/>
        <pt x="30" y="501" on="0"/>
        <pt x="51" y="633" on="0"/>
        <pt x="144" y="696" on="0"/>
        <pt x="254" y="696" on="1"/>
        <pt x="364" y="696" on="0"/>
        <pt x="457" y="633" on="0"/>
        <pt x="479" y="500" on="0"/>
        <pt x="479" y="344" on="1"/>
        <pt x="479" y="188" on="0"/>
        <pt x="457" y="56" on="0"/>
        <pt x="364" y="-8" on="0"/>
        <pt x="254" y="-8" on="1"/>
      </contour>
      <contour>
        <pt x="278" y="140" on="0"/>
        <pt x="294" y="159" on="0"/>
        <pt x="298" y="232" on="0"/>
        <pt x="298" y="344" on="1"/>
        <pt x="298" y="456" on="0"/>
        <pt x="294" y="529" on="0"/>
        <pt x="278" y="548" on="0"/>
        <pt x="254" y="548" on="1"/>
        <pt x="230" y="548" on="0"/>
        <pt x="215" y="529" on="0"/>
        <pt x="211" y="456" on="0"/>
        <pt x="211" y="344" on="1"/>
        <pt x="211" y="232" on="0"/>
        <pt x="215" y="159" on="0"/>
        <pt x="230" y="140" on="0"/>
        <pt x="254" y="140" on="1"/>
      </contour>
    </TTGlyph>
    <TTGlyph name="OE" xMin="30" yMin="0" xMax="678" yMax="688">
      <contour>
        <pt x="144" y="0" on="0"/>
        <pt x="51" y="62" on="0"/>
        <pt x="30" y="191" on="0"/>
        <pt x="30" y="344" on="1"/>
        <pt x="30" y="497" on="0"/>
        <pt x="51" y="626" on="0"/>
        <pt x="144" y="688" on="0"/>
        <pt x="254" y="688" on="1"/>
        <pt x="678" y="688" on="1"/>
        <pt x="678" y="540" on="1"/>
        <pt x="521" y="540" on="1"/>
        <pt x="484" y="540" on="0"/>
        <pt x="464" y="545" on="1"/>
        <pt x="473" y="508" on="0"/>
        <pt x="478" y="421" on="1"/>
        <pt x="653" y="421" on="1"/>
        <pt x="653" y="274" on="1"/>
        <pt x="478" y="274" on="1"/>
        <pt x="478" y="192" on="0"/>
        <pt x="464" y="143" on="1"/>
        <pt x="489" y="148" on="0"/>
        <pt x="521" y="148" on="1"/>
        <pt x="678" y="148" on="1"/>
        <pt x="678" y="0" on="1"/>
        <pt x="254" y="0" on="1"/>
      </contour>
      <contour>
        <pt x="278" y="148" on="0"/>
        <pt x="294" y="167" on="0"/>
        <pt x="298" y="236" on="0"/>
        <pt x="298" y="344" on="1"/>
        <pt x="298" y="452" on="0"/>
        <pt x="294" y="521" on="0"/>
        <pt x="278" y="540" on="0"/>
        <pt x="254" y="540" on="1"/>
        <pt x="230" y="540" on="0"/>
        <pt x="215" y="521" on="0"/>
        <pt x="211" y="452" on="0"/>
        <pt x="211" y="344" on="1"/>
        <pt x="211" y="236" on="0"/>
        <pt x="215" y="167" on="0"/>
        <pt x="230" y="148" on="0"/>
        <pt x="254" y="148" on="1"/>
      </contour>
    </TTGlyph>
    <TTGlyph name="Oacute" xMin="30" yMin="-8" xMax="479" yMax="898">
      <component glyphName="O" x="0" y="0" flags="0x0"/>
      <component glyphName="acute" x="176" y="155" flags="0x4"/>
    </TTGlyph>
    <TTGlyph name="Oacute.loclPLK" xMin="30" yMin="-8" xMax="479" yMax="888">
      <component glyphName="O" x="0" y="0" flags="0x0"/>
      <component glyphName="acute.case.loclPLK" x="185" y="0" flags="0x0"/>
    </TTGlyph>
    <TTGlyph name="Obreve" xMin="30" yMin="-8" xMax="479" yMax="888">
      <component glyphName="O" x="0" y="0" flags="0x0"/>
      <component glyphName="uni0306.case" x="400" y="0" flags="0x0"/>
    </TTGlyph>
    <TTGlyph name="Ocircumflex" xMin="30" yMin="-8" xMax="479" yMax="881">
      <component glyphName="O" x="0" y="0" flags="0x0"/>
      <component glyphName="circumflex" x="94" y="138" flags="0x4"/>
    </TTGlyph>
    <TTGlyph name="Odieresis" xMin="30" yMin="-8" xMax="479" yMax="892">
      <component glyphName="O" x="0" y="0" flags="0x0"/>
      <component glyphName="dieresis" x="90" y="162" flags="0x4"/>
    </TTGlyph>
    <TTGlyph name="Ograve" xMin="30" yMin="-8" xMax="479" yMax="898">
      <component glyphName="O" x="0" y="0" flags="0x0"/>
      <component glyphName="grave" x="106" y="155" flags="0x4"/>
    </TTGlyph>
    <TTGlyph name="Ohorn" xMin="30" yMin="-8" xMax="528" yMax="776">
      <contour>
        <pt x="528" y="776" on="1"/>
        <pt x="528" y="762" on="1"/>
        <pt x="528" y="716" on="0"/>
        <pt x="516" y="664" on="0"/>
        <pt x="481" y="633" on="0"/>
        <pt x="446" y="627" on="1"/>
        <pt x="468" y="589" on="0"/>
        <pt x="479" y="468" on="0"/>
        <pt x="479" y="344" on="1"/>
        <pt x="479" y="188" on="0"/>
        <pt x="457" y="56" on="0"/>
        <pt x="364" y="-8" on="0"/>
        <pt x="254" y="-8" on="1"/>
        <pt x="144" y="-8" on="0"/>
        <pt x="51" y="55" on="0"/>
        <pt x="30" y="188" on="0"/>
        <pt x="30" y="344" on="1"/>
        <pt x="30" y="501" on="0"/>
        <pt x="51" y="633" on="0"/>
        <pt x="144" y="696" on="0"/>
        <pt x="254" y="696" on="1"/>
        <pt x="308" y="696" on="0"/>
        <pt x="350" y="688" on="1"/>
        <pt x="365" y="688" on="1"/>
        <pt x="400" y="688" on="0"/>
        <pt x="422" y="713" on="0"/>
        <pt x="422" y="747" on="1"/>
        <pt x="422" y="776" on="1"/>
      </contour>
      <contour>
        <pt x="278" y="140" on="0"/>
        <pt x="294" y="159" on="0"/>
        <pt x="298" y="232" on="0"/>
        <pt x="298" y="344" on="1"/>
        <pt x="298" y="456" on="0"/>
        <pt x="294" y="529" on="0"/>
        <pt x="278" y="548" on="0"/>
        <pt x="254" y="548" on="1"/>
        <pt x="230" y="548" on="0"/>
        <pt x="215" y="529" on="0"/>
        <pt x="211" y="456" on="0"/>
        <pt x="211" y="344" on="1"/>
        <pt x="211" y="232" on="0"/>
        <pt x="215" y="159" on="0"/>
        <pt x="230" y="140" on="0"/>
        <pt x="254" y="140" on="1"/>
      </contour>
    </TTGlyph>
    <TTGlyph name="Ohungarumlaut" xMin="30" yMin="-8" xMax="479" yMax="873">
      <component glyphName="O" x="0" y="0" flags="0x0"/>
      <component glyphName="uni030B.case" x="458" y="0" flags="0x0"/>
    </TTGlyph>
    <TTGlyph name="Omacron" xMin="30" yMin="-8" xMax="479" yMax="888">
      <component glyphName="O" x="0" y="0" flags="0x0"/>
      <component glyphName="uni0304.case" x="406" y="0" flags="0x0"/>
    </TTGlyph>
    <TTGlyph name="Oslash" xMin="30" yMin="-55" xMax="479" yMax="743">
      <contour>
        <pt x="438" y="639" on="1"/>
        <pt x="465" y="603" on="0"/>
        <pt x="479" y="477" on="0"/>
        <pt x="479" y="344" on="1"/>
        <pt x="479" y="188" on="0"/>
        <pt x="457" y="56" on="0"/>
        <pt x="364" y="-8" on="0"/>
        <pt x="254" y="-8" on="1"/>
        <pt x="220" y="-8" on="0"/>
        <pt x="191" y="-5" on="1"/>
        <pt x="173" y="-55" on="1"/>
        <pt x="30" y="-55" on="1"/>
        <pt x="70" y="49" on="1"/>
        <pt x="43" y="85" on="0"/>
        <pt x="30" y="209" on="0"/>
        <pt x="30" y="344" on="1"/>
        <pt x="30" y="501" on="0"/>
        <pt x="51" y="633" on="0"/>
        <pt x="144" y="696" on="0"/>
        <pt x="254" y="696" on="1"/>
        <pt x="289" y="696" on="0"/>
        <pt x="316" y="693" on="1"/>
        <pt x="336" y="743" on="1"/>
        <pt x="479" y="743" on="1"/>
      </contour>
      <contour>
        <pt x="278" y="140" on="0"/>
        <pt x="294" y="159" on="0"/>
        <pt x="298" y="232" on="0"/>
        <pt x="298" y="344" on="1"/>
        <pt x="298" y="456" on="0"/>
        <pt x="294" y="529" on="0"/>
        <pt x="278" y="548" on="0"/>
        <pt x="254" y="548" on="1"/>
        <pt x="230" y="548" on="0"/>
        <pt x="215" y="529" on="0"/>
        <pt x="211" y="456" on="0"/>
        <pt x="211" y="344" on="1"/>
        <pt x="211" y="232" on="0"/>
        <pt x="215" y="159" on="0"/>
        <pt x="230" y="140" on="0"/>
        <pt x="254" y="140" on="1"/>
      </contour>
    </TTGlyph>
    <TTGlyph name="Oslash.bold" xMin="30" yMin="-55" xMax="479" yMax="743">
      <contour>
        <pt x="439" y="638" on="1"/>
        <pt x="466" y="602" on="0"/>
        <pt x="479" y="476" on="0"/>
        <pt x="479" y="344" on="1"/>
        <pt x="479" y="188" on="0"/>
        <pt x="457" y="56" on="0"/>
        <pt x="364" y="-8" on="0"/>
        <pt x="254" y="-8" on="1"/>
        <pt x="221" y="-8" on="0"/>
        <pt x="192" y="-5" on="1"/>
        <pt x="173" y="-55" on="1"/>
        <pt x="30" y="-55" on="1"/>
        <pt x="70" y="50" on="1"/>
        <pt x="43" y="85" on="0"/>
        <pt x="30" y="209" on="0"/>
        <pt x="30" y="344" on="1"/>
        <pt x="30" y="501" on="0"/>
        <pt x="51" y="633" on="0"/>
        <pt x="144" y="696" on="0"/>
        <pt x="254" y="696" on="1"/>
        <pt x="288" y="696" on="0"/>
        <pt x="317" y="693" on="1"/>
        <pt x="336" y="743" on="1"/>
        <pt x="479" y="743" on="1"/>
      </contour>
      <contour>
        <pt x="233" y="548" on="0"/>
        <pt x="218" y="535" on="0"/>
        <pt x="212" y="484" on="0"/>
        <pt x="211" y="417" on="1"/>
        <pt x="261" y="548" on="1"/>
        <pt x="254" y="548" on="1"/>
      </contour>
      <contour>
        <pt x="275" y="140" on="0"/>
        <pt x="291" y="153" on="0"/>
        <pt x="297" y="204" on="0"/>
        <pt x="298" y="271" on="1"/>
        <pt x="248" y="140" on="1"/>
        <pt x="254" y="140" on="1"/>
      </contour>
    </TTGlyph>
    <TTGlyph name="Oslashacute" xMin="30" yMin="-55" xMax="479" yMax="888">
      <component glyphName="Oslash" x="0" y="0" flags="0x0"/>
      <component glyphName="acutecomb.case" x="382" y="0" flags="0x0"/>
    </TTGlyph>
    <TTGlyph name="Otilde" xMin="30" yMin="-8" xMax="479" yMax="904">
      <component glyphName="O" x="0" y="0" flags="0x0"/>
      <component glyphName="tilde" x="85" y="161" flags="0x4"/>
    </TTGlyph>
    <TTGlyph name="P" xMin="40" yMin="0" xMax="468" yMax="688">
      <contour>
        <pt x="40" y="688" on="1"/>
        <pt x="288" y="688" on="1"/>
        <pt x="364" y="688" on="0"/>
        <pt x="441" y="637" on="0"/>
        <pt x="468" y="536" on="0"/>
        <pt x="468" y="447" on="1"/>
        <pt x="468" y="363" on="0"/>
        <pt x="444" y="263" on="0"/>
        <pt x="366" y="206" on="0"/>
        <pt x="288" y="206" on="1"/>
        <pt x="220" y="206" on="1"/>
        <pt x="220" y="0" on="1"/>
        <pt x="40" y="0" on="1"/>
      </contour>
      <contour>
        <pt x="241" y="353" on="1"/>
        <pt x="264" y="353" on="0"/>
        <pt x="281" y="363" on="0"/>
        <pt x="287" y="400" on="0"/>
        <pt x="287" y="447" on="1"/>
        <pt x="287" y="495" on="0"/>
        <pt x="281" y="532" on="0"/>
        <pt x="264" y="541" on="0"/>
        <pt x="241" y="541" on="1"/>
        <pt x="220" y="541" on="1"/>
        <pt x="220" y="353" on="1"/>
      </contour>
    </TTGlyph>
    <TTGlyph name="Q" xMin="30" yMin="-115" xMax="525" yMax="696">
      <contour>
        <pt x="278" y="-7" on="1"/>
        <pt x="270" y="-8" on="0"/>
        <pt x="254" y="-8" on="1"/>
        <pt x="144" y="-8" on="0"/>
        <pt x="51" y="55" on="0"/>
        <pt x="30" y="188" on="0"/>
        <pt x="30" y="344" on="1"/>
        <pt x="30" y="501" on="0"/>
        <pt x="51" y="633" on="0"/>
        <pt x="144" y="696" on="0"/>
        <pt x="254" y="696" on="1"/>
        <pt x="364" y="696" on="0"/>
        <pt x="457" y="633" on="0"/>
        <pt x="479" y="500" on="0"/>
        <pt x="479" y="344" on="1"/>
        <pt x="479" y="213" on="0"/>
        <pt x="461" y="80" on="0"/>
        <pt x="430" y="45" on="1"/>
        <pt x="525" y="-108" on="1"/>
        <pt x="525" y="-115" on="1"/>
        <pt x="341" y="-115" on="1"/>
      </contour>
      <contour>
        <pt x="278" y="140" on="0"/>
        <pt x="294" y="159" on="0"/>
        <pt x="298" y="232" on="0"/>
        <pt x="298" y="344" on="1"/>
        <pt x="298" y="456" on="0"/>
        <pt x="294" y="529" on="0"/>
        <pt x="278" y="548" on="0"/>
        <pt x="254" y="548" on="1"/>
        <pt x="230" y="548" on="0"/>
        <pt x="215" y="529" on="0"/>
        <pt x="211" y="456" on="0"/>
        <pt x="211" y="344" on="1"/>
        <pt x="211" y="232" on="0"/>
        <pt x="215" y="159" on="0"/>
        <pt x="230" y="140" on="0"/>
        <pt x="254" y="140" on="1"/>
      </contour>
    </TTGlyph>
    <TTGlyph name="Q.bold" xMin="30" yMin="-115" xMax="525" yMax="696">
      <contour>
        <pt x="525" y="-108" on="1"/>
        <pt x="525" y="-115" on="1"/>
        <pt x="341" y="-115" on="1"/>
        <pt x="278" y="-8" on="1"/>
        <pt x="254" y="-8" on="1"/>
        <pt x="144" y="-8" on="0"/>
        <pt x="51" y="55" on="0"/>
        <pt x="30" y="188" on="0"/>
        <pt x="30" y="344" on="1"/>
        <pt x="30" y="501" on="0"/>
        <pt x="51" y="633" on="0"/>
        <pt x="144" y="696" on="0"/>
        <pt x="254" y="696" on="1"/>
        <pt x="364" y="696" on="0"/>
        <pt x="457" y="633" on="0"/>
        <pt x="479" y="500" on="0"/>
        <pt x="479" y="344" on="1"/>
        <pt x="479" y="214" on="0"/>
        <pt x="461" y="82" on="0"/>
        <pt x="430" y="45" on="1"/>
      </contour>
      <contour>
        <pt x="230" y="548" on="0"/>
        <pt x="215" y="529" on="0"/>
        <pt x="211" y="456" on="0"/>
        <pt x="211" y="344" on="1"/>
        <pt x="211" y="247" on="0"/>
        <pt x="212" y="218" on="1"/>
        <pt x="297" y="218" on="1"/>
        <pt x="298" y="247" on="0"/>
        <pt x="298" y="344" on="1"/>
        <pt x="298" y="456" on="0"/>
        <pt x="294" y="529" on="0"/>
        <pt x="278" y="548" on="0"/>
        <pt x="254" y="548" on="1"/>
      </contour>
    </TTGlyph>
    <TTGlyph name="R" xMin="40" yMin="0" xMax="490" yMax="688">
      <contour>
        <pt x="305" y="0" on="1"/>
        <pt x="251" y="226" on="1"/>
        <pt x="220" y="226" on="1"/>
        <pt x="220" y="0" on="1"/>
        <pt x="40" y="0" on="1"/>
        <pt x="40" y="688" on="1"/>
        <pt x="293" y="688" on="1"/>
        <pt x="369" y="688" on="0"/>
        <pt x="447" y="639" on="0"/>
        <pt x="474" y="542" on="0"/>
        <pt x="474" y="457" on="1"/>
        <pt x="474" y="380" on="0"/>
        <pt x="450" y="285" on="0"/>
        <pt x="414" y="258" on="1"/>
        <pt x="490" y="0" on="1"/>
      </contour>
      <contour>
        <pt x="220" y="368" on="1"/>
        <pt x="247" y="368" on="1"/>
        <pt x="269" y="368" on="0"/>
        <pt x="287" y="377" on="0"/>
        <pt x="293" y="411" on="0"/>
        <pt x="293" y="455" on="1"/>
        <pt x="293" y="499" on="0"/>
        <pt x="288" y="532" on="0"/>
        <pt x="270" y="541" on="0"/>
        <pt x="247" y="541" on="1"/>
        <pt x="220" y="541" on="1"/>
      </contour>
    </TTGlyph>
    <TTGlyph name="R.ss01" xMin="40" yMin="0" xMax="479" yMax="688">
      <contour>
        <pt x="479" y="0" on="1"/>
        <pt x="301" y="0" on="1"/>
        <pt x="288" y="156" on="1"/>
        <pt x="285" y="193" on="0"/>
        <pt x="277" y="221" on="0"/>
        <pt x="258" y="230" on="0"/>
        <pt x="234" y="230" on="1"/>
        <pt x="220" y="230" on="1"/>
        <pt x="220" y="0" on="1"/>
        <pt x="40" y="0" on="1"/>
        <pt x="40" y="688" on="1"/>
        <pt x="306" y="688" on="1"/>
        <pt x="396" y="688" on="0"/>
        <pt x="475" y="595" on="0"/>
        <pt x="475" y="500" on="1"/>
        <pt x="475" y="440" on="0"/>
        <pt x="455" y="369" on="0"/>
        <pt x="415" y="331" on="0"/>
        <pt x="383" y="319" on="1"/>
        <pt x="383" y="315" on="1"/>
        <pt x="412" y="305" on="0"/>
        <pt x="445" y="279" on="0"/>
        <pt x="465" y="224" on="0"/>
        <pt x="467" y="174" on="1"/>
      </contour>
      <contour>
        <pt x="271" y="373" on="0"/>
        <pt x="288" y="381" on="0"/>
        <pt x="295" y="414" on="0"/>
        <pt x="295" y="457" on="1"/>
        <pt x="295" y="499" on="0"/>
        <pt x="288" y="532" on="0"/>
        <pt x="270" y="540" on="0"/>
        <pt x="246" y="540" on="1"/>
        <pt x="220" y="540" on="1"/>
        <pt x="220" y="373" on="1"/>
        <pt x="247" y="373" on="1"/>
      </contour>
    </TTGlyph>
    <TTGlyph name="Racute" xMin="40" yMin="0" xMax="490" yMax="888">
      <component glyphName="R" x="0" y="0" flags="0x0"/>
      <component glyphName="acutecomb.case" x="405" y="0" flags="0x0"/>
    </TTGlyph>
    <TTGlyph name="Racute.ss01" xMin="40" yMin="0" xMax="479" yMax="888">
      <component glyphName="R.ss01" x="0" y="0" flags="0x0"/>
      <component glyphName="acutecomb.case" x="406" y="0" flags="0x0"/>
    </TTGlyph>
    <TTGlyph name="Rcaron" xMin="40" yMin="0" xMax="490" yMax="888">
      <component glyphName="R" x="0" y="0" flags="0x0"/>
      <component glyphName="uni030C.case" x="410" y="0" flags="0x0"/>
    </TTGlyph>
    <TTGlyph name="Rcaron.ss01" xMin="40" yMin="0" xMax="479" yMax="888">
      <component glyphName="R.ss01" x="0" y="0" flags="0x0"/>
      <component glyphName="uni030C.case" x="411" y="0" flags="0x0"/>
    </TTGlyph>
    <TTGlyph name="Rcommaaccent" xMin="40" yMin="-289" xMax="490" yMax="688">
      <component glyphName="R" x="0" y="0" flags="0x0"/>
      <component glyphName="uni0326" x="387" y="0" flags="0x0"/>
    </TTGlyph>
    <TTGlyph name="Rcommaaccent.ss01" xMin="40" yMin="-289" xMax="479" yMax="688">
      <component glyphName="R.ss01" x="0" y="0" flags="0x0"/>
      <component glyphName="uni0326" x="388" y="0" flags="0x0"/>
    </TTGlyph>
    <TTGlyph name="S" xMin="23" yMin="-8" xMax="428" yMax="696">
      <contour>
        <pt x="179" y="-8" on="0"/>
        <pt x="73" y="3" on="0"/>
        <pt x="36" y="11" on="1"/>
        <pt x="36" y="147" on="1"/>
        <pt x="129" y="140" on="0"/>
        <pt x="173" y="140" on="1"/>
        <pt x="204" y="140" on="0"/>
        <pt x="232" y="144" on="0"/>
        <pt x="238" y="151" on="1"/>
        <pt x="244" y="157" on="0"/>
        <pt x="248" y="179" on="0"/>
        <pt x="248" y="199" on="1"/>
        <pt x="248" y="229" on="0"/>
        <pt x="240" y="254" on="0"/>
        <pt x="216" y="266" on="0"/>
        <pt x="185" y="271" on="1"/>
        <pt x="100" y="287" on="1"/>
        <pt x="58" y="295" on="0"/>
        <pt x="23" y="394" on="0"/>
        <pt x="23" y="484" on="1"/>
        <pt x="23" y="572" on="0"/>
        <pt x="76" y="665" on="0"/>
        <pt x="167" y="696" on="0"/>
        <pt x="236" y="696" on="1"/>
        <pt x="288" y="696" on="0"/>
        <pt x="376" y="684" on="0"/>
        <pt x="401" y="678" on="1"/>
        <pt x="401" y="541" on="1"/>
        <pt x="341" y="548" on="0"/>
        <pt x="278" y="548" on="1"/>
        <pt x="249" y="548" on="0"/>
        <pt x="222" y="545" on="0"/>
        <pt x="215" y="539" on="1"/>
        <pt x="208" y="533" on="0"/>
        <pt x="203" y="511" on="0"/>
        <pt x="203" y="490" on="1"/>
        <pt x="203" y="466" on="0"/>
        <pt x="208" y="444" on="0"/>
        <pt x="224" y="434" on="0"/>
        <pt x="243" y="430" on="1"/>
        <pt x="316" y="416" on="1"/>
        <pt x="350" y="409" on="0"/>
        <pt x="397" y="379" on="0"/>
        <pt x="412" y="341" on="1"/>
        <pt x="428" y="297" on="0"/>
        <pt x="428" y="223" on="1"/>
        <pt x="428" y="122" on="0"/>
        <pt x="377" y="22" on="0"/>
        <pt x="293" y="-8" on="0"/>
        <pt x="225" y="-8" on="1"/>
      </contour>
    </TTGlyph>
    <TTGlyph name="Sacute" xMin="23" yMin="-8" xMax="428" yMax="888">
      <component glyphName="S" x="0" y="0" flags="0x0"/>
      <component glyphName="acutecomb.case" x="379" y="0" flags="0x0"/>
    </TTGlyph>
    <TTGlyph name="Sacute.loclPLK" xMin="23" yMin="-8" xMax="428" yMax="888">
      <component glyphName="S" x="0" y="0" flags="0x0"/>
      <component glyphName="acute.case.loclPLK" x="155" y="0" flags="0x0"/>
    </TTGlyph>
    <TTGlyph name="Scaron" xMin="23" yMin="-8" xMax="428" yMax="881">
      <component glyphName="S" x="0" y="0" flags="0x0"/>
      <component glyphName="caron" x="68" y="138" flags="0x4"/>
    </TTGlyph>
    <TTGlyph name="Scedilla" xMin="23" yMin="-188" xMax="428" yMax="696">
      <contour>
        <pt x="428" y="138" on="0"/>
        <pt x="391" y="40" on="0"/>
        <pt x="326" y="-1" on="0"/>
        <pt x="278" y="-6" on="1"/>
        <pt x="247" y="-188" on="1"/>
        <pt x="105" y="-188" on="1"/>
        <pt x="105" y="-183" on="1"/>
        <pt x="169" y="-6" on="1"/>
        <pt x="88" y="-1" on="0"/>
        <pt x="36" y="11" on="1"/>
        <pt x="36" y="147" on="1"/>
        <pt x="129" y="140" on="0"/>
        <pt x="173" y="140" on="1"/>
        <pt x="204" y="140" on="0"/>
        <pt x="232" y="144" on="0"/>
        <pt x="238" y="151" on="1"/>
        <pt x="244" y="157" on="0"/>
        <pt x="248" y="179" on="0"/>
        <pt x="248" y="199" on="1"/>
        <pt x="248" y="229" on="0"/>
        <pt x="240" y="254" on="0"/>
        <pt x="216" y="266" on="0"/>
        <pt x="185" y="271" on="1"/>
        <pt x="100" y="287" on="1"/>
        <pt x="58" y="295" on="0"/>
        <pt x="23" y="394" on="0"/>
        <pt x="23" y="484" on="1"/>
        <pt x="23" y="572" on="0"/>
        <pt x="76" y="665" on="0"/>
        <pt x="167" y="696" on="0"/>
        <pt x="236" y="696" on="1"/>
        <pt x="288" y="696" on="0"/>
        <pt x="376" y="684" on="0"/>
        <pt x="401" y="678" on="1"/>
        <pt x="401" y="541" on="1"/>
        <pt x="341" y="548" on="0"/>
        <pt x="278" y="548" on="1"/>
        <pt x="249" y="548" on="0"/>
        <pt x="222" y="545" on="0"/>
        <pt x="215" y="539" on="1"/>
        <pt x="208" y="533" on="0"/>
        <pt x="203" y="511" on="0"/>
        <pt x="203" y="490" on="1"/>
        <pt x="203" y="466" on="0"/>
        <pt x="208" y="444" on="0"/>
        <pt x="224" y="434" on="0"/>
        <pt x="243" y="430" on="1"/>
        <pt x="316" y="416" on="1"/>
        <pt x="350" y="409" on="0"/>
        <pt x="397" y="379" on="0"/>
        <pt x="412" y="341" on="1"/>
        <pt x="428" y="297" on="0"/>
        <pt x="428" y="223" on="1"/>
      </contour>
    </TTGlyph>
    <TTGlyph name="Scircumflex" xMin="23" yMin="-8" xMax="428" yMax="888">
      <component glyphName="S" x="0" y="0" flags="0x0"/>
      <component glyphName="uni0302.case" x="384" y="0" flags="0x0"/>
    </TTGlyph>
    <TTGlyph name="Scommaaccent" xMin="23" yMin="-289" xMax="428" yMax="696">
      <component glyphName="S" x="0" y="0" flags="0x0"/>
      <component glyphName="uni0326" x="361" y="0" flags="0x0"/>
    </TTGlyph>
    <TTGlyph name="T" xMin="7" yMin="0" xMax="426" yMax="688">
      <contour>
        <pt x="126" y="535" on="1"/>
        <pt x="7" y="535" on="1"/>
        <pt x="7" y="688" on="1"/>
        <pt x="426" y="688" on="1"/>
        <pt x="426" y="535" on="1"/>
        <pt x="307" y="535" on="1"/>
        <pt x="307" y="0" on="1"/>
        <pt x="126" y="0" on="1"/>
      </contour>
    </TTGlyph>
    <TTGlyph name="Tbar" xMin="7" yMin="0" xMax="426" yMax="688">
      <contour>
        <pt x="307" y="535" on="1"/>
        <pt x="307" y="408" on="1"/>
        <pt x="403" y="408" on="1"/>
        <pt x="403" y="281" on="1"/>
        <pt x="307" y="281" on="1"/>
        <pt x="307" y="0" on="1"/>
        <pt x="126" y="0" on="1"/>
        <pt x="126" y="281" on="1"/>
        <pt x="30" y="281" on="1"/>
        <pt x="30" y="408" on="1"/>
        <pt x="126" y="408" on="1"/>
        <pt x="126" y="535" on="1"/>
        <pt x="7" y="535" on="1"/>
        <pt x="7" y="688" on="1"/>
        <pt x="426" y="688" on="1"/>
        <pt x="426" y="535" on="1"/>
      </contour>
    </TTGlyph>
    <TTGlyph name="Tcaron" xMin="7" yMin="0" xMax="426" yMax="888">
      <component glyphName="T" x="0" y="0" flags="0x0"/>
      <component glyphName="uni030C.case" x="376" y="0" flags="0x0"/>
    </TTGlyph>
    <TTGlyph name="Thorn" xMin="40" yMin="0" xMax="468" yMax="688">
      <contour>
        <pt x="40" y="688" on="1"/>
        <pt x="220" y="688" on="1"/>
        <pt x="220" y="593" on="1"/>
        <pt x="288" y="593" on="1"/>
        <pt x="364" y="593" on="0"/>
        <pt x="441" y="542" on="0"/>
        <pt x="468" y="442" on="0"/>
        <pt x="468" y="353" on="1"/>
        <pt x="468" y="269" on="0"/>
        <pt x="444" y="168" on="0"/>
        <pt x="366" y="112" on="0"/>
        <pt x="288" y="112" on="1"/>
        <pt x="220" y="112" on="1"/>
        <pt x="220" y="0" on="1"/>
        <pt x="40" y="0" on="1"/>
      </contour>
      <contour>
        <pt x="241" y="259" on="1"/>
        <pt x="264" y="259" on="0"/>
        <pt x="281" y="268" on="0"/>
        <pt x="287" y="305" on="0"/>
        <pt x="287" y="353" on="1"/>
        <pt x="287" y="401" on="0"/>
        <pt x="281" y="437" on="0"/>
        <pt x="264" y="446" on="0"/>
        <pt x="241" y="446" on="1"/>
        <pt x="220" y="446" on="1"/>
        <pt x="220" y="259" on="1"/>
      </contour>
    </TTGlyph>
    <TTGlyph name="U" xMin="37" yMin="-8" xMax="469" yMax="688">
      <contour>
        <pt x="469" y="688" on="1"/>
        <pt x="469" y="309" on="1"/>
        <pt x="469" y="170" on="0"/>
        <pt x="448" y="49" on="0"/>
        <pt x="358" y="-8" on="0"/>
        <pt x="253" y="-8" on="1"/>
        <pt x="148" y="-8" on="0"/>
        <pt x="58" y="49" on="0"/>
        <pt x="37" y="169" on="0"/>
        <pt x="37" y="309" on="1"/>
        <pt x="37" y="688" on="1"/>
        <pt x="217" y="688" on="1"/>
        <pt x="217" y="261" on="1"/>
        <pt x="217" y="196" on="0"/>
        <pt x="220" y="153" on="0"/>
        <pt x="233" y="141" on="0"/>
        <pt x="253" y="141" on="1"/>
        <pt x="272" y="141" on="0"/>
        <pt x="285" y="153" on="0"/>
        <pt x="289" y="197" on="0"/>
        <pt x="289" y="261" on="1"/>
        <pt x="289" y="688" on="1"/>
      </contour>
    </TTGlyph>
    <TTGlyph name="Uacute" xMin="37" yMin="-8" xMax="469" yMax="898">
      <component glyphName="U" x="0" y="0" flags="0x0"/>
      <component glyphName="acute" x="177" y="155" flags="0x4"/>
    </TTGlyph>
    <TTGlyph name="Ubreve" xMin="37" yMin="-8" xMax="469" yMax="888">
      <component glyphName="U" x="0" y="0" flags="0x0"/>
      <component glyphName="uni0306.case" x="398" y="0" flags="0x0"/>
    </TTGlyph>
    <TTGlyph name="Ucircumflex" xMin="37" yMin="-8" xMax="469" yMax="881">
      <component glyphName="U" x="0" y="0" flags="0x0"/>
      <component glyphName="circumflex" x="93" y="138" flags="0x4"/>
    </TTGlyph>
    <TTGlyph name="Udieresis" xMin="37" yMin="-8" xMax="469" yMax="892">
      <component glyphName="U" x="0" y="0" flags="0x0"/>
      <component glyphName="dieresis" x="89" y="162" flags="0x4"/>
    </TTGlyph>
    <TTGlyph name="Ugrave" xMin="37" yMin="-8" xMax="469" yMax="898">
      <component glyphName="U" x="0" y="0" flags="0x0"/>
      <component glyphName="grave" x="104" y="155" flags="0x4"/>
    </TTGlyph>
    <TTGlyph name="Uhorn" xMin="37" yMin="-8" xMax="530" yMax="776">
      <contour>
        <pt x="530" y="776" on="1"/>
        <pt x="530" y="762" on="1"/>
        <pt x="530" y="701" on="0"/>
        <pt x="506" y="643" on="0"/>
        <pt x="469" y="631" on="1"/>
        <pt x="469" y="309" on="1"/>
        <pt x="469" y="170" on="0"/>
        <pt x="448" y="49" on="0"/>
        <pt x="358" y="-8" on="0"/>
        <pt x="253" y="-8" on="1"/>
        <pt x="148" y="-8" on="0"/>
        <pt x="58" y="49" on="0"/>
        <pt x="37" y="169" on="0"/>
        <pt x="37" y="309" on="1"/>
        <pt x="37" y="688" on="1"/>
        <pt x="217" y="688" on="1"/>
        <pt x="217" y="261" on="1"/>
        <pt x="217" y="196" on="0"/>
        <pt x="220" y="153" on="0"/>
        <pt x="233" y="141" on="0"/>
        <pt x="253" y="141" on="1"/>
        <pt x="272" y="141" on="0"/>
        <pt x="285" y="153" on="0"/>
        <pt x="289" y="197" on="0"/>
        <pt x="289" y="261" on="1"/>
        <pt x="289" y="688" on="1"/>
        <pt x="367" y="688" on="1"/>
        <pt x="402" y="688" on="0"/>
        <pt x="424" y="713" on="0"/>
        <pt x="424" y="747" on="1"/>
        <pt x="424" y="776" on="1"/>
      </contour>
    </TTGlyph>
    <TTGlyph name="Uhungarumlaut" xMin="37" yMin="-8" xMax="469" yMax="873">
      <component glyphName="U" x="0" y="0" flags="0x0"/>
      <component glyphName="uni030B.case" x="456" y="0" flags="0x0"/>
    </TTGlyph>
    <TTGlyph name="Umacron" xMin="37" yMin="-8" xMax="469" yMax="888">
      <component glyphName="U" x="0" y="0" flags="0x0"/>
      <component glyphName="uni0304.case" x="404" y="0" flags="0x0"/>
    </TTGlyph>
    <TTGlyph name="Uogonek" xMin="37" yMin="-196" xMax="469" yMax="688">
      <contour>
        <pt x="469" y="688" on="1"/>
        <pt x="469" y="309" on="1"/>
        <pt x="469" y="212" on="0"/>
        <pt x="462" y="112" on="0"/>
        <pt x="434" y="40" on="0"/>
        <pt x="402" y="21" on="1"/>
        <pt x="374" y="3" on="0"/>
        <pt x="339" y="-43" on="0"/>
        <pt x="339" y="-76" on="1"/>
        <pt x="339" y="-93" on="0"/>
        <pt x="355" y="-112" on="0"/>
        <pt x="377" y="-112" on="1"/>
        <pt x="389" y="-111" on="1"/>
        <pt x="389" y="-191" on="1"/>
        <pt x="362" y="-196" on="0"/>
        <pt x="324" y="-196" on="1"/>
        <pt x="264" y="-196" on="0"/>
        <pt x="211" y="-146" on="0"/>
        <pt x="211" y="-106" on="1"/>
        <pt x="211" y="-57" on="0"/>
        <pt x="255" y="-8" on="1"/>
        <pt x="252" y="-8" on="1"/>
        <pt x="147" y="-8" on="0"/>
        <pt x="58" y="49" on="0"/>
        <pt x="37" y="169" on="0"/>
        <pt x="37" y="309" on="1"/>
        <pt x="37" y="688" on="1"/>
        <pt x="217" y="688" on="1"/>
        <pt x="217" y="261" on="1"/>
        <pt x="217" y="196" on="0"/>
        <pt x="220" y="153" on="0"/>
        <pt x="233" y="141" on="0"/>
        <pt x="253" y="141" on="1"/>
        <pt x="272" y="141" on="0"/>
        <pt x="285" y="153" on="0"/>
        <pt x="289" y="197" on="0"/>
        <pt x="289" y="261" on="1"/>
        <pt x="289" y="688" on="1"/>
      </contour>
    </TTGlyph>
    <TTGlyph name="Uring" xMin="37" yMin="-8" xMax="469" yMax="949">
      <component glyphName="U" x="0" y="0" flags="0x0"/>
      <component glyphName="uni030A.case" x="396" y="0" flags="0x0"/>
    </TTGlyph>
    <TTGlyph name="Utilde" xMin="37" yMin="-8" xMax="469" yMax="888">
      <component glyphName="U" x="0" y="0" flags="0x0"/>
      <component glyphName="tildecomb.case" x="423" y="0" flags="0x0"/>
    </TTGlyph>
    <TTGlyph name="V" xMin="5" yMin="0" xMax="494" yMax="688">
      <contour>
        <pt x="5" y="688" on="1"/>
        <pt x="187" y="688" on="1"/>
        <pt x="247" y="184" on="1"/>
        <pt x="258" y="184" on="1"/>
        <pt x="315" y="688" on="1"/>
        <pt x="494" y="688" on="1"/>
        <pt x="379" y="0" on="1"/>
        <pt x="120" y="0" on="1"/>
      </contour>
    </TTGlyph>
    <TTGlyph name="W" xMin="10" yMin="0" xMax="771" yMax="688">
      <contour>
        <pt x="394" y="422" on="1"/>
        <pt x="386" y="422" on="1"/>
        <pt x="338" y="0" on="1"/>
        <pt x="94" y="0" on="1"/>
        <pt x="10" y="688" on="1"/>
        <pt x="190" y="688" on="1"/>
        <pt x="225" y="186" on="1"/>
        <pt x="234" y="186" on="1"/>
        <pt x="290" y="688" on="1"/>
        <pt x="496" y="688" on="1"/>
        <pt x="554" y="186" on="1"/>
        <pt x="563" y="186" on="1"/>
        <pt x="593" y="688" on="1"/>
        <pt x="771" y="688" on="1"/>
        <pt x="686" y="0" on="1"/>
        <pt x="442" y="0" on="1"/>
      </contour>
    </TTGlyph>
    <TTGlyph name="Wacute" xMin="10" yMin="0" xMax="771" yMax="888">
      <component glyphName="W" x="0" y="0" flags="0x0"/>
      <component glyphName="acutecomb.case" x="545" y="0" flags="0x0"/>
    </TTGlyph>
    <TTGlyph name="Wcircumflex" xMin="10" yMin="0" xMax="771" yMax="888">
      <component glyphName="W" x="0" y="0" flags="0x0"/>
      <component glyphName="uni0302.case" x="550" y="0" flags="0x0"/>
    </TTGlyph>
    <TTGlyph name="Wdieresis" xMin="10" yMin="0" xMax="771" yMax="875">
      <component glyphName="W" x="0" y="0" flags="0x0"/>
      <component glyphName="uni0308.case" x="555" y="0" flags="0x0"/>
    </TTGlyph>
    <TTGlyph name="Wgrave" xMin="10" yMin="0" xMax="771" yMax="888">
      <component glyphName="W" x="0" y="0" flags="0x0"/>
      <component glyphName="gravecomb.case" x="466" y="0" flags="0x0"/>
    </TTGlyph>
    <TTGlyph name="X" xMin="6" yMin="0" xMax="515" yMax="688">
      <contour>
        <pt x="262" y="221" on="1"/>
        <pt x="253" y="221" on="1"/>
        <pt x="193" y="0" on="1"/>
        <pt x="6" y="0" on="1"/>
        <pt x="136" y="346" on="1"/>
        <pt x="9" y="688" on="1"/>
        <pt x="202" y="688" on="1"/>
        <pt x="258" y="477" on="1"/>
        <pt x="267" y="477" on="1"/>
        <pt x="325" y="688" on="1"/>
        <pt x="512" y="688" on="1"/>
        <pt x="386" y="351" on="1"/>
        <pt x="515" y="0" on="1"/>
        <pt x="321" y="0" on="1"/>
      </contour>
    </TTGlyph>
    <TTGlyph name="Y" xMin="-2" yMin="0" xMax="492" yMax="688">
      <contour>
        <pt x="155" y="229" on="1"/>
        <pt x="-2" y="688" on="1"/>
        <pt x="179" y="688" on="1"/>
        <pt x="244" y="410" on="1"/>
        <pt x="253" y="410" on="1"/>
        <pt x="315" y="688" on="1"/>
        <pt x="492" y="688" on="1"/>
        <pt x="335" y="229" on="1"/>
        <pt x="335" y="0" on="1"/>
        <pt x="155" y="0" on="1"/>
      </contour>
    </TTGlyph>
    <TTGlyph name="Y.loclGUA" xMin="30" yMin="0" xMax="462" yMax="688">
      <contour>
        <pt x="462" y="688" on="1"/>
        <pt x="462" y="509" on="1"/>
        <pt x="462" y="390" on="0"/>
        <pt x="450" y="279" on="0"/>
        <pt x="397" y="211" on="0"/>
        <pt x="337" y="199" on="1"/>
        <pt x="337" y="0" on="1"/>
        <pt x="157" y="0" on="1"/>
        <pt x="157" y="199" on="1"/>
        <pt x="96" y="210" on="0"/>
        <pt x="43" y="278" on="0"/>
        <pt x="30" y="391" on="0"/>
        <pt x="30" y="509" on="1"/>
        <pt x="30" y="688" on="1"/>
        <pt x="211" y="688" on="1"/>
        <pt x="211" y="461" on="1"/>
        <pt x="211" y="396" on="0"/>
        <pt x="214" y="353" on="0"/>
        <pt x="227" y="341" on="0"/>
        <pt x="246" y="341" on="1"/>
        <pt x="266" y="341" on="0"/>
        <pt x="279" y="353" on="0"/>
        <pt x="282" y="396" on="0"/>
        <pt x="282" y="461" on="1"/>
        <pt x="282" y="688" on="1"/>
      </contour>
    </TTGlyph>
    <TTGlyph name="Yacute" xMin="-2" yMin="0" xMax="492" yMax="898">
      <component glyphName="Y" x="0" y="0" flags="0x0"/>
      <component glyphName="acute" x="175" y="155" flags="0x4"/>
    </TTGlyph>
    <TTGlyph name="Yacute.loclGUA" xMin="30" yMin="0" xMax="462" yMax="888">
      <component glyphName="Y.loclGUA" x="0" y="0" flags="0x0"/>
      <component glyphName="acutecomb.case" x="400" y="0" flags="0x0"/>
    </TTGlyph>
    <TTGlyph name="Ycircumflex" xMin="-2" yMin="0" xMax="492" yMax="888">
      <component glyphName="Y" x="0" y="0" flags="0x0"/>
      <component glyphName="uni0302.case" x="404" y="0" flags="0x0"/>
    </TTGlyph>
    <TTGlyph name="Ycircumflex.loclGUA" xMin="30" yMin="0" xMax="462" yMax="888">
      <component glyphName="Y.loclGUA" x="0" y="0" flags="0x0"/>
      <component glyphName="uni0302.case" x="405" y="0" flags="0x0"/>
    </TTGlyph>
    <TTGlyph name="Ydieresis" xMin="-2" yMin="0" xMax="492" yMax="892">
      <component glyphName="Y" x="0" y="0" flags="0x0"/>
      <component glyphName="dieresis" x="85" y="162" flags="0x4"/>
    </TTGlyph>
    <TTGlyph name="Ydieresis.loclGUA" xMin="30" yMin="0" xMax="462" yMax="875">
      <component glyphName="Y.loclGUA" x="0" y="0" flags="0x0"/>
      <component glyphName="uni0308.case" x="410" y="0" flags="0x0"/>
    </TTGlyph>
    <TTGlyph name="Ygrave" xMin="-2" yMin="0" xMax="492" yMax="888">
      <component glyphName="Y" x="0" y="0" flags="0x0"/>
      <component glyphName="gravecomb.case" x="320" y="0" flags="0x0"/>
    </TTGlyph>
    <TTGlyph name="Ygrave.loclGUA" xMin="30" yMin="0" xMax="462" yMax="888">
      <component glyphName="Y.loclGUA" x="0" y="0" flags="0x0"/>
      <component glyphName="gravecomb.case" x="321" y="0" flags="0x0"/>
    </TTGlyph>
    <TTGlyph name="Z" xMin="29" yMin="0" xMax="423" yMax="688">
      <contour>
        <pt x="29" y="140" on="1"/>
        <pt x="219" y="540" on="1"/>
        <pt x="36" y="540" on="1"/>
        <pt x="36" y="688" on="1"/>
        <pt x="423" y="688" on="1"/>
        <pt x="423" y="550" on="1"/>
        <pt x="231" y="148" on="1"/>
        <pt x="423" y="148" on="1"/>
        <pt x="423" y="0" on="1"/>
        <pt x="29" y="0" on="1"/>
      </contour>
    </TTGlyph>
    <TTGlyph name="Zacute" xMin="29" yMin="0" xMax="423" yMax="888">
      <component glyphName="Z" x="0" y="0" flags="0x0"/>
      <component glyphName="acutecomb.case" x="381" y="0" flags="0x0"/>
    </TTGlyph>
    <TTGlyph name="Zacute.loclPLK" xMin="29" yMin="0" xMax="423" yMax="888">
      <component glyphName="Z" x="0" y="0" flags="0x0"/>
      <component glyphName="acute.case.loclPLK" x="157" y="0" flags="0x0"/>
    </TTGlyph>
    <TTGlyph name="Zcaron" xMin="29" yMin="0" xMax="423" yMax="882">
      <component glyphName="Z" x="0" y="0" flags="0x0"/>
      <component glyphName="caron" x="73" y="139" flags="0x4"/>
    </TTGlyph>
    <TTGlyph name="Zdotaccent" xMin="29" yMin="0" xMax="423" yMax="875">
      <component glyphName="Z" x="0" y="0" flags="0x0"/>
      <component glyphName="uni0307.case" x="299" y="0" flags="0x0"/>
    </TTGlyph>
    <TTGlyph name="a" xMin="19" yMin="-8" xMax="403" yMax="518">
      <contour>
        <pt x="70" y="-8" on="0"/>
        <pt x="19" y="70" on="0"/>
        <pt x="19" y="150" on="1"/>
        <pt x="19" y="209" on="0"/>
        <pt x="43" y="276" on="0"/>
        <pt x="102" y="306" on="0"/>
        <pt x="156" y="306" on="1"/>
        <pt x="190" y="306" on="0"/>
        <pt x="236" y="302" on="1"/>
        <pt x="236" y="322" on="1"/>
        <pt x="236" y="354" on="0"/>
        <pt x="226" y="380" on="0"/>
        <pt x="195" y="387" on="0"/>
        <pt x="154" y="387" on="1"/>
        <pt x="90" y="387" on="0"/>
        <pt x="42" y="382" on="1"/>
        <pt x="42" y="503" on="1"/>
        <pt x="119" y="518" on="0"/>
        <pt x="206" y="518" on="1"/>
        <pt x="289" y="518" on="0"/>
        <pt x="374" y="476" on="0"/>
        <pt x="403" y="388" on="0"/>
        <pt x="403" y="307" on="1"/>
        <pt x="403" y="0" on="1"/>
        <pt x="241" y="0" on="1"/>
        <pt x="237" y="57" on="1"/>
        <pt x="227" y="57" on="1"/>
        <pt x="200" y="-8" on="0"/>
        <pt x="131" y="-8" on="1"/>
      </contour>
      <contour>
        <pt x="216" y="124" on="0"/>
        <pt x="229" y="131" on="0"/>
        <pt x="232" y="139" on="1"/>
        <pt x="236" y="151" on="0"/>
        <pt x="236" y="186" on="1"/>
        <pt x="236" y="213" on="1"/>
        <pt x="207" y="213" on="1"/>
        <pt x="188" y="213" on="0"/>
        <pt x="176" y="195" on="0"/>
        <pt x="176" y="165" on="1"/>
        <pt x="176" y="141" on="0"/>
        <pt x="185" y="124" on="0"/>
        <pt x="205" y="124" on="1"/>
      </contour>
    </TTGlyph>
    <TTGlyph name="aacute" xMin="19" yMin="-8" xMax="403" yMax="743">
      <component glyphName="a" x="0" y="0" flags="0x0"/>
      <component glyphName="acute" x="146" y="0" flags="0x0"/>
    </TTGlyph>
    <TTGlyph name="abreve" xMin="19" yMin="-8" xMax="403" yMax="743">
      <component glyphName="a" x="0" y="0" flags="0x0"/>
      <component glyphName="uni0306" x="364" y="0" flags="0x0"/>
    </TTGlyph>
    <TTGlyph name="acircumflex" xMin="19" yMin="-8" xMax="403" yMax="743">
      <component glyphName="a" x="0" y="0" flags="0x0"/>
      <component glyphName="circumflex" x="61" y="0" flags="0x0"/>
    </TTGlyph>
    <TTGlyph name="acute" xMin="7" yMin="595" xMax="218" yMax="743">
      <contour>
        <pt x="7" y="600" on="1"/>
        <pt x="59" y="743" on="1"/>
        <pt x="218" y="743" on="1"/>
        <pt x="218" y="738" on="1"/>
        <pt x="135" y="595" on="1"/>
        <pt x="7" y="595" on="1"/>
      </contour>
    </TTGlyph>
    <TTGlyph name="acute.case.loclPLK" xMin="7" yMin="740" xMax="191" yMax="888">
      <contour>
        <pt x="7" y="745" on="1"/>
        <pt x="33" y="888" on="1"/>
        <pt x="191" y="888" on="1"/>
        <pt x="191" y="883" on="1"/>
        <pt x="135" y="740" on="1"/>
        <pt x="7" y="740" on="1"/>
      </contour>
    </TTGlyph>
    <TTGlyph name="acute.loclPLK" xMin="7" yMin="595" xMax="191" yMax="743">
      <contour>
        <pt x="7" y="600" on="1"/>
        <pt x="33" y="743" on="1"/>
        <pt x="191" y="743" on="1"/>
        <pt x="191" y="738" on="1"/>
        <pt x="135" y="595" on="1"/>
        <pt x="7" y="595" on="1"/>
      </contour>
    </TTGlyph>
    <TTGlyph name="acutecomb" xMin="-217" yMin="595" xMax="-6" yMax="743">
      <contour>
        <pt x="-217" y="600" on="1"/>
        <pt x="-165" y="743" on="1"/>
        <pt x="-6" y="743" on="1"/>
        <pt x="-6" y="738" on="1"/>
        <pt x="-89" y="595" on="1"/>
        <pt x="-217" y="595" on="1"/>
      </contour>
    </TTGlyph>
    <TTGlyph name="acutecomb.case" xMin="-217" yMin="740" xMax="-6" yMax="888">
      <contour>
        <pt x="-217" y="745" on="1"/>
        <pt x="-165" y="888" on="1"/>
        <pt x="-6" y="888" on="1"/>
        <pt x="-6" y="883" on="1"/>
        <pt x="-89" y="740" on="1"/>
        <pt x="-217" y="740" on="1"/>
      </contour>
    </TTGlyph>
    <TTGlyph name="adieresis" xMin="19" yMin="-8" xMax="403" yMax="730">
      <component glyphName="a" x="0" y="0" flags="0x0"/>
      <component glyphName="dieresis" x="57" y="0" flags="0x0"/>
    </TTGlyph>
    <TTGlyph name="ae" xMin="19" yMin="-8" xMax="617" yMax="518">
      <contour>
        <pt x="617" y="213" on="1"/>
        <pt x="403" y="213" on="1"/>
        <pt x="403" y="166" on="0"/>
        <pt x="411" y="133" on="0"/>
        <pt x="442" y="123" on="0"/>
        <pt x="484" y="123" on="1"/>
        <pt x="531" y="123" on="0"/>
        <pt x="605" y="127" on="1"/>
        <pt x="605" y="8" on="1"/>
        <pt x="578" y="1" on="0"/>
        <pt x="486" y="-8" on="0"/>
        <pt x="444" y="-8" on="1"/>
        <pt x="350" y="-8" on="0"/>
        <pt x="308" y="25" on="1"/>
        <pt x="253" y="-8" on="0"/>
        <pt x="168" y="-8" on="1"/>
        <pt x="108" y="-8" on="0"/>
        <pt x="43" y="27" on="0"/>
        <pt x="19" y="95" on="0"/>
        <pt x="19" y="150" on="1"/>
        <pt x="19" y="209" on="0"/>
        <pt x="43" y="276" on="0"/>
        <pt x="102" y="306" on="0"/>
        <pt x="156" y="306" on="1"/>
        <pt x="190" y="306" on="0"/>
        <pt x="236" y="302" on="1"/>
        <pt x="236" y="322" on="1"/>
        <pt x="236" y="354" on="0"/>
        <pt x="226" y="380" on="0"/>
        <pt x="195" y="387" on="0"/>
        <pt x="154" y="387" on="1"/>
        <pt x="96" y="387" on="0"/>
        <pt x="42" y="382" on="1"/>
        <pt x="42" y="503" on="1"/>
        <pt x="117" y="518" on="0"/>
        <pt x="200" y="518" on="1"/>
        <pt x="279" y="518" on="0"/>
        <pt x="321" y="486" on="1"/>
        <pt x="363" y="518" on="0"/>
        <pt x="439" y="518" on="1"/>
        <pt x="526" y="518" on="0"/>
        <pt x="600" y="468" on="0"/>
        <pt x="617" y="369" on="0"/>
        <pt x="617" y="254" on="1"/>
      </contour>
      <contour>
        <pt x="418" y="392" on="0"/>
        <pt x="407" y="383" on="0"/>
        <pt x="403" y="348" on="0"/>
        <pt x="403" y="305" on="1"/>
        <pt x="463" y="305" on="1"/>
        <pt x="463" y="350" on="0"/>
        <pt x="459" y="383" on="0"/>
        <pt x="448" y="392" on="0"/>
        <pt x="432" y="392" on="1"/>
      </contour>
      <contour>
        <pt x="236" y="213" on="1"/>
        <pt x="207" y="213" on="1"/>
        <pt x="188" y="213" on="0"/>
        <pt x="176" y="195" on="0"/>
        <pt x="176" y="165" on="1"/>
        <pt x="176" y="138" on="0"/>
        <pt x="185" y="119" on="0"/>
        <pt x="205" y="119" on="1"/>
        <pt x="219" y="119" on="0"/>
        <pt x="232" y="129" on="0"/>
        <pt x="234" y="142" on="1"/>
        <pt x="236" y="153" on="0"/>
        <pt x="236" y="183" on="1"/>
      </contour>
    </TTGlyph>
    <TTGlyph name="aeacute" xMin="19" yMin="-8" xMax="617" yMax="743">
      <component glyphName="ae" x="0" y="0" flags="0x0"/>
      <component glyphName="acutecomb" x="474" y="0" flags="0x0"/>
    </TTGlyph>
    <TTGlyph name="agrave" xMin="19" yMin="-8" xMax="403" yMax="743">
      <component glyphName="a" x="0" y="0" flags="0x0"/>
      <component glyphName="grave" x="73" y="0" flags="0x0"/>
    </TTGlyph>
    <TTGlyph name="amacron" xMin="19" yMin="-8" xMax="403" yMax="743">
      <component glyphName="a" x="0" y="0" flags="0x0"/>
      <component glyphName="uni0304" x="370" y="0" flags="0x0"/>
    </TTGlyph>
    <TTGlyph name="ampersand" xMin="30" yMin="-8" xMax="547" yMax="696">
      <contour>
        <pt x="547" y="414" on="1"/>
        <pt x="547" y="281" on="1"/>
        <pt x="474" y="281" on="1"/>
        <pt x="474" y="12" on="1"/>
        <pt x="429" y="4" on="0"/>
        <pt x="313" y="-8" on="0"/>
        <pt x="268" y="-8" on="1"/>
        <pt x="177" y="-8" on="0"/>
        <pt x="74" y="31" on="0"/>
        <pt x="30" y="113" on="0"/>
        <pt x="30" y="181" on="1"/>
        <pt x="30" y="263" on="0"/>
        <pt x="79" y="336" on="0"/>
        <pt x="131" y="349" on="1"/>
        <pt x="131" y="353" on="1"/>
        <pt x="82" y="366" on="0"/>
        <pt x="36" y="444" on="0"/>
        <pt x="36" y="518" on="1"/>
        <pt x="36" y="585" on="0"/>
        <pt x="85" y="662" on="0"/>
        <pt x="189" y="696" on="0"/>
        <pt x="276" y="696" on="1"/>
        <pt x="319" y="696" on="0"/>
        <pt x="430" y="685" on="0"/>
        <pt x="473" y="676" on="1"/>
        <pt x="473" y="554" on="1"/>
        <pt x="399" y="561" on="0"/>
        <pt x="318" y="561" on="1"/>
        <pt x="262" y="561" on="0"/>
        <pt x="221" y="554" on="0"/>
        <pt x="207" y="525" on="0"/>
        <pt x="207" y="487" on="1"/>
        <pt x="207" y="452" on="0"/>
        <pt x="214" y="422" on="0"/>
        <pt x="234" y="414" on="0"/>
        <pt x="257" y="414" on="1"/>
        <pt x="267" y="414" on="1"/>
        <pt x="267" y="281" on="1"/>
        <pt x="257" y="281" on="1"/>
        <pt x="233" y="281" on="0"/>
        <pt x="211" y="273" on="0"/>
        <pt x="200" y="240" on="0"/>
        <pt x="200" y="203" on="1"/>
        <pt x="200" y="166" on="0"/>
        <pt x="212" y="135" on="0"/>
        <pt x="247" y="127" on="0"/>
        <pt x="289" y="127" on="1"/>
        <pt x="306" y="127" on="1"/>
        <pt x="306" y="414" on="1"/>
      </contour>
    </TTGlyph>
    <TTGlyph name="aogonek" xMin="19" yMin="-196" xMax="403" yMax="518">
      <contour>
        <pt x="383" y="-12" on="0"/>
        <pt x="352" y="-55" on="0"/>
        <pt x="352" y="-79" on="1"/>
        <pt x="352" y="-112" on="0"/>
        <pt x="390" y="-112" on="1"/>
        <pt x="402" y="-111" on="1"/>
        <pt x="402" y="-191" on="1"/>
        <pt x="375" y="-196" on="0"/>
        <pt x="339" y="-196" on="1"/>
        <pt x="278" y="-196" on="0"/>
        <pt x="224" y="-147" on="0"/>
        <pt x="224" y="-109" on="1"/>
        <pt x="224" y="-54" on="0"/>
        <pt x="281" y="0" on="1"/>
        <pt x="241" y="0" on="1"/>
        <pt x="237" y="57" on="1"/>
        <pt x="227" y="57" on="1"/>
        <pt x="200" y="-8" on="0"/>
        <pt x="131" y="-8" on="1"/>
        <pt x="70" y="-8" on="0"/>
        <pt x="19" y="70" on="0"/>
        <pt x="19" y="150" on="1"/>
        <pt x="19" y="209" on="0"/>
        <pt x="43" y="276" on="0"/>
        <pt x="102" y="306" on="0"/>
        <pt x="156" y="306" on="1"/>
        <pt x="190" y="306" on="0"/>
        <pt x="236" y="302" on="1"/>
        <pt x="236" y="322" on="1"/>
        <pt x="236" y="354" on="0"/>
        <pt x="226" y="380" on="0"/>
        <pt x="195" y="387" on="0"/>
        <pt x="154" y="387" on="1"/>
        <pt x="119" y="387" on="0"/>
        <pt x="46" y="382" on="0"/>
        <pt x="42" y="382" on="1"/>
        <pt x="42" y="503" on="1"/>
        <pt x="119" y="518" on="0"/>
        <pt x="206" y="518" on="1"/>
        <pt x="289" y="518" on="0"/>
        <pt x="374" y="476" on="0"/>
        <pt x="403" y="388" on="0"/>
        <pt x="403" y="307" on="1"/>
        <pt x="403" y="0" on="1"/>
      </contour>
      <contour>
        <pt x="236" y="213" on="1"/>
        <pt x="207" y="213" on="1"/>
        <pt x="188" y="213" on="0"/>
        <pt x="176" y="195" on="0"/>
        <pt x="176" y="165" on="1"/>
        <pt x="176" y="141" on="0"/>
        <pt x="185" y="124" on="0"/>
        <pt x="205" y="124" on="1"/>
        <pt x="216" y="124" on="0"/>
        <pt x="229" y="131" on="0"/>
        <pt x="232" y="139" on="1"/>
        <pt x="236" y="151" on="0"/>
        <pt x="236" y="186" on="1"/>
      </contour>
    </TTGlyph>
    <TTGlyph name="approxequal" xMin="47" yMin="92" xMax="420" yMax="414">
      <contour>
        <pt x="47" y="315" on="0"/>
        <pt x="56" y="370" on="0"/>
        <pt x="96" y="403" on="0"/>
        <pt x="141" y="403" on="1"/>
        <pt x="173" y="403" on="0"/>
        <pt x="229" y="393" on="1"/>
        <pt x="250" y="390" on="1"/>
        <pt x="295" y="381" on="0"/>
        <pt x="310" y="381" on="1"/>
        <pt x="323" y="381" on="0"/>
        <pt x="328" y="394" on="0"/>
        <pt x="328" y="414" on="1"/>
        <pt x="420" y="414" on="1"/>
        <pt x="420" y="359" on="0"/>
        <pt x="411" y="304" on="0"/>
        <pt x="371" y="271" on="0"/>
        <pt x="326" y="271" on="1"/>
        <pt x="302" y="271" on="0"/>
        <pt x="243" y="280" on="0"/>
        <pt x="218" y="285" on="1"/>
        <pt x="210" y="286" on="0"/>
        <pt x="168" y="293" on="0"/>
        <pt x="157" y="293" on="1"/>
        <pt x="144" y="293" on="0"/>
        <pt x="139" y="280" on="0"/>
        <pt x="139" y="260" on="1"/>
        <pt x="47" y="260" on="1"/>
      </contour>
      <contour>
        <pt x="47" y="147" on="0"/>
        <pt x="56" y="202" on="0"/>
        <pt x="96" y="235" on="0"/>
        <pt x="141" y="235" on="1"/>
        <pt x="164" y="235" on="0"/>
        <pt x="224" y="226" on="0"/>
        <pt x="250" y="221" on="1"/>
        <pt x="300" y="213" on="0"/>
        <pt x="310" y="213" on="1"/>
        <pt x="323" y="213" on="0"/>
        <pt x="328" y="225" on="0"/>
        <pt x="328" y="245" on="1"/>
        <pt x="420" y="245" on="1"/>
        <pt x="420" y="191" on="0"/>
        <pt x="411" y="136" on="0"/>
        <pt x="371" y="103" on="0"/>
        <pt x="326" y="103" on="1"/>
        <pt x="294" y="103" on="0"/>
        <pt x="238" y="113" on="1"/>
        <pt x="217" y="116" on="1"/>
        <pt x="172" y="125" on="0"/>
        <pt x="157" y="125" on="1"/>
        <pt x="145" y="125" on="0"/>
        <pt x="139" y="112" on="0"/>
        <pt x="139" y="92" on="1"/>
        <pt x="47" y="92" on="1"/>
      </contour>
    </TTGlyph>
    <TTGlyph name="aring" xMin="19" yMin="-8" xMax="403" yMax="812">
      <component glyphName="a" x="0" y="0" flags="0x0"/>
      <component glyphName="ring" x="77" y="-22" flags="0x4"/>
    </TTGlyph>
    <TTGlyph name="aringacute" xMin="19" yMin="-8" xMax="403" yMax="1007">
      <component glyphName="a" x="0" y="0" flags="0x0"/>
      <component glyphName="uni030A" x="362" y="0" flags="0x0"/>
      <component glyphName="acutecomb" x="373" y="264" flags="0x4"/>
    </TTGlyph>
    <TTGlyph name="arrowboth" xMin="55" yMin="162" xMax="828" yMax="447">
      <contour>
        <pt x="55" y="304" on="1"/>
        <pt x="340" y="447" on="1"/>
        <pt x="313" y="367" on="1"/>
        <pt x="570" y="367" on="1"/>
        <pt x="543" y="447" on="1"/>
        <pt x="828" y="304" on="1"/>
        <pt x="543" y="162" on="1"/>
        <pt x="570" y="243" on="1"/>
        <pt x="312" y="243" on="1"/>
        <pt x="340" y="162" on="1"/>
      </contour>
    </TTGlyph>
    <TTGlyph name="arrowdown" xMin="55" yMin="-85" xMax="340" yMax="688">
      <contour>
        <pt x="55" y="200" on="1"/>
        <pt x="137" y="172" on="1"/>
        <pt x="137" y="688" on="1"/>
        <pt x="260" y="688" on="1"/>
        <pt x="260" y="173" on="1"/>
        <pt x="340" y="200" on="1"/>
        <pt x="198" y="-85" on="1"/>
      </contour>
    </TTGlyph>
    <TTGlyph name="arrowdown.ss01" xMin="30" yMin="171" xMax="315" yMax="456">
      <contour>
        <pt x="30" y="456" on="1"/>
        <pt x="315" y="456" on="1"/>
        <pt x="173" y="171" on="1"/>
      </contour>
    </TTGlyph>
    <TTGlyph name="arrowleft" xMin="55" yMin="162" xMax="828" yMax="447">
      <contour>
        <pt x="340" y="162" on="1"/>
        <pt x="55" y="304" on="1"/>
        <pt x="340" y="447" on="1"/>
        <pt x="313" y="367" on="1"/>
        <pt x="828" y="367" on="1"/>
        <pt x="828" y="243" on="1"/>
        <pt x="312" y="243" on="1"/>
      </contour>
    </TTGlyph>
    <TTGlyph name="arrowleft.ss01" xMin="30" yMin="201" xMax="315" yMax="486">
      <contour>
        <pt x="30" y="343" on="1"/>
        <pt x="315" y="486" on="1"/>
        <pt x="315" y="201" on="1"/>
      </contour>
    </TTGlyph>
    <TTGlyph name="arrowright" xMin="55" yMin="162" xMax="828" yMax="447">
      <contour>
        <pt x="570" y="243" on="1"/>
        <pt x="55" y="243" on="1"/>
        <pt x="55" y="367" on="1"/>
        <pt x="570" y="367" on="1"/>
        <pt x="543" y="447" on="1"/>
        <pt x="828" y="304" on="1"/>
        <pt x="543" y="162" on="1"/>
      </contour>
    </TTGlyph>
    <TTGlyph name="arrowright.ss01" xMin="48" yMin="201" xMax="333" yMax="486">
      <contour>
        <pt x="48" y="486" on="1"/>
        <pt x="333" y="343" on="1"/>
        <pt x="48" y="201" on="1"/>
      </contour>
    </TTGlyph>
    <TTGlyph name="arrowup" xMin="55" yMin="-82" xMax="340" yMax="691">
      <contour>
        <pt x="137" y="433" on="1"/>
        <pt x="55" y="406" on="1"/>
        <pt x="198" y="691" on="1"/>
        <pt x="340" y="406" on="1"/>
        <pt x="260" y="433" on="1"/>
        <pt x="260" y="-82" on="1"/>
        <pt x="137" y="-82" on="1"/>
      </contour>
    </TTGlyph>
    <TTGlyph name="arrowup.ss01" xMin="30" yMin="231" xMax="315" yMax="516">
      <contour>
        <pt x="173" y="516" on="1"/>
        <pt x="315" y="231" on="1"/>
        <pt x="30" y="231" on="1"/>
      </contour>
    </TTGlyph>
    <TTGlyph name="arrowupdn" xMin="55" yMin="-85" xMax="340" yMax="696">
      <contour>
        <pt x="55" y="200" on="1"/>
        <pt x="137" y="172" on="1"/>
        <pt x="137" y="438" on="1"/>
        <pt x="55" y="411" on="1"/>
        <pt x="198" y="696" on="1"/>
        <pt x="340" y="411" on="1"/>
        <pt x="260" y="438" on="1"/>
        <pt x="260" y="173" on="1"/>
        <pt x="340" y="200" on="1"/>
        <pt x="198" y="-85" on="1"/>
      </contour>
    </TTGlyph>
    <TTGlyph name="arrowupdnbse" xMin="55" yMin="-219" xMax="340" yMax="696">
      <contour>
        <pt x="55" y="200" on="1"/>
        <pt x="137" y="172" on="1"/>
        <pt x="137" y="438" on="1"/>
        <pt x="55" y="411" on="1"/>
        <pt x="198" y="696" on="1"/>
        <pt x="340" y="411" on="1"/>
        <pt x="260" y="438" on="1"/>
        <pt x="260" y="173" on="1"/>
        <pt x="340" y="200" on="1"/>
        <pt x="198" y="-85" on="1"/>
      </contour>
      <contour>
        <pt x="55" y="-119" on="1"/>
        <pt x="340" y="-119" on="1"/>
        <pt x="340" y="-219" on="1"/>
        <pt x="55" y="-219" on="1"/>
      </contour>
    </TTGlyph>
    <TTGlyph name="asciicircum" xMin="-3" yMin="474" xMax="384" yMax="750">
      <contour>
        <pt x="191" y="631" on="1"/>
        <pt x="130" y="474" on="1"/>
        <pt x="-3" y="474" on="1"/>
        <pt x="125" y="750" on="1"/>
        <pt x="256" y="750" on="1"/>
        <pt x="384" y="474" on="1"/>
        <pt x="251" y="474" on="1"/>
      </contour>
    </TTGlyph>
    <TTGlyph name="asciitilde" xMin="47" yMin="227" xMax="420" yMax="381">
      <contour>
        <pt x="420" y="326" on="0"/>
        <pt x="411" y="271" on="0"/>
        <pt x="371" y="239" on="0"/>
        <pt x="326" y="239" on="1"/>
        <pt x="288" y="239" on="0"/>
        <pt x="217" y="252" on="1"/>
        <pt x="195" y="256" on="1"/>
        <pt x="168" y="261" on="0"/>
        <pt x="157" y="261" on="1"/>
        <pt x="145" y="261" on="0"/>
        <pt x="139" y="248" on="0"/>
        <pt x="139" y="227" on="1"/>
        <pt x="47" y="227" on="1"/>
        <pt x="47" y="282" on="0"/>
        <pt x="56" y="337" on="0"/>
        <pt x="96" y="370" on="0"/>
        <pt x="141" y="370" on="1"/>
        <pt x="180" y="370" on="0"/>
        <pt x="249" y="357" on="1"/>
        <pt x="273" y="353" on="1"/>
        <pt x="298" y="348" on="0"/>
        <pt x="310" y="348" on="1"/>
        <pt x="323" y="348" on="0"/>
        <pt x="328" y="361" on="0"/>
        <pt x="328" y="381" on="1"/>
        <pt x="420" y="381" on="1"/>
      </contour>
    </TTGlyph>
    <TTGlyph name="asterisk" xMin="40" yMin="361" xMax="373" yMax="688">
      <contour>
        <pt x="251" y="361" on="1"/>
        <pt x="162" y="361" on="1"/>
        <pt x="173" y="466" on="1"/>
        <pt x="84" y="402" on="1"/>
        <pt x="40" y="480" on="1"/>
        <pt x="137" y="524" on="1"/>
        <pt x="40" y="568" on="1"/>
        <pt x="84" y="646" on="1"/>
        <pt x="173" y="583" on="1"/>
        <pt x="162" y="688" on="1"/>
        <pt x="251" y="688" on="1"/>
        <pt x="240" y="583" on="1"/>
        <pt x="328" y="646" on="1"/>
        <pt x="373" y="568" on="1"/>
        <pt x="274" y="524" on="1"/>
        <pt x="373" y="480" on="1"/>
        <pt x="328" y="402" on="1"/>
        <pt x="240" y="466" on="1"/>
      </contour>
    </TTGlyph>
    <TTGlyph name="asterisk.ss02" xMin="35" yMin="-14" xMax="782" yMax="705">
      <contour>
        <pt x="269" y="262" on="1"/>
        <pt x="35" y="436" on="1"/>
        <pt x="322" y="436" on="1"/>
        <pt x="409" y="705" on="1"/>
        <pt x="494" y="436" on="1"/>
        <pt x="782" y="436" on="1"/>
        <pt x="550" y="262" on="1"/>
        <pt x="640" y="-14" on="1"/>
        <pt x="409" y="156" on="1"/>
        <pt x="178" y="-14" on="1"/>
      </contour>
    </TTGlyph>
    <TTGlyph name="at" xMin="52" yMin="-108" xMax="677" yMax="696">
      <contour>
        <pt x="208" y="-108" on="0"/>
        <pt x="86" y="-56" on="0"/>
        <pt x="52" y="96" on="0"/>
        <pt x="52" y="294" on="1"/>
        <pt x="52" y="492" on="0"/>
        <pt x="86" y="644" on="0"/>
        <pt x="208" y="696" on="0"/>
        <pt x="365" y="696" on="1"/>
        <pt x="522" y="696" on="0"/>
        <pt x="644" y="644" on="0"/>
        <pt x="677" y="492" on="0"/>
        <pt x="677" y="294" on="1"/>
        <pt x="677" y="187" on="0"/>
        <pt x="654" y="96" on="0"/>
        <pt x="609" y="75" on="0"/>
        <pt x="557" y="75" on="1"/>
        <pt x="391" y="75" on="1"/>
        <pt x="387" y="125" on="1"/>
        <pt x="379" y="125" on="1"/>
        <pt x="356" y="68" on="0"/>
        <pt x="297" y="68" on="1"/>
        <pt x="247" y="68" on="0"/>
        <pt x="205" y="135" on="0"/>
        <pt x="205" y="203" on="1"/>
        <pt x="205" y="255" on="0"/>
        <pt x="225" y="311" on="0"/>
        <pt x="273" y="336" on="0"/>
        <pt x="318" y="336" on="1"/>
        <pt x="341" y="336" on="0"/>
        <pt x="386" y="333" on="1"/>
        <pt x="386" y="351" on="1"/>
        <pt x="386" y="379" on="0"/>
        <pt x="378" y="400" on="0"/>
        <pt x="351" y="406" on="0"/>
        <pt x="317" y="406" on="1"/>
        <pt x="296" y="406" on="0"/>
        <pt x="224" y="402" on="1"/>
        <pt x="224" y="506" on="1"/>
        <pt x="295" y="518" on="0"/>
        <pt x="361" y="518" on="1"/>
        <pt x="431" y="518" on="0"/>
        <pt x="501" y="483" on="0"/>
        <pt x="525" y="408" on="0"/>
        <pt x="525" y="338" on="1"/>
        <pt x="525" y="142" on="1"/>
        <pt x="562" y="142" on="1"/>
        <pt x="585" y="142" on="0"/>
        <pt x="601" y="156" on="0"/>
        <pt x="607" y="216" on="0"/>
        <pt x="607" y="294" on="1"/>
        <pt x="607" y="440" on="0"/>
        <pt x="596" y="560" on="0"/>
        <pt x="551" y="618" on="0"/>
        <pt x="497" y="626" on="1"/>
        <pt x="469" y="630" on="0"/>
        <pt x="365" y="630" on="1"/>
        <pt x="271" y="630" on="0"/>
        <pt x="240" y="627" on="1"/>
        <pt x="181" y="620" on="0"/>
        <pt x="134" y="566" on="0"/>
        <pt x="123" y="446" on="0"/>
        <pt x="123" y="294" on="1"/>
        <pt x="123" y="133" on="0"/>
        <pt x="137" y="11" on="0"/>
        <pt x="197" y="-37" on="0"/>
        <pt x="273" y="-41" on="1"/>
        <pt x="293" y="-42" on="0"/>
        <pt x="365" y="-42" on="1"/>
        <pt x="481" y="-42" on="0"/>
        <pt x="525" y="-39" on="1"/>
        <pt x="525" y="-106" on="1"/>
        <pt x="498" y="-108" on="0"/>
        <pt x="365" y="-108" on="1"/>
      </contour>
      <contour>
        <pt x="377" y="181" on="0"/>
        <pt x="386" y="201" on="0"/>
        <pt x="386" y="234" on="1"/>
        <pt x="386" y="257" on="1"/>
        <pt x="361" y="257" on="1"/>
        <pt x="345" y="257" on="0"/>
        <pt x="335" y="241" on="0"/>
        <pt x="335" y="216" on="1"/>
        <pt x="335" y="196" on="0"/>
        <pt x="343" y="181" on="0"/>
        <pt x="359" y="181" on="1"/>
      </contour>
    </TTGlyph>
    <TTGlyph name="atilde" xMin="19" yMin="-8" xMax="403" yMax="743">
      <component glyphName="a" x="0" y="0" flags="0x0"/>
      <component glyphName="tilde" x="48" y="0" flags="0x0"/>
    </TTGlyph>
    <TTGlyph name="b" xMin="35" yMin="-8" xMax="429" yMax="743">
      <contour>
        <pt x="274" y="-8" on="0"/>
        <pt x="221" y="22" on="0"/>
        <pt x="210" y="56" on="1"/>
        <pt x="200" y="56" on="1"/>
        <pt x="196" y="0" on="1"/>
        <pt x="35" y="0" on="1"/>
        <pt x="35" y="743" on="1"/>
        <pt x="202" y="743" on="1"/>
        <pt x="202" y="458" on="1"/>
        <pt x="211" y="458" on="1"/>
        <pt x="224" y="489" on="0"/>
        <pt x="272" y="518" on="0"/>
        <pt x="307" y="518" on="1"/>
        <pt x="354" y="518" on="0"/>
        <pt x="407" y="469" on="0"/>
        <pt x="429" y="356" on="0"/>
        <pt x="429" y="254" on="1"/>
        <pt x="429" y="149" on="0"/>
        <pt x="405" y="37" on="0"/>
        <pt x="353" y="-8" on="0"/>
        <pt x="307" y="-8" on="1"/>
      </contour>
      <contour>
        <pt x="249" y="133" on="0"/>
        <pt x="259" y="144" on="0"/>
        <pt x="262" y="188" on="0"/>
        <pt x="262" y="255" on="1"/>
        <pt x="262" y="322" on="0"/>
        <pt x="259" y="366" on="0"/>
        <pt x="249" y="377" on="0"/>
        <pt x="232" y="377" on="1"/>
        <pt x="219" y="377" on="0"/>
        <pt x="208" y="370" on="0"/>
        <pt x="205" y="357" on="1"/>
        <pt x="202" y="341" on="0"/>
        <pt x="202" y="255" on="1"/>
        <pt x="202" y="174" on="0"/>
        <pt x="205" y="156" on="1"/>
        <pt x="207" y="141" on="0"/>
        <pt x="219" y="133" on="0"/>
        <pt x="232" y="133" on="1"/>
      </contour>
    </TTGlyph>
    <TTGlyph name="backslash" xMin="8" yMin="-55" xMax="345" yMax="743">
      <contour>
        <pt x="8" y="743" on="1"/>
        <pt x="151" y="743" on="1"/>
        <pt x="345" y="-55" on="1"/>
        <pt x="202" y="-55" on="1"/>
      </contour>
    </TTGlyph>
    <TTGlyph name="bar" xMin="48" yMin="-161" xMax="198" yMax="743">
      <contour>
        <pt x="48" y="743" on="1"/>
        <pt x="198" y="743" on="1"/>
        <pt x="198" y="-161" on="1"/>
        <pt x="48" y="-161" on="1"/>
      </contour>
    </TTGlyph>
    <TTGlyph name="bar.ss02" xMin="-1" yMin="0" xMax="499" yMax="696">
      <contour>
        <pt x="-1" y="696" on="1"/>
        <pt x="499" y="696" on="1"/>
        <pt x="499" y="0" on="1"/>
        <pt x="-1" y="0" on="1"/>
      </contour>
    </TTGlyph>
    <TTGlyph name="braceleft" xMin="20" yMin="-150" xMax="317" yMax="743">
      <contour>
        <pt x="161" y="-124" on="0"/>
        <pt x="93" y="-21" on="0"/>
        <pt x="93" y="33" on="1"/>
        <pt x="93" y="156" on="1"/>
        <pt x="93" y="201" on="0"/>
        <pt x="63" y="254" on="0"/>
        <pt x="20" y="263" on="1"/>
        <pt x="20" y="330" on="1"/>
        <pt x="63" y="339" on="0"/>
        <pt x="93" y="392" on="0"/>
        <pt x="93" y="437" on="1"/>
        <pt x="93" y="560" on="1"/>
        <pt x="93" y="614" on="0"/>
        <pt x="161" y="717" on="0"/>
        <pt x="214" y="743" on="1"/>
        <pt x="317" y="743" on="1"/>
        <pt x="279" y="698" on="0"/>
        <pt x="250" y="620" on="0"/>
        <pt x="250" y="556" on="1"/>
        <pt x="250" y="445" on="1"/>
        <pt x="250" y="387" on="0"/>
        <pt x="195" y="312" on="0"/>
        <pt x="137" y="300" on="1"/>
        <pt x="137" y="293" on="1"/>
        <pt x="195" y="281" on="0"/>
        <pt x="250" y="206" on="0"/>
        <pt x="250" y="148" on="1"/>
        <pt x="250" y="37" on="1"/>
        <pt x="250" y="-27" on="0"/>
        <pt x="279" y="-105" on="0"/>
        <pt x="317" y="-150" on="1"/>
        <pt x="214" y="-150" on="1"/>
      </contour>
    </TTGlyph>
    <TTGlyph name="braceright" xMin="25" yMin="-150" xMax="321" yMax="743">
      <contour>
        <pt x="63" y="-104" on="0"/>
        <pt x="92" y="-26" on="0"/>
        <pt x="92" y="37" on="1"/>
        <pt x="92" y="148" on="1"/>
        <pt x="92" y="206" on="0"/>
        <pt x="147" y="281" on="0"/>
        <pt x="205" y="293" on="1"/>
        <pt x="205" y="300" on="1"/>
        <pt x="147" y="312" on="0"/>
        <pt x="92" y="387" on="0"/>
        <pt x="92" y="445" on="1"/>
        <pt x="92" y="556" on="1"/>
        <pt x="92" y="619" on="0"/>
        <pt x="63" y="697" on="0"/>
        <pt x="25" y="743" on="1"/>
        <pt x="127" y="743" on="1"/>
        <pt x="180" y="718" on="0"/>
        <pt x="248" y="614" on="0"/>
        <pt x="248" y="560" on="1"/>
        <pt x="248" y="437" on="1"/>
        <pt x="248" y="392" on="0"/>
        <pt x="279" y="339" on="0"/>
        <pt x="321" y="330" on="1"/>
        <pt x="321" y="263" on="1"/>
        <pt x="279" y="254" on="0"/>
        <pt x="248" y="201" on="0"/>
        <pt x="248" y="156" on="1"/>
        <pt x="248" y="33" on="1"/>
        <pt x="248" y="-21" on="0"/>
        <pt x="180" y="-125" on="0"/>
        <pt x="127" y="-150" on="1"/>
        <pt x="25" y="-150" on="1"/>
      </contour>
    </TTGlyph>
    <TTGlyph name="bracketleft" xMin="44" yMin="-150" xMax="293" yMax="743">
      <contour>
        <pt x="44" y="743" on="1"/>
        <pt x="293" y="743" on="1"/>
        <pt x="293" y="643" on="1"/>
        <pt x="200" y="639" on="1"/>
        <pt x="200" y="-45" on="1"/>
        <pt x="293" y="-49" on="1"/>
        <pt x="293" y="-150" on="1"/>
        <pt x="44" y="-150" on="1"/>
      </contour>
    </TTGlyph>
    <TTGlyph name="bracketleft.ss02" xMin="45" yMin="0" xMax="397" yMax="696">
      <contour>
        <pt x="45" y="0" on="1"/>
        <pt x="45" y="348" on="1"/>
        <pt x="45" y="449" on="0"/>
        <pt x="135" y="608" on="0"/>
        <pt x="295" y="696" on="0"/>
        <pt x="397" y="696" on="1"/>
        <pt x="397" y="0" on="1"/>
      </contour>
    </TTGlyph>
    <TTGlyph name="bracketright" xMin="36" yMin="-150" xMax="285" yMax="743">
      <contour>
        <pt x="36" y="-49" on="1"/>
        <pt x="128" y="-45" on="1"/>
        <pt x="128" y="639" on="1"/>
        <pt x="36" y="643" on="1"/>
        <pt x="36" y="743" on="1"/>
        <pt x="285" y="743" on="1"/>
        <pt x="285" y="-150" on="1"/>
        <pt x="36" y="-150" on="1"/>
      </contour>
    </TTGlyph>
    <TTGlyph name="bracketright.ss02" xMin="0" yMin="0" xMax="352" yMax="696">
      <contour>
        <pt x="0" y="696" on="1"/>
        <pt x="102" y="696" on="0"/>
        <pt x="262" y="608" on="0"/>
        <pt x="352" y="449" on="0"/>
        <pt x="352" y="348" on="1"/>
        <pt x="352" y="0" on="1"/>
        <pt x="0" y="0" on="1"/>
      </contour>
    </TTGlyph>
    <TTGlyph name="breve" xMin="7" yMin="606" xMax="285" yMax="743">
      <contour>
        <pt x="285" y="698" on="0"/>
        <pt x="264" y="640" on="0"/>
        <pt x="203" y="606" on="0"/>
        <pt x="146" y="606" on="1"/>
        <pt x="89" y="606" on="0"/>
        <pt x="28" y="640" on="0"/>
        <pt x="7" y="698" on="0"/>
        <pt x="7" y="743" on="1"/>
        <pt x="102" y="743" on="1"/>
        <pt x="102" y="719" on="0"/>
        <pt x="117" y="696" on="0"/>
        <pt x="146" y="696" on="1"/>
        <pt x="175" y="696" on="0"/>
        <pt x="190" y="719" on="0"/>
        <pt x="190" y="743" on="1"/>
        <pt x="285" y="743" on="1"/>
      </contour>
    </TTGlyph>
    <TTGlyph name="brokenbar" xMin="48" yMin="-161" xMax="198" yMax="743">
      <contour>
        <pt x="48" y="743" on="1"/>
        <pt x="198" y="743" on="1"/>
        <pt x="198" y="390" on="1"/>
        <pt x="48" y="390" on="1"/>
      </contour>
      <contour>
        <pt x="48" y="192" on="1"/>
        <pt x="198" y="192" on="1"/>
        <pt x="198" y="-161" on="1"/>
        <pt x="48" y="-161" on="1"/>
      </contour>
    </TTGlyph>
    <TTGlyph name="bullet" xMin="43" yMin="236" xMax="258" yMax="451">
      <contour>
        <pt x="258" y="291" on="0"/>
        <pt x="247" y="251" on="0"/>
        <pt x="203" y="236" on="0"/>
        <pt x="149" y="236" on="1"/>
        <pt x="97" y="236" on="0"/>
        <pt x="54" y="251" on="0"/>
        <pt x="43" y="291" on="0"/>
        <pt x="43" y="342" on="1"/>
        <pt x="43" y="395" on="0"/>
        <pt x="54" y="436" on="0"/>
        <pt x="96" y="451" on="0"/>
        <pt x="149" y="451" on="1"/>
        <pt x="203" y="451" on="0"/>
        <pt x="247" y="436" on="0"/>
        <pt x="258" y="395" on="0"/>
        <pt x="258" y="342" on="1"/>
      </contour>
    </TTGlyph>
    <TTGlyph name="bullet.ss02" xMin="40" yMin="-8" xMax="743" yMax="696">
      <contour>
        <pt x="343" y="421" on="0"/>
        <pt x="279" y="480" on="0"/>
        <pt x="279" y="533" on="1"/>
        <pt x="279" y="575" on="0"/>
        <pt x="318" y="650" on="0"/>
        <pt x="373" y="696" on="0"/>
        <pt x="392" y="696" on="1"/>
        <pt x="411" y="696" on="0"/>
        <pt x="465" y="650" on="0"/>
        <pt x="504" y="575" on="0"/>
        <pt x="504" y="533" on="1"/>
        <pt x="504" y="480" on="0"/>
        <pt x="441" y="421" on="0"/>
        <pt x="392" y="421" on="1"/>
      </contour>
      <contour>
        <pt x="415" y="481" on="0"/>
        <pt x="444" y="508" on="0"/>
        <pt x="444" y="533" on="1"/>
        <pt x="444" y="560" on="0"/>
        <pt x="426" y="607" on="0"/>
        <pt x="401" y="636" on="0"/>
        <pt x="392" y="636" on="1"/>
        <pt x="383" y="636" on="0"/>
        <pt x="358" y="607" on="0"/>
        <pt x="339" y="560" on="0"/>
        <pt x="339" y="533" on="1"/>
        <pt x="339" y="508" on="0"/>
        <pt x="369" y="481" on="0"/>
        <pt x="392" y="481" on="1"/>
      </contour>
      <contour>
        <pt x="161" y="231" on="0"/>
        <pt x="86" y="270" on="0"/>
        <pt x="40" y="325" on="0"/>
        <pt x="40" y="344" on="1"/>
        <pt x="40" y="363" on="0"/>
        <pt x="86" y="417" on="0"/>
        <pt x="161" y="456" on="0"/>
        <pt x="203" y="456" on="1"/>
        <pt x="256" y="456" on="0"/>
        <pt x="315" y="393" on="0"/>
        <pt x="315" y="344" on="1"/>
        <pt x="315" y="295" on="0"/>
        <pt x="256" y="231" on="0"/>
        <pt x="203" y="231" on="1"/>
      </contour>
      <contour>
        <pt x="527" y="231" on="0"/>
        <pt x="468" y="295" on="0"/>
        <pt x="468" y="344" on="1"/>
        <pt x="468" y="393" on="0"/>
        <pt x="527" y="456" on="0"/>
        <pt x="581" y="456" on="1"/>
        <pt x="622" y="456" on="0"/>
        <pt x="697" y="417" on="0"/>
        <pt x="743" y="363" on="0"/>
        <pt x="743" y="344" on="1"/>
        <pt x="743" y="325" on="0"/>
        <pt x="697" y="270" on="0"/>
        <pt x="623" y="231" on="0"/>
        <pt x="581" y="231" on="1"/>
      </contour>
      <contour>
        <pt x="228" y="291" on="0"/>
        <pt x="255" y="321" on="0"/>
        <pt x="255" y="344" on="1"/>
        <pt x="255" y="367" on="0"/>
        <pt x="228" y="396" on="0"/>
        <pt x="203" y="396" on="1"/>
        <pt x="176" y="396" on="0"/>
        <pt x="129" y="378" on="0"/>
        <pt x="100" y="353" on="0"/>
        <pt x="100" y="344" on="1"/>
        <pt x="100" y="335" on="0"/>
        <pt x="129" y="310" on="0"/>
        <pt x="176" y="291" on="0"/>
        <pt x="203" y="291" on="1"/>
      </contour>
      <contour>
        <pt x="607" y="291" on="0"/>
        <pt x="654" y="310" on="0"/>
        <pt x="683" y="335" on="0"/>
        <pt x="683" y="344" on="1"/>
        <pt x="683" y="353" on="0"/>
        <pt x="654" y="378" on="0"/>
        <pt x="607" y="396" on="0"/>
        <pt x="581" y="396" on="1"/>
        <pt x="556" y="396" on="0"/>
        <pt x="528" y="367" on="0"/>
        <pt x="528" y="344" on="1"/>
        <pt x="528" y="321" on="0"/>
        <pt x="556" y="291" on="0"/>
        <pt x="581" y="291" on="1"/>
      </contour>
      <contour>
        <pt x="373" y="-8" on="0"/>
        <pt x="318" y="38" on="0"/>
        <pt x="279" y="113" on="0"/>
        <pt x="279" y="155" on="1"/>
        <pt x="279" y="208" on="0"/>
        <pt x="343" y="267" on="0"/>
        <pt x="392" y="267" on="1"/>
        <pt x="441" y="267" on="0"/>
        <pt x="504" y="208" on="0"/>
        <pt x="504" y="155" on="1"/>
        <pt x="504" y="113" on="0"/>
        <pt x="465" y="38" on="0"/>
        <pt x="411" y="-8" on="0"/>
        <pt x="392" y="-8" on="1"/>
      </contour>
      <contour>
        <pt x="401" y="52" on="0"/>
        <pt x="426" y="81" on="0"/>
        <pt x="444" y="128" on="0"/>
        <pt x="444" y="155" on="1"/>
        <pt x="444" y="180" on="0"/>
        <pt x="415" y="207" on="0"/>
        <pt x="392" y="207" on="1"/>
        <pt x="369" y="207" on="0"/>
        <pt x="339" y="180" on="0"/>
        <pt x="339" y="155" on="1"/>
        <pt x="339" y="128" on="0"/>
        <pt x="358" y="81" on="0"/>
        <pt x="383" y="52" on="0"/>
        <pt x="392" y="52" on="1"/>
      </contour>
    </TTGlyph>
    <TTGlyph name="c" xMin="25" yMin="-8" xMax="325" yMax="518">
      <contour>
        <pt x="264" y="-8" on="0"/>
        <pt x="204" y="-8" on="1"/>
        <pt x="125" y="-8" on="0"/>
        <pt x="48" y="50" on="0"/>
        <pt x="25" y="158" on="0"/>
        <pt x="25" y="255" on="1"/>
        <pt x="25" y="353" on="0"/>
        <pt x="49" y="462" on="0"/>
        <pt x="126" y="518" on="0"/>
        <pt x="204" y="518" on="1"/>
        <pt x="269" y="518" on="0"/>
        <pt x="323" y="504" on="1"/>
        <pt x="323" y="383" on="1"/>
        <pt x="283" y="387" on="0"/>
        <pt x="254" y="387" on="1"/>
        <pt x="224" y="387" on="0"/>
        <pt x="201" y="372" on="0"/>
        <pt x="193" y="320" on="0"/>
        <pt x="193" y="255" on="1"/>
        <pt x="193" y="189" on="0"/>
        <pt x="200" y="138" on="0"/>
        <pt x="224" y="123" on="0"/>
        <pt x="254" y="123" on="1"/>
        <pt x="279" y="123" on="0"/>
        <pt x="325" y="127" on="1"/>
        <pt x="325" y="8" on="1"/>
      </contour>
    </TTGlyph>
    <TTGlyph name="cacute" xMin="25" yMin="-8" xMax="325" yMax="743">
      <component glyphName="c" x="0" y="0" flags="0x0"/>
      <component glyphName="acutecomb" x="326" y="0" flags="0x0"/>
    </TTGlyph>
    <TTGlyph name="cacute.loclPLK" xMin="25" yMin="-8" xMax="325" yMax="743">
      <component glyphName="c" x="0" y="0" flags="0x0"/>
      <component glyphName="acute.loclPLK" x="102" y="0" flags="0x0"/>
    </TTGlyph>
    <TTGlyph name="caron" xMin="7" yMin="612" xMax="313" yMax="743">
      <contour>
        <pt x="7" y="734" on="1"/>
        <pt x="7" y="743" on="1"/>
        <pt x="117" y="743" on="1"/>
        <pt x="160" y="682" on="1"/>
        <pt x="203" y="743" on="1"/>
        <pt x="313" y="743" on="1"/>
        <pt x="313" y="734" on="1"/>
        <pt x="238" y="612" on="1"/>
        <pt x="80" y="612" on="1"/>
      </contour>
    </TTGlyph>
    <TTGlyph name="caron.loclCSY" xMin="35" yMin="420" xMax="199" yMax="688">
      <contour>
        <pt x="48" y="644" on="1"/>
        <pt x="48" y="688" on="1"/>
        <pt x="199" y="688" on="1"/>
        <pt x="199" y="644" on="1"/>
        <pt x="153" y="420" on="1"/>
        <pt x="35" y="420" on="1"/>
      </contour>
    </TTGlyph>
    <TTGlyph name="ccaron" xMin="21" yMin="-8" xMax="327" yMax="743">
      <component glyphName="c" x="0" y="0" flags="0x0"/>
      <component glyphName="uni030C" x="333" y="0" flags="0x0"/>
    </TTGlyph>
    <TTGlyph name="ccedilla" xMin="25" yMin="-188" xMax="325" yMax="518">
      <contour>
        <pt x="325" y="8" on="1"/>
        <pt x="274" y="-6" on="0"/>
        <pt x="227" y="-7" on="1"/>
        <pt x="196" y="-188" on="1"/>
        <pt x="54" y="-188" on="1"/>
        <pt x="54" y="-183" on="1"/>
        <pt x="121" y="4" on="1"/>
        <pt x="80" y="18" on="0"/>
        <pt x="38" y="83" on="0"/>
        <pt x="25" y="178" on="0"/>
        <pt x="25" y="255" on="1"/>
        <pt x="25" y="353" on="0"/>
        <pt x="49" y="462" on="0"/>
        <pt x="126" y="518" on="0"/>
        <pt x="204" y="518" on="1"/>
        <pt x="269" y="518" on="0"/>
        <pt x="323" y="504" on="1"/>
        <pt x="323" y="383" on="1"/>
        <pt x="283" y="387" on="0"/>
        <pt x="254" y="387" on="1"/>
        <pt x="224" y="387" on="0"/>
        <pt x="201" y="372" on="0"/>
        <pt x="193" y="320" on="0"/>
        <pt x="193" y="255" on="1"/>
        <pt x="193" y="189" on="0"/>
        <pt x="200" y="138" on="0"/>
        <pt x="224" y="123" on="0"/>
        <pt x="254" y="123" on="1"/>
        <pt x="279" y="123" on="0"/>
        <pt x="325" y="127" on="1"/>
      </contour>
    </TTGlyph>
    <TTGlyph name="ccircumflex" xMin="21" yMin="-8" xMax="327" yMax="743">
      <component glyphName="c" x="0" y="0" flags="0x0"/>
      <component glyphName="uni0302" x="333" y="0" flags="0x0"/>
    </TTGlyph>
    <TTGlyph name="cdotaccent" xMin="25" yMin="-8" xMax="325" yMax="730">
      <component glyphName="c" x="0" y="0" flags="0x0"/>
      <component glyphName="uni0307" x="246" y="0" flags="0x0"/>
    </TTGlyph>
    <TTGlyph name="cedilla" xMin="5" yMin="-188" xMax="180" yMax="8">
      <contour>
        <pt x="5" y="-183" on="1"/>
        <pt x="74" y="8" on="1"/>
        <pt x="180" y="8" on="1"/>
        <pt x="180" y="3" on="1"/>
        <pt x="147" y="-188" on="1"/>
        <pt x="5" y="-188" on="1"/>
      </contour>
    </TTGlyph>
    <TTGlyph name="cent" xMin="31" yMin="-8" xMax="328" yMax="696">
      <contour>
        <pt x="145" y="74" on="1"/>
        <pt x="97" y="86" on="0"/>
        <pt x="48" y="151" on="0"/>
        <pt x="31" y="257" on="0"/>
        <pt x="31" y="342" on="1"/>
        <pt x="31" y="427" on="0"/>
        <pt x="49" y="534" on="0"/>
        <pt x="99" y="598" on="0"/>
        <pt x="145" y="609" on="1"/>
        <pt x="145" y="696" on="1"/>
        <pt x="266" y="696" on="1"/>
        <pt x="266" y="613" on="1"/>
        <pt x="299" y="608" on="0"/>
        <pt x="325" y="601" on="1"/>
        <pt x="325" y="476" on="1"/>
        <pt x="269" y="480" on="0"/>
        <pt x="258" y="480" on="1"/>
        <pt x="229" y="480" on="0"/>
        <pt x="206" y="464" on="0"/>
        <pt x="198" y="409" on="0"/>
        <pt x="198" y="342" on="1"/>
        <pt x="198" y="274" on="0"/>
        <pt x="206" y="220" on="0"/>
        <pt x="229" y="204" on="0"/>
        <pt x="258" y="204" on="1"/>
        <pt x="274" y="204" on="0"/>
        <pt x="328" y="208" on="1"/>
        <pt x="328" y="84" on="1"/>
        <pt x="301" y="77" on="0"/>
        <pt x="266" y="72" on="1"/>
        <pt x="266" y="-8" on="1"/>
        <pt x="145" y="-8" on="1"/>
      </contour>
    </TTGlyph>
    <TTGlyph name="cent.bold" xMin="31" yMin="-8" xMax="328" yMax="696">
      <contour>
        <pt x="328" y="84" on="1"/>
        <pt x="293" y="74" on="0"/>
        <pt x="266" y="72" on="1"/>
        <pt x="266" y="-8" on="1"/>
        <pt x="145" y="-8" on="1"/>
        <pt x="145" y="75" on="1"/>
        <pt x="79" y="91" on="0"/>
        <pt x="31" y="217" on="0"/>
        <pt x="31" y="342" on="1"/>
        <pt x="31" y="424" on="0"/>
        <pt x="47" y="529" on="0"/>
        <pt x="97" y="599" on="0"/>
        <pt x="145" y="610" on="1"/>
        <pt x="145" y="696" on="1"/>
        <pt x="266" y="696" on="1"/>
        <pt x="266" y="613" on="1"/>
        <pt x="289" y="610" on="0"/>
        <pt x="325" y="601" on="1"/>
        <pt x="325" y="476" on="1"/>
        <pt x="266" y="480" on="1"/>
        <pt x="266" y="204" on="1"/>
        <pt x="315" y="207" on="0"/>
        <pt x="328" y="208" on="1"/>
      </contour>
    </TTGlyph>
    <TTGlyph name="circumflex" xMin="7" yMin="612" xMax="313" yMax="743">
      <contour>
        <pt x="7" y="620" on="1"/>
        <pt x="80" y="743" on="1"/>
        <pt x="238" y="743" on="1"/>
        <pt x="313" y="620" on="1"/>
        <pt x="313" y="612" on="1"/>
        <pt x="203" y="612" on="1"/>
        <pt x="159" y="673" on="1"/>
        <pt x="117" y="612" on="1"/>
        <pt x="7" y="612" on="1"/>
      </contour>
    </TTGlyph>
    <TTGlyph name="colon" xMin="51" yMin="0" xMax="227" yMax="510">
      <contour>
        <pt x="51" y="510" on="1"/>
        <pt x="227" y="510" on="1"/>
        <pt x="227" y="358" on="1"/>
        <pt x="51" y="358" on="1"/>
      </contour>
      <contour>
        <pt x="51" y="152" on="1"/>
        <pt x="227" y="152" on="1"/>
        <pt x="227" y="0" on="1"/>
        <pt x="51" y="0" on="1"/>
      </contour>
    </TTGlyph>
    <TTGlyph name="comma" xMin="51" yMin="-164" xMax="227" yMax="152">
      <contour>
        <pt x="78" y="-92" on="0"/>
        <pt x="102" y="-78" on="0"/>
        <pt x="110" y="-46" on="0"/>
        <pt x="110" y="-14" on="1"/>
        <pt x="110" y="0" on="1"/>
        <pt x="51" y="0" on="1"/>
        <pt x="51" y="152" on="1"/>
        <pt x="227" y="152" on="1"/>
        <pt x="227" y="45" on="1"/>
        <pt x="227" y="-42" on="0"/>
        <pt x="204" y="-127" on="0"/>
        <pt x="131" y="-164" on="0"/>
        <pt x="53" y="-164" on="1"/>
        <pt x="53" y="-92" on="1"/>
      </contour>
    </TTGlyph>
    <TTGlyph name="copyright" xMin="52" yMin="-8" xMax="544" yMax="696">
      <contour>
        <pt x="175" y="-8" on="0"/>
        <pt x="79" y="38" on="0"/>
        <pt x="52" y="172" on="0"/>
        <pt x="52" y="344" on="1"/>
        <pt x="52" y="516" on="0"/>
        <pt x="79" y="650" on="0"/>
        <pt x="175" y="696" on="0"/>
        <pt x="298" y="696" on="1"/>
        <pt x="421" y="696" on="0"/>
        <pt x="518" y="650" on="0"/>
        <pt x="544" y="517" on="0"/>
        <pt x="544" y="344" on="1"/>
        <pt x="544" y="171" on="0"/>
        <pt x="518" y="38" on="0"/>
        <pt x="421" y="-8" on="0"/>
        <pt x="298" y="-8" on="1"/>
      </contour>
      <contour>
        <pt x="399" y="50" on="0"/>
        <pt x="466" y="77" on="0"/>
        <pt x="483" y="183" on="0"/>
        <pt x="483" y="344" on="1"/>
        <pt x="483" y="505" on="0"/>
        <pt x="466" y="611" on="0"/>
        <pt x="399" y="638" on="0"/>
        <pt x="298" y="638" on="1"/>
        <pt x="197" y="638" on="0"/>
        <pt x="130" y="611" on="0"/>
        <pt x="113" y="505" on="0"/>
        <pt x="113" y="344" on="1"/>
        <pt x="113" y="183" on="0"/>
        <pt x="130" y="77" on="0"/>
        <pt x="197" y="50" on="0"/>
        <pt x="298" y="50" on="1"/>
      </contour>
      <contour>
        <pt x="262" y="156" on="0"/>
        <pt x="213" y="191" on="0"/>
        <pt x="198" y="268" on="0"/>
        <pt x="198" y="344" on="1"/>
        <pt x="198" y="420" on="0"/>
        <pt x="214" y="497" on="0"/>
        <pt x="263" y="532" on="0"/>
        <pt x="314" y="532" on="1"/>
        <pt x="332" y="532" on="0"/>
        <pt x="369" y="527" on="0"/>
        <pt x="380" y="523" on="1"/>
        <pt x="380" y="450" on="1"/>
        <pt x="354" y="452" on="0"/>
        <pt x="334" y="452" on="1"/>
        <pt x="312" y="452" on="0"/>
        <pt x="297" y="440" on="0"/>
        <pt x="293" y="401" on="0"/>
        <pt x="293" y="344" on="1"/>
        <pt x="293" y="287" on="0"/>
        <pt x="297" y="248" on="0"/>
        <pt x="312" y="236" on="0"/>
        <pt x="334" y="236" on="1"/>
        <pt x="362" y="236" on="0"/>
        <pt x="382" y="238" on="1"/>
        <pt x="382" y="166" on="1"/>
        <pt x="352" y="156" on="0"/>
        <pt x="314" y="156" on="1"/>
      </contour>
    </TTGlyph>
    <TTGlyph name="currency" xMin="25" yMin="7" xMax="532" yMax="682">
      <contour>
        <pt x="25" y="101" on="1"/>
        <pt x="94" y="170" on="1"/>
        <pt x="86" y="198" on="0"/>
        <pt x="81" y="277" on="0"/>
        <pt x="81" y="345" on="1"/>
        <pt x="81" y="412" on="0"/>
        <pt x="85" y="491" on="0"/>
        <pt x="93" y="519" on="1"/>
        <pt x="25" y="588" on="1"/>
        <pt x="119" y="682" on="1"/>
        <pt x="194" y="607" on="1"/>
        <pt x="222" y="613" on="0"/>
        <pt x="278" y="613" on="1"/>
        <pt x="329" y="613" on="0"/>
        <pt x="363" y="607" on="1"/>
        <pt x="439" y="682" on="1"/>
        <pt x="532" y="588" on="1"/>
        <pt x="462" y="518" on="1"/>
        <pt x="470" y="490" on="0"/>
        <pt x="475" y="409" on="0"/>
        <pt x="475" y="345" on="1"/>
        <pt x="475" y="281" on="0"/>
        <pt x="470" y="200" on="0"/>
        <pt x="462" y="172" on="1"/>
        <pt x="532" y="102" on="1"/>
        <pt x="438" y="7" on="1"/>
        <pt x="363" y="82" on="1"/>
        <pt x="329" y="76" on="0"/>
        <pt x="278" y="76" on="1"/>
        <pt x="227" y="76" on="0"/>
        <pt x="193" y="82" on="1"/>
        <pt x="119" y="8" on="1"/>
      </contour>
      <contour>
        <pt x="294" y="207" on="0"/>
        <pt x="305" y="221" on="0"/>
        <pt x="308" y="272" on="0"/>
        <pt x="308" y="345" on="1"/>
        <pt x="308" y="417" on="0"/>
        <pt x="305" y="468" on="0"/>
        <pt x="294" y="482" on="0"/>
        <pt x="278" y="482" on="1"/>
        <pt x="262" y="482" on="0"/>
        <pt x="250" y="468" on="0"/>
        <pt x="247" y="417" on="0"/>
        <pt x="247" y="345" on="1"/>
        <pt x="247" y="272" on="0"/>
        <pt x="250" y="221" on="0"/>
        <pt x="262" y="207" on="0"/>
        <pt x="278" y="207" on="1"/>
      </contour>
    </TTGlyph>
    <TTGlyph name="d" xMin="25" yMin="-8" xMax="419" yMax="743">
      <contour>
        <pt x="101" y="-8" on="0"/>
        <pt x="49" y="36" on="0"/>
        <pt x="25" y="149" on="0"/>
        <pt x="25" y="254" on="1"/>
        <pt x="25" y="356" on="0"/>
        <pt x="47" y="469" on="0"/>
        <pt x="99" y="518" on="0"/>
        <pt x="146" y="518" on="1"/>
        <pt x="182" y="518" on="0"/>
        <pt x="230" y="490" on="0"/>
        <pt x="243" y="458" on="1"/>
        <pt x="252" y="458" on="1"/>
        <pt x="252" y="743" on="1"/>
        <pt x="419" y="743" on="1"/>
        <pt x="419" y="0" on="1"/>
        <pt x="258" y="0" on="1"/>
        <pt x="254" y="56" on="1"/>
        <pt x="244" y="56" on="1"/>
        <pt x="232" y="21" on="0"/>
        <pt x="180" y="-8" on="0"/>
        <pt x="147" y="-8" on="1"/>
      </contour>
      <contour>
        <pt x="237" y="133" on="0"/>
        <pt x="248" y="143" on="0"/>
        <pt x="250" y="161" on="1"/>
        <pt x="252" y="184" on="0"/>
        <pt x="252" y="255" on="1"/>
        <pt x="252" y="327" on="0"/>
        <pt x="250" y="344" on="1"/>
        <pt x="248" y="366" on="0"/>
        <pt x="237" y="377" on="0"/>
        <pt x="222" y="377" on="1"/>
        <pt x="205" y="377" on="0"/>
        <pt x="194" y="366" on="0"/>
        <pt x="191" y="321" on="0"/>
        <pt x="191" y="255" on="1"/>
        <pt x="191" y="189" on="0"/>
        <pt x="194" y="144" on="0"/>
        <pt x="205" y="133" on="0"/>
        <pt x="222" y="133" on="1"/>
      </contour>
    </TTGlyph>
    <TTGlyph name="dagger" xMin="43" yMin="0" xMax="376" yMax="688">
      <contour>
        <pt x="144" y="410" on="1"/>
        <pt x="43" y="421" on="1"/>
        <pt x="43" y="531" on="1"/>
        <pt x="144" y="542" on="1"/>
        <pt x="154" y="688" on="1"/>
        <pt x="266" y="688" on="1"/>
        <pt x="275" y="542" on="1"/>
        <pt x="376" y="531" on="1"/>
        <pt x="376" y="421" on="1"/>
        <pt x="275" y="410" on="1"/>
        <pt x="266" y="0" on="1"/>
        <pt x="154" y="0" on="1"/>
      </contour>
    </TTGlyph>
    <TTGlyph name="daggerdbl" xMin="43" yMin="0" xMax="376" yMax="688">
      <contour>
        <pt x="144" y="147" on="1"/>
        <pt x="43" y="158" on="1"/>
        <pt x="43" y="268" on="1"/>
        <pt x="144" y="279" on="1"/>
        <pt x="144" y="410" on="1"/>
        <pt x="43" y="421" on="1"/>
        <pt x="43" y="531" on="1"/>
        <pt x="144" y="542" on="1"/>
        <pt x="154" y="688" on="1"/>
        <pt x="266" y="688" on="1"/>
        <pt x="275" y="542" on="1"/>
        <pt x="376" y="531" on="1"/>
        <pt x="376" y="421" on="1"/>
        <pt x="275" y="410" on="1"/>
        <pt x="275" y="279" on="1"/>
        <pt x="376" y="268" on="1"/>
        <pt x="376" y="158" on="1"/>
        <pt x="275" y="147" on="1"/>
        <pt x="266" y="0" on="1"/>
        <pt x="154" y="0" on="1"/>
      </contour>
    </TTGlyph>
    <TTGlyph name="dcaron" xMin="25" yMin="-8" xMax="613" yMax="743">
      <component glyphName="d" x="0" y="0" flags="0x0"/>
      <component glyphName="caron.loclCSY" x="414" y="0" flags="0x0"/>
    </TTGlyph>
    <TTGlyph name="dcroat" xMin="25" yMin="-8" xMax="457" yMax="743">
      <contour>
        <pt x="457" y="561" on="1"/>
        <pt x="419" y="561" on="1"/>
        <pt x="419" y="0" on="1"/>
        <pt x="258" y="0" on="1"/>
        <pt x="254" y="56" on="1"/>
        <pt x="244" y="56" on="1"/>
        <pt x="232" y="21" on="0"/>
        <pt x="180" y="-8" on="0"/>
        <pt x="147" y="-8" on="1"/>
        <pt x="101" y="-8" on="0"/>
        <pt x="49" y="36" on="0"/>
        <pt x="25" y="149" on="0"/>
        <pt x="25" y="254" on="1"/>
        <pt x="25" y="356" on="0"/>
        <pt x="47" y="469" on="0"/>
        <pt x="99" y="518" on="0"/>
        <pt x="146" y="518" on="1"/>
        <pt x="182" y="518" on="0"/>
        <pt x="230" y="490" on="0"/>
        <pt x="243" y="458" on="1"/>
        <pt x="252" y="458" on="1"/>
        <pt x="252" y="561" on="1"/>
        <pt x="162" y="561" on="1"/>
        <pt x="162" y="688" on="1"/>
        <pt x="252" y="688" on="1"/>
        <pt x="252" y="743" on="1"/>
        <pt x="419" y="743" on="1"/>
        <pt x="419" y="688" on="1"/>
        <pt x="457" y="688" on="1"/>
      </contour>
      <contour>
        <pt x="252" y="184" on="0"/>
        <pt x="252" y="255" on="1"/>
        <pt x="252" y="327" on="0"/>
        <pt x="250" y="344" on="1"/>
        <pt x="248" y="366" on="0"/>
        <pt x="237" y="377" on="0"/>
        <pt x="222" y="377" on="1"/>
        <pt x="205" y="377" on="0"/>
        <pt x="194" y="366" on="0"/>
        <pt x="191" y="321" on="0"/>
        <pt x="191" y="255" on="1"/>
        <pt x="191" y="189" on="0"/>
        <pt x="194" y="144" on="0"/>
        <pt x="205" y="133" on="0"/>
        <pt x="222" y="133" on="1"/>
        <pt x="237" y="133" on="0"/>
        <pt x="248" y="143" on="0"/>
        <pt x="250" y="161" on="1"/>
      </contour>
    </TTGlyph>
    <TTGlyph name="degree" xMin="31" yMin="397" xMax="297" yMax="696">
      <contour>
        <pt x="101" y="397" on="0"/>
        <pt x="46" y="425" on="0"/>
        <pt x="31" y="484" on="0"/>
        <pt x="31" y="547" on="1"/>
        <pt x="31" y="610" on="0"/>
        <pt x="46" y="669" on="0"/>
        <pt x="101" y="696" on="0"/>
        <pt x="164" y="696" on="1"/>
        <pt x="227" y="696" on="0"/>
        <pt x="283" y="669" on="0"/>
        <pt x="297" y="611" on="0"/>
        <pt x="297" y="547" on="1"/>
        <pt x="297" y="483" on="0"/>
        <pt x="283" y="425" on="0"/>
        <pt x="227" y="397" on="0"/>
        <pt x="164" y="397" on="1"/>
      </contour>
      <contour>
        <pt x="181" y="474" on="0"/>
        <pt x="193" y="483" on="0"/>
        <pt x="196" y="510" on="0"/>
        <pt x="196" y="547" on="1"/>
        <pt x="196" y="584" on="0"/>
        <pt x="193" y="610" on="0"/>
        <pt x="180" y="620" on="0"/>
        <pt x="164" y="620" on="1"/>
        <pt x="148" y="620" on="0"/>
        <pt x="135" y="610" on="0"/>
        <pt x="132" y="583" on="0"/>
        <pt x="132" y="547" on="1"/>
        <pt x="132" y="511" on="0"/>
        <pt x="135" y="484" on="0"/>
        <pt x="148" y="474" on="0"/>
        <pt x="164" y="474" on="1"/>
      </contour>
    </TTGlyph>
    <TTGlyph name="dialog" xMin="59" yMin="-212" xMax="746" yMax="688">
      <contour>
        <pt x="306" y="-127" on="1"/>
        <pt x="494" y="60" on="1"/>
        <pt x="686" y="60" on="1"/>
        <pt x="686" y="628" on="1"/>
        <pt x="119" y="628" on="1"/>
        <pt x="119" y="60" on="1"/>
        <pt x="306" y="60" on="1"/>
        <pt x="306" y="0" on="1"/>
        <pt x="59" y="0" on="1"/>
        <pt x="59" y="688" on="1"/>
        <pt x="746" y="688" on="1"/>
        <pt x="746" y="0" on="1"/>
        <pt x="519" y="0" on="1"/>
        <pt x="306" y="-212" on="1"/>
      </contour>
    </TTGlyph>
    <TTGlyph name="dieresis" xMin="5" yMin="615" xMax="322" yMax="730">
      <contour>
        <pt x="5" y="730" on="1"/>
        <pt x="141" y="730" on="1"/>
        <pt x="141" y="615" on="1"/>
        <pt x="5" y="615" on="1"/>
      </contour>
      <contour>
        <pt x="186" y="730" on="1"/>
        <pt x="322" y="730" on="1"/>
        <pt x="322" y="615" on="1"/>
        <pt x="186" y="615" on="1"/>
      </contour>
    </TTGlyph>
    <TTGlyph name="divide" xMin="56" yMin="34" xMax="417" yMax="472">
      <contour>
        <pt x="170" y="472" on="1"/>
        <pt x="303" y="472" on="1"/>
        <pt x="303" y="368" on="1"/>
        <pt x="170" y="368" on="1"/>
      </contour>
      <contour>
        <pt x="56" y="319" on="1"/>
        <pt x="417" y="319" on="1"/>
        <pt x="417" y="187" on="1"/>
        <pt x="56" y="187" on="1"/>
      </contour>
      <contour>
        <pt x="170" y="139" on="1"/>
        <pt x="303" y="139" on="1"/>
        <pt x="303" y="34" on="1"/>
        <pt x="170" y="34" on="1"/>
      </contour>
    </TTGlyph>
    <TTGlyph name="dollar" xMin="32" yMin="-8" xMax="379" yMax="696">
      <contour>
        <pt x="149" y="72" on="1"/>
        <pt x="95" y="77" on="0"/>
        <pt x="44" y="88" on="1"/>
        <pt x="44" y="211" on="1"/>
        <pt x="110" y="205" on="0"/>
        <pt x="148" y="205" on="1"/>
        <pt x="181" y="205" on="0"/>
        <pt x="208" y="208" on="0"/>
        <pt x="220" y="222" on="0"/>
        <pt x="220" y="239" on="1"/>
        <pt x="220" y="261" on="0"/>
        <pt x="210" y="272" on="0"/>
        <pt x="189" y="276" on="1"/>
        <pt x="140" y="286" on="1"/>
        <pt x="95" y="294" on="0"/>
        <pt x="49" y="333" on="0"/>
        <pt x="32" y="398" on="0"/>
        <pt x="32" y="455" on="1"/>
        <pt x="32" y="528" on="0"/>
        <pt x="92" y="604" on="0"/>
        <pt x="149" y="614" on="1"/>
        <pt x="149" y="696" on="1"/>
        <pt x="271" y="696" on="1"/>
        <pt x="271" y="616" on="1"/>
        <pt x="324" y="611" on="0"/>
        <pt x="355" y="602" on="1"/>
        <pt x="355" y="478" on="1"/>
        <pt x="285" y="485" on="0"/>
        <pt x="255" y="485" on="1"/>
        <pt x="227" y="485" on="0"/>
        <pt x="202" y="480" on="0"/>
        <pt x="194" y="468" on="0"/>
        <pt x="194" y="455" on="1"/>
        <pt x="194" y="433" on="0"/>
        <pt x="202" y="423" on="0"/>
        <pt x="222" y="419" on="1"/>
        <pt x="276" y="410" on="1"/>
        <pt x="311" y="404" on="0"/>
        <pt x="353" y="379" on="0"/>
        <pt x="379" y="313" on="0"/>
        <pt x="379" y="250" on="1"/>
        <pt x="379" y="166" on="0"/>
        <pt x="324" y="86" on="0"/>
        <pt x="271" y="76" on="1"/>
        <pt x="271" y="-8" on="1"/>
        <pt x="149" y="-8" on="1"/>
      </contour>
    </TTGlyph>
    <TTGlyph name="dollar.bold" xMin="32" yMin="-8" xMax="379" yMax="696">
      <contour>
        <pt x="379" y="172" on="0"/>
        <pt x="329" y="88" on="0"/>
        <pt x="271" y="76" on="1"/>
        <pt x="271" y="-8" on="1"/>
        <pt x="149" y="-8" on="1"/>
        <pt x="149" y="72" on="1"/>
        <pt x="105" y="76" on="0"/>
        <pt x="44" y="88" on="1"/>
        <pt x="44" y="211" on="1"/>
        <pt x="110" y="205" on="0"/>
        <pt x="148" y="205" on="1"/>
        <pt x="149" y="205" on="1"/>
        <pt x="149" y="284" on="1"/>
        <pt x="140" y="286" on="1"/>
        <pt x="95" y="294" on="0"/>
        <pt x="49" y="333" on="0"/>
        <pt x="32" y="398" on="0"/>
        <pt x="32" y="455" on="1"/>
        <pt x="32" y="525" on="0"/>
        <pt x="88" y="602" on="0"/>
        <pt x="149" y="614" on="1"/>
        <pt x="149" y="696" on="1"/>
        <pt x="271" y="696" on="1"/>
        <pt x="271" y="616" on="1"/>
        <pt x="320" y="611" on="0"/>
        <pt x="355" y="602" on="1"/>
        <pt x="355" y="478" on="1"/>
        <pt x="294" y="484" on="0"/>
        <pt x="271" y="485" on="1"/>
        <pt x="271" y="411" on="1"/>
        <pt x="276" y="410" on="1"/>
        <pt x="311" y="404" on="0"/>
        <pt x="353" y="379" on="0"/>
        <pt x="379" y="313" on="0"/>
        <pt x="379" y="250" on="1"/>
      </contour>
    </TTGlyph>
    <TTGlyph name="dotaccent" xMin="5" yMin="615" xMax="141" yMax="730">
      <contour>
        <pt x="5" y="730" on="1"/>
        <pt x="141" y="730" on="1"/>
        <pt x="141" y="615" on="1"/>
        <pt x="5" y="615" on="1"/>
      </contour>
    </TTGlyph>
    <TTGlyph name="dotbelowcomb" xMin="-226" yMin="-214" xMax="-50" yMax="-62">
      <contour>
        <pt x="-226" y="-62" on="1"/>
        <pt x="-50" y="-62" on="1"/>
        <pt x="-50" y="-214" on="1"/>
        <pt x="-226" y="-214" on="1"/>
      </contour>
    </TTGlyph>
    <TTGlyph name="dotlessi" xMin="35" yMin="0" xMax="203" yMax="510">
      <contour>
        <pt x="35" y="510" on="1"/>
        <pt x="203" y="510" on="1"/>
        <pt x="203" y="0" on="1"/>
        <pt x="35" y="0" on="1"/>
      </contour>
    </TTGlyph>
    <TTGlyph name="e" xMin="25" yMin="-8" xMax="405" yMax="518">
      <contour>
        <pt x="405" y="213" on="1"/>
        <pt x="190" y="213" on="1"/>
        <pt x="190" y="166" on="0"/>
        <pt x="198" y="133" on="0"/>
        <pt x="229" y="123" on="0"/>
        <pt x="271" y="123" on="1"/>
        <pt x="311" y="123" on="0"/>
        <pt x="393" y="127" on="1"/>
        <pt x="393" y="8" on="1"/>
        <pt x="366" y="1" on="0"/>
        <pt x="275" y="-8" on="0"/>
        <pt x="231" y="-8" on="1"/>
        <pt x="134" y="-8" on="0"/>
        <pt x="47" y="46" on="0"/>
        <pt x="25" y="149" on="0"/>
        <pt x="25" y="254" on="1"/>
        <pt x="25" y="358" on="0"/>
        <pt x="47" y="463" on="0"/>
        <pt x="130" y="518" on="0"/>
        <pt x="220" y="518" on="1"/>
        <pt x="310" y="518" on="0"/>
        <pt x="388" y="468" on="0"/>
        <pt x="405" y="369" on="0"/>
        <pt x="405" y="254" on="1"/>
      </contour>
      <contour>
        <pt x="206" y="392" on="0"/>
        <pt x="194" y="383" on="0"/>
        <pt x="190" y="348" on="0"/>
        <pt x="190" y="305" on="1"/>
        <pt x="250" y="305" on="1"/>
        <pt x="250" y="350" on="0"/>
        <pt x="247" y="383" on="0"/>
        <pt x="236" y="392" on="0"/>
        <pt x="220" y="392" on="1"/>
      </contour>
    </TTGlyph>
    <TTGlyph name="eacute" xMin="25" yMin="-8" xMax="405" yMax="743">
      <component glyphName="e" x="0" y="0" flags="0x0"/>
      <component glyphName="acute" x="151" y="0" flags="0x0"/>
    </TTGlyph>
    <TTGlyph name="ebreve" xMin="25" yMin="-8" xMax="405" yMax="743">
      <component glyphName="e" x="0" y="0" flags="0x0"/>
      <component glyphName="uni0306" x="361" y="0" flags="0x0"/>
    </TTGlyph>
    <TTGlyph name="ecaron" xMin="25" yMin="-8" xMax="405" yMax="743">
      <component glyphName="e" x="0" y="0" flags="0x0"/>
      <component glyphName="uni030C" x="375" y="0" flags="0x0"/>
    </TTGlyph>
    <TTGlyph name="ecircumflex" xMin="25" yMin="-8" xMax="405" yMax="743">
      <component glyphName="e" x="0" y="0" flags="0x0"/>
      <component glyphName="circumflex" x="65" y="0" flags="0x0"/>
    </TTGlyph>
    <TTGlyph name="edieresis" xMin="25" yMin="-8" xMax="405" yMax="730">
      <component glyphName="e" x="0" y="0" flags="0x0"/>
      <component glyphName="dieresis" x="59" y="0" flags="0x0"/>
    </TTGlyph>
    <TTGlyph name="edotaccent" xMin="25" yMin="-8" xMax="405" yMax="730">
      <component glyphName="e" x="0" y="0" flags="0x0"/>
      <component glyphName="uni0307" x="288" y="0" flags="0x0"/>
    </TTGlyph>
    <TTGlyph name="egrave" xMin="25" yMin="-8" xMax="405" yMax="743">
      <component glyphName="e" x="0" y="0" flags="0x0"/>
      <component glyphName="grave" x="75" y="0" flags="0x0"/>
    </TTGlyph>
    <TTGlyph name="eight" xMin="27" yMin="-8" xMax="467" yMax="696">
      <contour>
        <pt x="165" y="-8" on="0"/>
        <pt x="69" y="30" on="0"/>
        <pt x="27" y="112" on="0"/>
        <pt x="27" y="181" on="1"/>
        <pt x="27" y="262" on="0"/>
        <pt x="75" y="336" on="0"/>
        <pt x="126" y="349" on="1"/>
        <pt x="126" y="353" on="1"/>
        <pt x="78" y="367" on="0"/>
        <pt x="33" y="444" on="0"/>
        <pt x="33" y="518" on="1"/>
        <pt x="33" y="586" on="0"/>
        <pt x="78" y="663" on="0"/>
        <pt x="171" y="696" on="0"/>
        <pt x="247" y="696" on="1"/>
        <pt x="323" y="696" on="0"/>
        <pt x="416" y="663" on="0"/>
        <pt x="460" y="586" on="0"/>
        <pt x="460" y="518" on="1"/>
        <pt x="460" y="444" on="0"/>
        <pt x="415" y="367" on="0"/>
        <pt x="367" y="353" on="1"/>
        <pt x="367" y="349" on="1"/>
        <pt x="419" y="336" on="0"/>
        <pt x="467" y="262" on="0"/>
        <pt x="467" y="181" on="1"/>
        <pt x="467" y="112" on="0"/>
        <pt x="424" y="30" on="0"/>
        <pt x="328" y="-8" on="0"/>
        <pt x="247" y="-8" on="1"/>
      </contour>
      <contour>
        <pt x="266" y="413" on="0"/>
        <pt x="280" y="420" on="0"/>
        <pt x="284" y="446" on="0"/>
        <pt x="284" y="483" on="1"/>
        <pt x="284" y="520" on="0"/>
        <pt x="280" y="547" on="0"/>
        <pt x="266" y="555" on="0"/>
        <pt x="247" y="555" on="1"/>
        <pt x="228" y="555" on="0"/>
        <pt x="213" y="547" on="0"/>
        <pt x="209" y="520" on="0"/>
        <pt x="209" y="483" on="1"/>
        <pt x="209" y="447" on="0"/>
        <pt x="213" y="420" on="0"/>
        <pt x="227" y="413" on="0"/>
        <pt x="247" y="413" on="1"/>
      </contour>
      <contour>
        <pt x="266" y="132" on="0"/>
        <pt x="281" y="141" on="0"/>
        <pt x="286" y="170" on="0"/>
        <pt x="286" y="207" on="1"/>
        <pt x="286" y="244" on="0"/>
        <pt x="281" y="274" on="0"/>
        <pt x="266" y="283" on="0"/>
        <pt x="247" y="283" on="1"/>
        <pt x="228" y="283" on="0"/>
        <pt x="212" y="273" on="0"/>
        <pt x="207" y="244" on="0"/>
        <pt x="207" y="207" on="1"/>
        <pt x="207" y="171" on="0"/>
        <pt x="212" y="141" on="0"/>
        <pt x="228" y="132" on="0"/>
        <pt x="247" y="132" on="1"/>
      </contour>
    </TTGlyph>
    <TTGlyph name="eight.dnom" xMin="12" yMin="-4" xMax="274" yMax="385">
      <contour>
        <pt x="70" y="-4" on="0"/>
        <pt x="12" y="44" on="0"/>
        <pt x="12" y="101" on="1"/>
        <pt x="12" y="146" on="0"/>
        <pt x="40" y="186" on="0"/>
        <pt x="70" y="193" on="1"/>
        <pt x="70" y="195" on="1"/>
        <pt x="42" y="203" on="0"/>
        <pt x="15" y="245" on="0"/>
        <pt x="15" y="286" on="1"/>
        <pt x="15" y="341" on="0"/>
        <pt x="74" y="385" on="0"/>
        <pt x="142" y="385" on="1"/>
        <pt x="210" y="385" on="0"/>
        <pt x="270" y="341" on="0"/>
        <pt x="270" y="286" on="1"/>
        <pt x="270" y="246" on="0"/>
        <pt x="242" y="203" on="0"/>
        <pt x="214" y="195" on="1"/>
        <pt x="214" y="193" on="1"/>
        <pt x="245" y="186" on="0"/>
        <pt x="274" y="145" on="0"/>
        <pt x="274" y="101" on="1"/>
        <pt x="274" y="45" on="0"/>
        <pt x="215" y="-4" on="0"/>
        <pt x="142" y="-4" on="1"/>
      </contour>
      <contour>
        <pt x="155" y="227" on="0"/>
        <pt x="165" y="232" on="0"/>
        <pt x="168" y="247" on="0"/>
        <pt x="168" y="267" on="1"/>
        <pt x="168" y="287" on="0"/>
        <pt x="165" y="304" on="0"/>
        <pt x="155" y="309" on="0"/>
        <pt x="142" y="309" on="1"/>
        <pt x="125" y="309" on="0"/>
        <pt x="116" y="295" on="0"/>
        <pt x="116" y="267" on="1"/>
        <pt x="116" y="248" on="0"/>
        <pt x="119" y="232" on="0"/>
        <pt x="130" y="227" on="0"/>
        <pt x="142" y="227" on="1"/>
      </contour>
      <contour>
        <pt x="160" y="72" on="0"/>
        <pt x="170" y="86" on="0"/>
        <pt x="170" y="115" on="1"/>
        <pt x="170" y="144" on="0"/>
        <pt x="160" y="158" on="0"/>
        <pt x="142" y="158" on="1"/>
        <pt x="124" y="158" on="0"/>
        <pt x="115" y="144" on="0"/>
        <pt x="115" y="115" on="1"/>
        <pt x="115" y="94" on="0"/>
        <pt x="119" y="77" on="0"/>
        <pt x="129" y="72" on="0"/>
        <pt x="142" y="72" on="1"/>
      </contour>
    </TTGlyph>
    <TTGlyph name="eight.numr" xMin="12" yMin="304" xMax="274" yMax="693">
      <component glyphName="eight.dnom" x="0" y="308" flags="0x4"/>
    </TTGlyph>
    <TTGlyph name="eight.tnum" xMin="23" yMin="-8" xMax="463" yMax="696">
      <contour>
        <pt x="162" y="-8" on="0"/>
        <pt x="66" y="30" on="0"/>
        <pt x="23" y="112" on="0"/>
        <pt x="23" y="181" on="1"/>
        <pt x="23" y="262" on="0"/>
        <pt x="71" y="336" on="0"/>
        <pt x="123" y="349" on="1"/>
        <pt x="123" y="353" on="1"/>
        <pt x="75" y="367" on="0"/>
        <pt x="30" y="444" on="0"/>
        <pt x="30" y="518" on="1"/>
        <pt x="30" y="586" on="0"/>
        <pt x="74" y="663" on="0"/>
        <pt x="167" y="696" on="0"/>
        <pt x="243" y="696" on="1"/>
        <pt x="319" y="696" on="0"/>
        <pt x="412" y="663" on="0"/>
        <pt x="457" y="586" on="0"/>
        <pt x="457" y="518" on="1"/>
        <pt x="457" y="444" on="0"/>
        <pt x="412" y="367" on="0"/>
        <pt x="364" y="353" on="1"/>
        <pt x="364" y="349" on="1"/>
        <pt x="415" y="336" on="0"/>
        <pt x="463" y="262" on="0"/>
        <pt x="463" y="181" on="1"/>
        <pt x="463" y="112" on="0"/>
        <pt x="421" y="30" on="0"/>
        <pt x="325" y="-8" on="0"/>
        <pt x="243" y="-8" on="1"/>
      </contour>
      <contour>
        <pt x="263" y="413" on="0"/>
        <pt x="277" y="420" on="0"/>
        <pt x="281" y="447" on="0"/>
        <pt x="281" y="483" on="1"/>
        <pt x="281" y="520" on="0"/>
        <pt x="277" y="547" on="0"/>
        <pt x="262" y="555" on="0"/>
        <pt x="243" y="555" on="1"/>
        <pt x="224" y="555" on="0"/>
        <pt x="210" y="547" on="0"/>
        <pt x="206" y="520" on="0"/>
        <pt x="206" y="483" on="1"/>
        <pt x="206" y="446" on="0"/>
        <pt x="210" y="420" on="0"/>
        <pt x="224" y="413" on="0"/>
        <pt x="243" y="413" on="1"/>
      </contour>
      <contour>
        <pt x="262" y="132" on="0"/>
        <pt x="278" y="141" on="0"/>
        <pt x="283" y="171" on="0"/>
        <pt x="283" y="207" on="1"/>
        <pt x="283" y="244" on="0"/>
        <pt x="278" y="273" on="0"/>
        <pt x="262" y="283" on="0"/>
        <pt x="243" y="283" on="1"/>
        <pt x="224" y="283" on="0"/>
        <pt x="209" y="273" on="0"/>
        <pt x="204" y="243" on="0"/>
        <pt x="204" y="207" on="1"/>
        <pt x="204" y="170" on="0"/>
        <pt x="209" y="141" on="0"/>
        <pt x="224" y="132" on="0"/>
        <pt x="243" y="132" on="1"/>
      </contour>
    </TTGlyph>
    <TTGlyph name="ellipsis" xMin="51" yMin="0" xMax="781" yMax="152">
      <contour>
        <pt x="51" y="152" on="1"/>
        <pt x="227" y="152" on="1"/>
        <pt x="227" y="0" on="1"/>
        <pt x="51" y="0" on="1"/>
      </contour>
      <contour>
        <pt x="328" y="152" on="1"/>
        <pt x="504" y="152" on="1"/>
        <pt x="504" y="0" on="1"/>
        <pt x="328" y="0" on="1"/>
      </contour>
      <contour>
        <pt x="605" y="152" on="1"/>
        <pt x="781" y="152" on="1"/>
        <pt x="781" y="0" on="1"/>
        <pt x="605" y="0" on="1"/>
      </contour>
    </TTGlyph>
    <TTGlyph name="emacron" xMin="25" yMin="-8" xMax="405" yMax="743">
      <component glyphName="e" x="0" y="0" flags="0x0"/>
      <component glyphName="uni0304" x="367" y="0" flags="0x0"/>
    </TTGlyph>
    <TTGlyph name="emdash" xMin="37" yMin="240" xMax="782" yMax="370">
      <contour>
        <pt x="37" y="370" on="1"/>
        <pt x="782" y="370" on="1"/>
        <pt x="782" y="240" on="1"/>
        <pt x="37" y="240" on="1"/>
      </contour>
    </TTGlyph>
    <TTGlyph name="endash" xMin="37" yMin="240" xMax="417" yMax="370">
      <contour>
        <pt x="37" y="370" on="1"/>
        <pt x="417" y="370" on="1"/>
        <pt x="417" y="240" on="1"/>
        <pt x="37" y="240" on="1"/>
      </contour>
    </TTGlyph>
    <TTGlyph name="eng" xMin="35" yMin="-198" xMax="424" yMax="518">
      <contour>
        <pt x="361" y="518" on="0"/>
        <pt x="408" y="480" on="0"/>
        <pt x="424" y="405" on="0"/>
        <pt x="424" y="338" on="1"/>
        <pt x="424" y="35" on="1"/>
        <pt x="424" y="-74" on="0"/>
        <pt x="389" y="-169" on="0"/>
        <pt x="302" y="-198" on="0"/>
        <pt x="202" y="-198" on="1"/>
        <pt x="202" y="-80" on="1"/>
        <pt x="228" y="-80" on="0"/>
        <pt x="251" y="-70" on="0"/>
        <pt x="257" y="-50" on="0"/>
        <pt x="257" y="-29" on="1"/>
        <pt x="257" y="272" on="1"/>
        <pt x="257" y="328" on="0"/>
        <pt x="254" y="366" on="0"/>
        <pt x="244" y="376" on="0"/>
        <pt x="230" y="376" on="1"/>
        <pt x="215" y="376" on="0"/>
        <pt x="205" y="364" on="0"/>
        <pt x="202" y="322" on="0"/>
        <pt x="202" y="258" on="1"/>
        <pt x="202" y="0" on="1"/>
        <pt x="35" y="0" on="1"/>
        <pt x="35" y="510" on="1"/>
        <pt x="196" y="510" on="1"/>
        <pt x="200" y="453" on="1"/>
        <pt x="209" y="453" on="1"/>
        <pt x="236" y="518" on="0"/>
        <pt x="315" y="518" on="1"/>
      </contour>
    </TTGlyph>
    <TTGlyph name="eogonek" xMin="25" yMin="-196" xMax="405" yMax="518">
      <contour>
        <pt x="405" y="213" on="1"/>
        <pt x="190" y="213" on="1"/>
        <pt x="190" y="166" on="0"/>
        <pt x="198" y="133" on="0"/>
        <pt x="229" y="123" on="0"/>
        <pt x="271" y="123" on="1"/>
        <pt x="311" y="123" on="0"/>
        <pt x="393" y="127" on="1"/>
        <pt x="393" y="8" on="1"/>
        <pt x="368" y="-7" on="0"/>
        <pt x="326" y="-53" on="0"/>
        <pt x="326" y="-79" on="1"/>
        <pt x="326" y="-112" on="0"/>
        <pt x="364" y="-112" on="1"/>
        <pt x="376" y="-111" on="1"/>
        <pt x="376" y="-191" on="1"/>
        <pt x="349" y="-196" on="0"/>
        <pt x="313" y="-196" on="1"/>
        <pt x="252" y="-196" on="0"/>
        <pt x="199" y="-146" on="0"/>
        <pt x="199" y="-109" on="1"/>
        <pt x="199" y="-58" on="0"/>
        <pt x="252" y="-8" on="1"/>
        <pt x="231" y="-8" on="1"/>
        <pt x="134" y="-8" on="0"/>
        <pt x="47" y="46" on="0"/>
        <pt x="25" y="149" on="0"/>
        <pt x="25" y="254" on="1"/>
        <pt x="25" y="358" on="0"/>
        <pt x="47" y="463" on="0"/>
        <pt x="130" y="518" on="0"/>
        <pt x="220" y="518" on="1"/>
        <pt x="310" y="518" on="0"/>
        <pt x="388" y="468" on="0"/>
        <pt x="405" y="369" on="0"/>
        <pt x="405" y="254" on="1"/>
      </contour>
      <contour>
        <pt x="206" y="392" on="0"/>
        <pt x="194" y="383" on="0"/>
        <pt x="190" y="348" on="0"/>
        <pt x="190" y="305" on="1"/>
        <pt x="250" y="305" on="1"/>
        <pt x="250" y="350" on="0"/>
        <pt x="247" y="383" on="0"/>
        <pt x="236" y="392" on="0"/>
        <pt x="220" y="392" on="1"/>
      </contour>
    </TTGlyph>
    <TTGlyph name="equal" xMin="56" yMin="94" xMax="417" yMax="413">
      <contour>
        <pt x="56" y="413" on="1"/>
        <pt x="417" y="413" on="1"/>
        <pt x="417" y="280" on="1"/>
        <pt x="56" y="280" on="1"/>
      </contour>
      <contour>
        <pt x="56" y="226" on="1"/>
        <pt x="417" y="226" on="1"/>
        <pt x="417" y="94" on="1"/>
        <pt x="56" y="94" on="1"/>
      </contour>
    </TTGlyph>
    <TTGlyph name="estimated" xMin="30" yMin="-8" xMax="479" yMax="696">
      <contour>
        <pt x="211" y="162" on="0"/>
        <pt x="217" y="54" on="0"/>
        <pt x="240" y="26" on="0"/>
        <pt x="274" y="26" on="1"/>
        <pt x="335" y="26" on="0"/>
        <pt x="393" y="44" on="0"/>
        <pt x="427" y="117" on="0"/>
        <pt x="431" y="200" on="1"/>
        <pt x="467" y="200" on="1"/>
        <pt x="462" y="114" on="0"/>
        <pt x="426" y="27" on="0"/>
        <pt x="340" y="-8" on="0"/>
        <pt x="254" y="-8" on="1"/>
        <pt x="144" y="-8" on="0"/>
        <pt x="51" y="55" on="0"/>
        <pt x="30" y="188" on="0"/>
        <pt x="30" y="344" on="1"/>
        <pt x="30" y="501" on="0"/>
        <pt x="51" y="633" on="0"/>
        <pt x="144" y="696" on="0"/>
        <pt x="254" y="696" on="1"/>
        <pt x="364" y="696" on="0"/>
        <pt x="457" y="633" on="0"/>
        <pt x="479" y="500" on="0"/>
        <pt x="479" y="344" on="1"/>
        <pt x="479" y="323" on="1"/>
        <pt x="211" y="323" on="1"/>
      </contour>
      <contour>
        <pt x="231" y="662" on="0"/>
        <pt x="215" y="633" on="0"/>
        <pt x="211" y="522" on="0"/>
        <pt x="211" y="357" on="1"/>
        <pt x="298" y="357" on="1"/>
        <pt x="298" y="522" on="0"/>
        <pt x="294" y="633" on="0"/>
        <pt x="278" y="662" on="0"/>
        <pt x="254" y="662" on="1"/>
      </contour>
    </TTGlyph>
    <TTGlyph name="eth" xMin="25" yMin="-8" xMax="419" yMax="743">
      <contour>
        <pt x="130" y="-8" on="0"/>
        <pt x="48" y="38" on="0"/>
        <pt x="25" y="141" on="0"/>
        <pt x="25" y="254" on="1"/>
        <pt x="25" y="352" on="0"/>
        <pt x="44" y="461" on="0"/>
        <pt x="103" y="518" on="0"/>
        <pt x="164" y="518" on="1"/>
        <pt x="192" y="518" on="0"/>
        <pt x="221" y="512" on="1"/>
        <pt x="225" y="516" on="1"/>
        <pt x="216" y="555" on="0"/>
        <pt x="204" y="587" on="1"/>
        <pt x="108" y="574" on="1"/>
        <pt x="108" y="665" on="1"/>
        <pt x="158" y="672" on="1"/>
        <pt x="144" y="695" on="0"/>
        <pt x="108" y="739" on="1"/>
        <pt x="108" y="743" on="1"/>
        <pt x="279" y="743" on="1"/>
        <pt x="295" y="724" on="0"/>
        <pt x="315" y="694" on="1"/>
        <pt x="412" y="708" on="1"/>
        <pt x="412" y="617" on="1"/>
        <pt x="364" y="609" on="1"/>
        <pt x="391" y="542" on="0"/>
        <pt x="407" y="447" on="1"/>
        <pt x="419" y="370" on="0"/>
        <pt x="419" y="252" on="1"/>
        <pt x="419" y="140" on="0"/>
        <pt x="396" y="37" on="0"/>
        <pt x="314" y="-8" on="0"/>
        <pt x="222" y="-8" on="1"/>
      </contour>
      <contour>
        <pt x="238" y="123" on="0"/>
        <pt x="249" y="137" on="0"/>
        <pt x="252" y="186" on="0"/>
        <pt x="252" y="255" on="1"/>
        <pt x="252" y="324" on="0"/>
        <pt x="249" y="373" on="0"/>
        <pt x="238" y="387" on="0"/>
        <pt x="222" y="387" on="1"/>
        <pt x="206" y="387" on="0"/>
        <pt x="194" y="373" on="0"/>
        <pt x="191" y="324" on="0"/>
        <pt x="191" y="255" on="1"/>
        <pt x="191" y="186" on="0"/>
        <pt x="194" y="137" on="0"/>
        <pt x="206" y="123" on="0"/>
        <pt x="222" y="123" on="1"/>
      </contour>
    </TTGlyph>
    <TTGlyph name="exclam" xMin="51" yMin="0" xMax="251" yMax="688">
      <contour>
        <pt x="51" y="602" on="0"/>
        <pt x="51" y="655" on="1"/>
        <pt x="51" y="688" on="1"/>
        <pt x="251" y="688" on="1"/>
        <pt x="251" y="655" on="1"/>
        <pt x="251" y="602" on="0"/>
        <pt x="206" y="233" on="1"/>
        <pt x="96" y="233" on="1"/>
      </contour>
      <contour>
        <pt x="63" y="152" on="1"/>
        <pt x="239" y="152" on="1"/>
        <pt x="239" y="0" on="1"/>
        <pt x="63" y="0" on="1"/>
      </contour>
    </TTGlyph>
    <TTGlyph name="exclam.case" xMin="51" yMin="0" xMax="251" yMax="688">
      <component glyphName="exclam" x="0" y="0" flags="0x0"/>
    </TTGlyph>
    <TTGlyph name="exclam.ss02" xMin="45" yMin="-8" xMax="749" yMax="696">
      <contour>
        <pt x="302" y="-8" on="0"/>
        <pt x="140" y="87" on="0"/>
        <pt x="45" y="249" on="0"/>
        <pt x="45" y="344" on="1"/>
        <pt x="45" y="439" on="0"/>
        <pt x="140" y="601" on="0"/>
        <pt x="302" y="696" on="0"/>
        <pt x="397" y="696" on="1"/>
        <pt x="492" y="696" on="0"/>
        <pt x="654" y="601" on="0"/>
        <pt x="749" y="439" on="0"/>
        <pt x="749" y="344" on="1"/>
        <pt x="749" y="249" on="0"/>
        <pt x="654" y="87" on="0"/>
        <pt x="492" y="-8" on="0"/>
        <pt x="397" y="-8" on="1"/>
      </contour>
      <contour>
        <pt x="480" y="37" on="0"/>
        <pt x="621" y="120" on="0"/>
        <pt x="704" y="261" on="0"/>
        <pt x="704" y="344" on="1"/>
        <pt x="704" y="427" on="0"/>
        <pt x="621" y="568" on="0"/>
        <pt x="480" y="651" on="0"/>
        <pt x="397" y="651" on="1"/>
        <pt x="314" y="651" on="0"/>
        <pt x="173" y="568" on="0"/>
        <pt x="90" y="427" on="0"/>
        <pt x="90" y="344" on="1"/>
        <pt x="90" y="261" on="0"/>
        <pt x="173" y="120" on="0"/>
        <pt x="314" y="37" on="0"/>
        <pt x="397" y="37" on="1"/>
      </contour>
      <contour>
        <pt x="371" y="310" on="0"/>
        <pt x="363" y="429" on="0"/>
        <pt x="363" y="480" on="1"/>
        <pt x="363" y="579" on="1"/>
        <pt x="431" y="579" on="1"/>
        <pt x="431" y="480" on="1"/>
        <pt x="431" y="429" on="0"/>
        <pt x="423" y="310" on="0"/>
        <pt x="417" y="268" on="1"/>
        <pt x="377" y="268" on="1"/>
      </contour>
      <contour>
        <pt x="363" y="191" on="1"/>
        <pt x="431" y="191" on="1"/>
        <pt x="431" y="109" on="1"/>
        <pt x="363" y="109" on="1"/>
      </contour>
    </TTGlyph>
    <TTGlyph name="exclamdbl" xMin="51" yMin="0" xMax="488" yMax="688">
      <component glyphName="exclam" x="237" y="0" flags="0x0"/>
      <component glyphName="exclam" x="0" y="0" flags="0x0"/>
    </TTGlyph>
    <TTGlyph name="exclamdown" xMin="43" yMin="-178" xMax="243" yMax="510">
      <contour>
        <pt x="55" y="510" on="1"/>
        <pt x="231" y="510" on="1"/>
        <pt x="231" y="358" on="1"/>
        <pt x="55" y="358" on="1"/>
      </contour>
      <contour>
        <pt x="43" y="-145" on="1"/>
        <pt x="43" y="-120" on="0"/>
        <pt x="69" y="123" on="0"/>
        <pt x="89" y="277" on="1"/>
        <pt x="198" y="277" on="1"/>
        <pt x="217" y="128" on="0"/>
        <pt x="243" y="-119" on="0"/>
        <pt x="243" y="-145" on="1"/>
        <pt x="243" y="-178" on="1"/>
        <pt x="43" y="-178" on="1"/>
      </contour>
    </TTGlyph>
    <TTGlyph name="exclamdown.case" xMin="44" yMin="0" xMax="244" yMax="688">
      <component glyphName="exclamdown" x="1" y="178" flags="0x4"/>
    </TTGlyph>
    <TTGlyph name="f" xMin="12" yMin="0" xMax="320" yMax="743">
      <contour>
        <pt x="71" y="379" on="1"/>
        <pt x="12" y="379" on="1"/>
        <pt x="12" y="510" on="1"/>
        <pt x="71" y="510" on="1"/>
        <pt x="71" y="519" on="1"/>
        <pt x="71" y="629" on="0"/>
        <pt x="105" y="718" on="0"/>
        <pt x="201" y="743" on="0"/>
        <pt x="320" y="743" on="1"/>
        <pt x="320" y="627" on="1"/>
        <pt x="279" y="627" on="0"/>
        <pt x="249" y="619" on="0"/>
        <pt x="239" y="590" on="0"/>
        <pt x="239" y="552" on="1"/>
        <pt x="239" y="510" on="1"/>
        <pt x="320" y="510" on="1"/>
        <pt x="320" y="379" on="1"/>
        <pt x="239" y="379" on="1"/>
        <pt x="239" y="0" on="1"/>
        <pt x="71" y="0" on="1"/>
      </contour>
    </TTGlyph>
    <TTGlyph name="f_f" xMin="12" yMin="0" xMax="658" yMax="743">
      <component glyphName="f" x="0" y="0" flags="0x0"/>
      <component glyphName="f" x="338" y="0" flags="0x0"/>
    </TTGlyph>
    <TTGlyph name="fi" xMin="12" yMin="0" xMax="541" yMax="743">
      <component glyphName="f" x="0" y="0" flags="0x0"/>
      <component glyphName="i" x="338" y="0" flags="0x0"/>
    </TTGlyph>
    <TTGlyph name="five" xMin="43" yMin="-8" xMax="441" yMax="688">
      <contour>
        <pt x="125" y="140" on="0"/>
        <pt x="178" y="140" on="1"/>
        <pt x="219" y="140" on="0"/>
        <pt x="250" y="148" on="0"/>
        <pt x="261" y="179" on="0"/>
        <pt x="261" y="219" on="1"/>
        <pt x="261" y="258" on="0"/>
        <pt x="251" y="290" on="0"/>
        <pt x="220" y="299" on="0"/>
        <pt x="180" y="299" on="1"/>
        <pt x="114" y="299" on="0"/>
        <pt x="48" y="292" on="1"/>
        <pt x="48" y="688" on="1"/>
        <pt x="412" y="688" on="1"/>
        <pt x="412" y="539" on="1"/>
        <pt x="208" y="539" on="1"/>
        <pt x="208" y="441" on="1"/>
        <pt x="238" y="446" on="0"/>
        <pt x="277" y="446" on="1"/>
        <pt x="369" y="446" on="0"/>
        <pt x="441" y="340" on="0"/>
        <pt x="441" y="233" on="1"/>
        <pt x="441" y="142" on="0"/>
        <pt x="405" y="40" on="0"/>
        <pt x="312" y="-8" on="0"/>
        <pt x="225" y="-8" on="1"/>
        <pt x="185" y="-8" on="0"/>
        <pt x="83" y="3" on="0"/>
        <pt x="43" y="11" on="1"/>
        <pt x="43" y="147" on="1"/>
      </contour>
    </TTGlyph>
    <TTGlyph name="five.dnom" xMin="38" yMin="-4" xMax="260" yMax="380">
      <contour>
        <pt x="83" y="77" on="0"/>
        <pt x="115" y="77" on="1"/>
        <pt x="138" y="77" on="0"/>
        <pt x="152" y="82" on="0"/>
        <pt x="155" y="100" on="0"/>
        <pt x="155" y="131" on="1"/>
        <pt x="155" y="148" on="0"/>
        <pt x="151" y="161" on="0"/>
        <pt x="136" y="165" on="0"/>
        <pt x="116" y="165" on="1"/>
        <pt x="74" y="165" on="0"/>
        <pt x="41" y="161" on="1"/>
        <pt x="41" y="380" on="1"/>
        <pt x="244" y="380" on="1"/>
        <pt x="244" y="298" on="1"/>
        <pt x="133" y="298" on="1"/>
        <pt x="133" y="242" on="1"/>
        <pt x="150" y="245" on="0"/>
        <pt x="171" y="245" on="1"/>
        <pt x="222" y="245" on="0"/>
        <pt x="260" y="188" on="0"/>
        <pt x="260" y="128" on="1"/>
        <pt x="260" y="77" on="0"/>
        <pt x="240" y="21" on="0"/>
        <pt x="189" y="-4" on="0"/>
        <pt x="139" y="-4" on="1"/>
        <pt x="84" y="-4" on="0"/>
        <pt x="38" y="7" on="1"/>
        <pt x="38" y="82" on="1"/>
      </contour>
    </TTGlyph>
    <TTGlyph name="five.numr" xMin="38" yMin="304" xMax="260" yMax="688">
      <contour>
        <pt x="83" y="385" on="0"/>
        <pt x="115" y="385" on="1"/>
        <pt x="138" y="385" on="0"/>
        <pt x="152" y="390" on="0"/>
        <pt x="155" y="408" on="0"/>
        <pt x="155" y="439" on="1"/>
        <pt x="155" y="456" on="0"/>
        <pt x="151" y="469" on="0"/>
        <pt x="136" y="473" on="0"/>
        <pt x="116" y="473" on="1"/>
        <pt x="74" y="473" on="0"/>
        <pt x="41" y="469" on="1"/>
        <pt x="41" y="688" on="1"/>
        <pt x="244" y="688" on="1"/>
        <pt x="244" y="606" on="1"/>
        <pt x="133" y="606" on="1"/>
        <pt x="133" y="550" on="1"/>
        <pt x="149" y="553" on="0"/>
        <pt x="171" y="553" on="1"/>
        <pt x="222" y="553" on="0"/>
        <pt x="260" y="496" on="0"/>
        <pt x="260" y="436" on="1"/>
        <pt x="260" y="385" on="0"/>
        <pt x="240" y="329" on="0"/>
        <pt x="189" y="304" on="0"/>
        <pt x="139" y="304" on="1"/>
        <pt x="84" y="304" on="0"/>
        <pt x="38" y="315" on="1"/>
        <pt x="38" y="390" on="1"/>
      </contour>
    </TTGlyph>
    <TTGlyph name="five.tnum" xMin="51" yMin="-8" xMax="449" yMax="688">
      <contour>
        <pt x="133" y="140" on="0"/>
        <pt x="186" y="140" on="1"/>
        <pt x="227" y="140" on="0"/>
        <pt x="257" y="148" on="0"/>
        <pt x="268" y="179" on="0"/>
        <pt x="268" y="219" on="1"/>
        <pt x="268" y="259" on="0"/>
        <pt x="259" y="290" on="0"/>
        <pt x="228" y="299" on="0"/>
        <pt x="188" y="299" on="1"/>
        <pt x="122" y="299" on="0"/>
        <pt x="56" y="292" on="1"/>
        <pt x="56" y="688" on="1"/>
        <pt x="420" y="688" on="1"/>
        <pt x="420" y="539" on="1"/>
        <pt x="216" y="539" on="1"/>
        <pt x="216" y="441" on="1"/>
        <pt x="244" y="446" on="0"/>
        <pt x="285" y="446" on="1"/>
        <pt x="377" y="446" on="0"/>
        <pt x="449" y="340" on="0"/>
        <pt x="449" y="233" on="1"/>
        <pt x="449" y="142" on="0"/>
        <pt x="413" y="40" on="0"/>
        <pt x="320" y="-8" on="0"/>
        <pt x="233" y="-8" on="1"/>
        <pt x="193" y="-8" on="0"/>
        <pt x="90" y="3" on="0"/>
        <pt x="51" y="11" on="1"/>
        <pt x="51" y="147" on="1"/>
      </contour>
    </TTGlyph>
    <TTGlyph name="fiveeighths" xMin="38" yMin="-4" xMax="696" yMax="688">
      <component glyphName="five.numr" x="0" y="0" flags="0x0"/>
      <component glyphName="fraction" x="280" y="0" flags="0x0"/>
      <component glyphName="eight.dnom" x="422" y="0" flags="0x0"/>
    </TTGlyph>
    <TTGlyph name="fl" xMin="12" yMin="0" xMax="541" yMax="743">
      <component glyphName="f" x="0" y="0" flags="0x0"/>
      <component glyphName="l" x="338" y="0" flags="0x0"/>
    </TTGlyph>
    <TTGlyph name="florin" xMin="-78" yMin="-198" xMax="451" yMax="743">
      <contour>
        <pt x="385" y="627" on="0"/>
        <pt x="352" y="615" on="0"/>
        <pt x="333" y="571" on="0"/>
        <pt x="320" y="511" on="1"/>
        <pt x="320" y="510" on="1"/>
        <pt x="402" y="510" on="1"/>
        <pt x="374" y="379" on="1"/>
        <pt x="293" y="379" on="1"/>
        <pt x="207" y="-21" on="1"/>
        <pt x="189" y="-107" on="0"/>
        <pt x="140" y="-178" on="0"/>
        <pt x="39" y="-198" on="0"/>
        <pt x="-78" y="-198" on="1"/>
        <pt x="-53" y="-82" on="1"/>
        <pt x="-13" y="-82" on="0"/>
        <pt x="20" y="-75" on="0"/>
        <pt x="34" y="-50" on="0"/>
        <pt x="41" y="-18" on="1"/>
        <pt x="125" y="379" on="1"/>
        <pt x="66" y="379" on="1"/>
        <pt x="94" y="510" on="1"/>
        <pt x="152" y="510" on="1"/>
        <pt x="153" y="513" on="1"/>
        <pt x="177" y="626" on="0"/>
        <pt x="231" y="718" on="0"/>
        <pt x="332" y="743" on="0"/>
        <pt x="451" y="743" on="1"/>
        <pt x="426" y="627" on="1"/>
      </contour>
    </TTGlyph>
    <TTGlyph name="four" xMin="16" yMin="0" xMax="470" yMax="688">
      <contour>
        <pt x="242" y="125" on="1"/>
        <pt x="16" y="125" on="1"/>
        <pt x="16" y="255" on="1"/>
        <pt x="136" y="688" on="1"/>
        <pt x="323" y="688" on="1"/>
        <pt x="190" y="273" on="1"/>
        <pt x="245" y="273" on="1"/>
        <pt x="298" y="412" on="1"/>
        <pt x="419" y="412" on="1"/>
        <pt x="419" y="273" on="1"/>
        <pt x="470" y="273" on="1"/>
        <pt x="470" y="125" on="1"/>
        <pt x="419" y="125" on="1"/>
        <pt x="419" y="0" on="1"/>
        <pt x="242" y="0" on="1"/>
      </contour>
    </TTGlyph>
    <TTGlyph name="four.dnom" xMin="6" yMin="0" xMax="274" yMax="380">
      <contour>
        <pt x="140" y="70" on="1"/>
        <pt x="6" y="70" on="1"/>
        <pt x="6" y="142" on="1"/>
        <pt x="80" y="380" on="1"/>
        <pt x="187" y="380" on="1"/>
        <pt x="107" y="151" on="1"/>
        <pt x="143" y="151" on="1"/>
        <pt x="172" y="231" on="1"/>
        <pt x="243" y="231" on="1"/>
        <pt x="243" y="151" on="1"/>
        <pt x="274" y="151" on="1"/>
        <pt x="274" y="70" on="1"/>
        <pt x="243" y="70" on="1"/>
        <pt x="243" y="0" on="1"/>
        <pt x="140" y="0" on="1"/>
      </contour>
    </TTGlyph>
    <TTGlyph name="four.numr" xMin="6" yMin="308" xMax="274" yMax="688">
      <component glyphName="four.dnom" x="0" y="308" flags="0x4"/>
    </TTGlyph>
    <TTGlyph name="four.ss01" xMin="16" yMin="0" xMax="475" yMax="688">
      <contour>
        <pt x="245" y="125" on="1"/>
        <pt x="16" y="125" on="1"/>
        <pt x="16" y="250" on="1"/>
        <pt x="145" y="688" on="1"/>
        <pt x="422" y="688" on="1"/>
        <pt x="422" y="273" on="1"/>
        <pt x="475" y="273" on="1"/>
        <pt x="475" y="125" on="1"/>
        <pt x="422" y="125" on="1"/>
        <pt x="422" y="0" on="1"/>
        <pt x="245" y="0" on="1"/>
      </contour>
      <contour>
        <pt x="245" y="273" on="1"/>
        <pt x="245" y="545" on="1"/>
        <pt x="236" y="545" on="1"/>
        <pt x="164" y="273" on="1"/>
      </contour>
    </TTGlyph>
    <TTGlyph name="four.tnum" xMin="15" yMin="0" xMax="470" yMax="688">
      <contour>
        <pt x="241" y="125" on="1"/>
        <pt x="15" y="125" on="1"/>
        <pt x="15" y="255" on="1"/>
        <pt x="136" y="688" on="1"/>
        <pt x="322" y="688" on="1"/>
        <pt x="190" y="273" on="1"/>
        <pt x="245" y="273" on="1"/>
        <pt x="297" y="412" on="1"/>
        <pt x="419" y="412" on="1"/>
        <pt x="419" y="273" on="1"/>
        <pt x="470" y="273" on="1"/>
        <pt x="470" y="125" on="1"/>
        <pt x="419" y="125" on="1"/>
        <pt x="419" y="0" on="1"/>
        <pt x="241" y="0" on="1"/>
      </contour>
    </TTGlyph>
    <TTGlyph name="fraction" xMin="-155" yMin="0" xMax="298" yMax="688">
      <contour>
        <pt x="199" y="688" on="1"/>
        <pt x="298" y="688" on="1"/>
        <pt x="-56" y="0" on="1"/>
        <pt x="-155" y="0" on="1"/>
      </contour>
    </TTGlyph>
    <TTGlyph name="g" xMin="25" yMin="-206" xMax="419" yMax="518">
      <contour>
        <pt x="172" y="-206" on="0"/>
        <pt x="88" y="-199" on="0"/>
        <pt x="60" y="-194" on="1"/>
        <pt x="60" y="-75" on="1"/>
        <pt x="169" y="-75" on="1"/>
        <pt x="213" y="-75" on="0"/>
        <pt x="244" y="-65" on="0"/>
        <pt x="252" y="-32" on="0"/>
        <pt x="252" y="16" on="1"/>
        <pt x="252" y="66" on="1"/>
        <pt x="243" y="66" on="1"/>
        <pt x="230" y="35" on="0"/>
        <pt x="182" y="7" on="0"/>
        <pt x="146" y="7" on="1"/>
        <pt x="99" y="7" on="0"/>
        <pt x="47" y="54" on="0"/>
        <pt x="25" y="164" on="0"/>
        <pt x="25" y="264" on="1"/>
        <pt x="25" y="366" on="0"/>
        <pt x="49" y="475" on="0"/>
        <pt x="101" y="518" on="0"/>
        <pt x="147" y="518" on="1"/>
        <pt x="180" y="518" on="0"/>
        <pt x="232" y="489" on="0"/>
        <pt x="244" y="454" on="1"/>
        <pt x="254" y="454" on="1"/>
        <pt x="258" y="510" on="1"/>
        <pt x="419" y="510" on="1"/>
        <pt x="419" y="56" on="1"/>
        <pt x="419" y="-46" on="0"/>
        <pt x="397" y="-149" on="0"/>
        <pt x="308" y="-206" on="0"/>
        <pt x="212" y="-206" on="1"/>
      </contour>
      <contour>
        <pt x="236" y="148" on="0"/>
        <pt x="247" y="156" on="0"/>
        <pt x="249" y="172" on="1"/>
        <pt x="252" y="188" on="0"/>
        <pt x="252" y="263" on="1"/>
        <pt x="252" y="330" on="0"/>
        <pt x="250" y="346" on="1"/>
        <pt x="248" y="366" on="0"/>
        <pt x="237" y="377" on="0"/>
        <pt x="222" y="377" on="1"/>
        <pt x="205" y="377" on="0"/>
        <pt x="194" y="366" on="0"/>
        <pt x="191" y="324" on="0"/>
        <pt x="191" y="263" on="1"/>
        <pt x="191" y="201" on="0"/>
        <pt x="194" y="159" on="0"/>
        <pt x="205" y="148" on="0"/>
        <pt x="222" y="148" on="1"/>
      </contour>
    </TTGlyph>
    <TTGlyph name="g_tilde.loclGUA" xMin="25" yMin="-206" xMax="419" yMax="743">
      <component glyphName="g" x="0" y="0" flags="0x0"/>
      <component glyphName="tildecomb" x="397" y="0" flags="0x0"/>
    </TTGlyph>
    <TTGlyph name="gbreve" xMin="25" yMin="-206" xMax="419" yMax="743">
      <component glyphName="g" x="0" y="0" flags="0x0"/>
      <component glyphName="uni0306" x="372" y="0" flags="0x0"/>
    </TTGlyph>
    <TTGlyph name="gcaron" xMin="25" yMin="-206" xMax="419" yMax="743">
      <component glyphName="g" x="0" y="0" flags="0x0"/>
      <component glyphName="uni030C" x="386" y="0" flags="0x0"/>
    </TTGlyph>
    <TTGlyph name="gcircumflex" xMin="25" yMin="-206" xMax="419" yMax="743">
      <component glyphName="g" x="0" y="0" flags="0x0"/>
      <component glyphName="uni0302" x="386" y="0" flags="0x0"/>
    </TTGlyph>
    <TTGlyph name="gcommaaccent" xMin="25" yMin="-206" xMax="419" yMax="825">
      <component glyphName="g" x="0" y="0" flags="0x0"/>
      <component glyphName="uni0312" x="539" y="0" flags="0x0"/>
    </TTGlyph>
    <TTGlyph name="gdotaccent" xMin="25" yMin="-206" xMax="419" yMax="730">
      <component glyphName="g" x="0" y="0" flags="0x0"/>
      <component glyphName="uni0307" x="299" y="0" flags="0x0"/>
    </TTGlyph>
    <TTGlyph name="germandbls" xMin="35" yMin="0" xMax="439" yMax="750">
      <contour>
        <pt x="235" y="0" on="1"/>
        <pt x="235" y="131" on="1"/>
        <pt x="238" y="131" on="1"/>
        <pt x="254" y="131" on="0"/>
        <pt x="267" y="144" on="0"/>
        <pt x="271" y="194" on="0"/>
        <pt x="271" y="258" on="1"/>
        <pt x="271" y="316" on="0"/>
        <pt x="266" y="362" on="0"/>
        <pt x="253" y="374" on="0"/>
        <pt x="235" y="374" on="1"/>
        <pt x="232" y="374" on="1"/>
        <pt x="232" y="505" on="1"/>
        <pt x="235" y="505" on="1"/>
        <pt x="251" y="505" on="0"/>
        <pt x="262" y="511" on="0"/>
        <pt x="265" y="533" on="0"/>
        <pt x="265" y="563" on="1"/>
        <pt x="265" y="588" on="0"/>
        <pt x="260" y="612" on="0"/>
        <pt x="248" y="619" on="0"/>
        <pt x="235" y="619" on="1"/>
        <pt x="220" y="619" on="0"/>
        <pt x="207" y="610" on="0"/>
        <pt x="202" y="578" on="0"/>
        <pt x="202" y="540" on="1"/>
        <pt x="202" y="0" on="1"/>
        <pt x="35" y="0" on="1"/>
        <pt x="35" y="545" on="1"/>
        <pt x="35" y="617" on="0"/>
        <pt x="71" y="706" on="0"/>
        <pt x="157" y="750" on="0"/>
        <pt x="234" y="750" on="1"/>
        <pt x="342" y="750" on="0"/>
        <pt x="434" y="671" on="0"/>
        <pt x="434" y="587" on="1"/>
        <pt x="434" y="525" on="0"/>
        <pt x="388" y="457" on="0"/>
        <pt x="339" y="446" on="1"/>
        <pt x="339" y="442" on="1"/>
        <pt x="392" y="430" on="0"/>
        <pt x="439" y="342" on="0"/>
        <pt x="439" y="245" on="1"/>
        <pt x="439" y="155" on="0"/>
        <pt x="410" y="51" on="0"/>
        <pt x="328" y="0" on="0"/>
        <pt x="249" y="0" on="1"/>
      </contour>
    </TTGlyph>
    <TTGlyph name="grave" xMin="7" yMin="595" xMax="218" yMax="743">
      <contour>
        <pt x="7" y="738" on="1"/>
        <pt x="7" y="743" on="1"/>
        <pt x="165" y="743" on="1"/>
        <pt x="218" y="600" on="1"/>
        <pt x="218" y="595" on="1"/>
        <pt x="89" y="595" on="1"/>
      </contour>
    </TTGlyph>
    <TTGlyph name="gravecomb" xMin="-217" yMin="595" xMax="-6" yMax="743">
      <contour>
        <pt x="-217" y="738" on="1"/>
        <pt x="-217" y="743" on="1"/>
        <pt x="-59" y="743" on="1"/>
        <pt x="-6" y="600" on="1"/>
        <pt x="-6" y="595" on="1"/>
        <pt x="-135" y="595" on="1"/>
      </contour>
    </TTGlyph>
    <TTGlyph name="gravecomb.case" xMin="-217" yMin="740" xMax="-6" yMax="888">
      <contour>
        <pt x="-217" y="883" on="1"/>
        <pt x="-217" y="888" on="1"/>
        <pt x="-59" y="888" on="1"/>
        <pt x="-6" y="745" on="1"/>
        <pt x="-6" y="740" on="1"/>
        <pt x="-135" y="740" on="1"/>
      </contour>
    </TTGlyph>
    <TTGlyph name="greater" xMin="56" yMin="65" xMax="418" yMax="442">
      <contour>
        <pt x="56" y="197" on="1"/>
        <pt x="253" y="253" on="1"/>
        <pt x="56" y="310" on="1"/>
        <pt x="56" y="442" on="1"/>
        <pt x="418" y="318" on="1"/>
        <pt x="418" y="188" on="1"/>
        <pt x="56" y="65" on="1"/>
      </contour>
    </TTGlyph>
    <TTGlyph name="greaterequal" xMin="63" yMin="29" xMax="425" yMax="563">
      <contour>
        <pt x="63" y="319" on="1"/>
        <pt x="260" y="375" on="1"/>
        <pt x="63" y="431" on="1"/>
        <pt x="63" y="563" on="1"/>
        <pt x="425" y="440" on="1"/>
        <pt x="425" y="310" on="1"/>
        <pt x="63" y="187" on="1"/>
      </contour>
      <contour>
        <pt x="63" y="161" on="1"/>
        <pt x="425" y="161" on="1"/>
        <pt x="425" y="29" on="1"/>
        <pt x="63" y="29" on="1"/>
      </contour>
    </TTGlyph>
    <TTGlyph name="guillemotleft" xMin="28" yMin="124" xMax="404" yMax="510">
      <contour>
        <pt x="28" y="317" on="1"/>
        <pt x="114" y="510" on="1"/>
        <pt x="227" y="510" on="1"/>
        <pt x="164" y="317" on="1"/>
        <pt x="227" y="124" on="1"/>
        <pt x="114" y="124" on="1"/>
      </contour>
      <contour>
        <pt x="204" y="317" on="1"/>
        <pt x="291" y="510" on="1"/>
        <pt x="404" y="510" on="1"/>
        <pt x="340" y="317" on="1"/>
        <pt x="404" y="124" on="1"/>
        <pt x="291" y="124" on="1"/>
      </contour>
    </TTGlyph>
    <TTGlyph name="guillemotright" xMin="36" yMin="124" xMax="412" yMax="510">
      <contour>
        <pt x="99" y="317" on="1"/>
        <pt x="36" y="510" on="1"/>
        <pt x="149" y="510" on="1"/>
        <pt x="235" y="317" on="1"/>
        <pt x="149" y="124" on="1"/>
        <pt x="36" y="124" on="1"/>
      </contour>
      <contour>
        <pt x="276" y="317" on="1"/>
        <pt x="212" y="510" on="1"/>
        <pt x="325" y="510" on="1"/>
        <pt x="412" y="317" on="1"/>
        <pt x="325" y="124" on="1"/>
        <pt x="212" y="124" on="1"/>
      </contour>
    </TTGlyph>
    <TTGlyph name="guilsinglleft" xMin="28" yMin="124" xMax="227" yMax="510">
      <contour>
        <pt x="28" y="317" on="1"/>
        <pt x="114" y="510" on="1"/>
        <pt x="227" y="510" on="1"/>
        <pt x="164" y="317" on="1"/>
        <pt x="227" y="124" on="1"/>
        <pt x="114" y="124" on="1"/>
      </contour>
    </TTGlyph>
    <TTGlyph name="guilsinglright" xMin="36" yMin="124" xMax="235" yMax="510">
      <contour>
        <pt x="99" y="317" on="1"/>
        <pt x="36" y="510" on="1"/>
        <pt x="149" y="510" on="1"/>
        <pt x="235" y="317" on="1"/>
        <pt x="149" y="124" on="1"/>
        <pt x="36" y="124" on="1"/>
      </contour>
    </TTGlyph>
    <TTGlyph name="h" xMin="35" yMin="0" xMax="424" yMax="743">
      <contour>
        <pt x="257" y="272" on="1"/>
        <pt x="257" y="328" on="0"/>
        <pt x="254" y="366" on="0"/>
        <pt x="244" y="376" on="0"/>
        <pt x="230" y="376" on="1"/>
        <pt x="215" y="376" on="0"/>
        <pt x="205" y="364" on="0"/>
        <pt x="202" y="322" on="0"/>
        <pt x="202" y="258" on="1"/>
        <pt x="202" y="0" on="1"/>
        <pt x="35" y="0" on="1"/>
        <pt x="35" y="743" on="1"/>
        <pt x="202" y="743" on="1"/>
        <pt x="202" y="453" on="1"/>
        <pt x="211" y="453" on="1"/>
        <pt x="238" y="518" on="0"/>
        <pt x="315" y="518" on="1"/>
        <pt x="361" y="518" on="0"/>
        <pt x="408" y="480" on="0"/>
        <pt x="424" y="405" on="0"/>
        <pt x="424" y="338" on="1"/>
        <pt x="424" y="0" on="1"/>
        <pt x="257" y="0" on="1"/>
      </contour>
    </TTGlyph>
    <TTGlyph name="hbar" xMin="-4" yMin="0" xMax="424" yMax="743">
      <contour>
        <pt x="361" y="518" on="0"/>
        <pt x="408" y="480" on="0"/>
        <pt x="424" y="405" on="0"/>
        <pt x="424" y="338" on="1"/>
        <pt x="424" y="0" on="1"/>
        <pt x="257" y="0" on="1"/>
        <pt x="257" y="272" on="1"/>
        <pt x="257" y="328" on="0"/>
        <pt x="254" y="366" on="0"/>
        <pt x="244" y="376" on="0"/>
        <pt x="230" y="376" on="1"/>
        <pt x="215" y="376" on="0"/>
        <pt x="205" y="364" on="0"/>
        <pt x="202" y="322" on="0"/>
        <pt x="202" y="258" on="1"/>
        <pt x="202" y="0" on="1"/>
        <pt x="35" y="0" on="1"/>
        <pt x="35" y="561" on="1"/>
        <pt x="-4" y="561" on="1"/>
        <pt x="-4" y="688" on="1"/>
        <pt x="35" y="688" on="1"/>
        <pt x="35" y="743" on="1"/>
        <pt x="202" y="743" on="1"/>
        <pt x="202" y="688" on="1"/>
        <pt x="292" y="688" on="1"/>
        <pt x="292" y="561" on="1"/>
        <pt x="202" y="561" on="1"/>
        <pt x="202" y="453" on="1"/>
        <pt x="211" y="453" on="1"/>
        <pt x="238" y="518" on="0"/>
        <pt x="315" y="518" on="1"/>
      </contour>
    </TTGlyph>
    <TTGlyph name="hcircumflex" xMin="-35" yMin="0" xMax="424" yMax="921">
      <component glyphName="h" x="0" y="0" flags="0x0"/>
      <component glyphName="uni0302" x="277" y="178" flags="0x4"/>
    </TTGlyph>
    <TTGlyph name="hookabovecomb" xMin="-280" yMin="614" xMax="-22" yMax="834">
      <contour>
        <pt x="-228" y="634" on="1"/>
        <pt x="-228" y="661" on="0"/>
        <pt x="-212" y="685" on="0"/>
        <pt x="-189" y="692" on="1"/>
        <pt x="-178" y="695" on="1"/>
        <pt x="-151" y="704" on="0"/>
        <pt x="-136" y="713" on="0"/>
        <pt x="-136" y="724" on="1"/>
        <pt x="-136" y="734" on="0"/>
        <pt x="-148" y="739" on="0"/>
        <pt x="-167" y="739" on="1"/>
        <pt x="-212" y="739" on="0"/>
        <pt x="-280" y="737" on="1"/>
        <pt x="-280" y="820" on="1"/>
        <pt x="-217" y="834" on="0"/>
        <pt x="-154" y="834" on="1"/>
        <pt x="-111" y="834" on="0"/>
        <pt x="-57" y="823" on="0"/>
        <pt x="-22" y="784" on="0"/>
        <pt x="-22" y="744" on="1"/>
        <pt x="-22" y="704" on="0"/>
        <pt x="-46" y="670" on="0"/>
        <pt x="-81" y="656" on="1"/>
        <pt x="-91" y="651" on="1"/>
        <pt x="-111" y="643" on="0"/>
        <pt x="-127" y="635" on="0"/>
        <pt x="-131" y="625" on="0"/>
        <pt x="-131" y="614" on="1"/>
        <pt x="-228" y="614" on="1"/>
      </contour>
    </TTGlyph>
    <TTGlyph name="hookabovecomb.case" xMin="-280" yMin="727" xMax="-22" yMax="948">
      <contour>
        <pt x="-228" y="747" on="1"/>
        <pt x="-228" y="774" on="0"/>
        <pt x="-212" y="798" on="0"/>
        <pt x="-189" y="805" on="1"/>
        <pt x="-178" y="809" on="1"/>
        <pt x="-152" y="817" on="0"/>
        <pt x="-136" y="827" on="0"/>
        <pt x="-136" y="837" on="1"/>
        <pt x="-136" y="848" on="0"/>
        <pt x="-151" y="853" on="0"/>
        <pt x="-177" y="853" on="1"/>
        <pt x="-218" y="853" on="0"/>
        <pt x="-280" y="851" on="1"/>
        <pt x="-280" y="934" on="1"/>
        <pt x="-217" y="948" on="0"/>
        <pt x="-154" y="948" on="1"/>
        <pt x="-112" y="948" on="0"/>
        <pt x="-57" y="937" on="0"/>
        <pt x="-22" y="897" on="0"/>
        <pt x="-22" y="858" on="1"/>
        <pt x="-22" y="818" on="0"/>
        <pt x="-46" y="784" on="0"/>
        <pt x="-81" y="769" on="1"/>
        <pt x="-91" y="765" on="1"/>
        <pt x="-112" y="757" on="0"/>
        <pt x="-127" y="748" on="0"/>
        <pt x="-131" y="738" on="0"/>
        <pt x="-131" y="727" on="1"/>
        <pt x="-228" y="727" on="1"/>
      </contour>
    </TTGlyph>
    <TTGlyph name="house" xMin="27" yMin="0" xMax="556" yMax="700">
      <contour>
        <pt x="27" y="376" on="1"/>
        <pt x="220" y="700" on="1"/>
        <pt x="363" y="700" on="1"/>
        <pt x="556" y="376" on="1"/>
        <pt x="556" y="0" on="1"/>
        <pt x="27" y="0" on="1"/>
      </contour>
      <contour>
        <pt x="409" y="121" on="1"/>
        <pt x="409" y="358" on="1"/>
        <pt x="291" y="562" on="1"/>
        <pt x="173" y="358" on="1"/>
        <pt x="173" y="121" on="1"/>
      </contour>
    </TTGlyph>
    <TTGlyph name="hungarumlaut" xMin="5" yMin="612" xMax="325" yMax="728">
      <contour>
        <pt x="5" y="616" on="1"/>
        <pt x="45" y="728" on="1"/>
        <pt x="173" y="728" on="1"/>
        <pt x="173" y="724" on="1"/>
        <pt x="110" y="612" on="1"/>
        <pt x="5" y="612" on="1"/>
      </contour>
      <contour>
        <pt x="156" y="616" on="1"/>
        <pt x="197" y="728" on="1"/>
        <pt x="325" y="728" on="1"/>
        <pt x="325" y="724" on="1"/>
        <pt x="261" y="612" on="1"/>
        <pt x="156" y="612" on="1"/>
      </contour>
    </TTGlyph>
    <TTGlyph name="hyphen" xMin="44" yMin="214" xMax="258" yMax="354">
      <contour>
        <pt x="44" y="354" on="1"/>
        <pt x="258" y="354" on="1"/>
        <pt x="258" y="214" on="1"/>
        <pt x="44" y="214" on="1"/>
      </contour>
    </TTGlyph>
    <TTGlyph name="i" xMin="35" yMin="0" xMax="203" yMax="743">
      <contour>
        <pt x="35" y="743" on="1"/>
        <pt x="203" y="743" on="1"/>
        <pt x="203" y="604" on="1"/>
        <pt x="35" y="604" on="1"/>
      </contour>
      <contour>
        <pt x="35" y="510" on="1"/>
        <pt x="203" y="510" on="1"/>
        <pt x="203" y="0" on="1"/>
        <pt x="35" y="0" on="1"/>
      </contour>
    </TTGlyph>
    <TTGlyph name="i.loclTRK" xMin="35" yMin="0" xMax="203" yMax="730">
      <component glyphName="dotlessi" x="0" y="0" flags="0x0"/>
      <component glyphName="uni0307" x="191" y="0" flags="0x0"/>
    </TTGlyph>
    <TTGlyph name="iacute" xMin="35" yMin="0" xMax="246" yMax="743">
      <component glyphName="dotlessi" x="0" y="0" flags="0x0"/>
      <component glyphName="acute" x="28" y="0" flags="0x0"/>
    </TTGlyph>
    <TTGlyph name="iacute_j.loclNLD" xMin="35" yMin="-198" xMax="503" yMax="743">
      <component glyphName="dotlessi" x="0" y="0" flags="0x0"/>
      <component glyphName="acutecomb" x="271" y="0" flags="0x0"/>
      <component glyphName="uni0237" x="238" y="0" flags="0x0"/>
      <component glyphName="acutecomb" x="509" y="0" flags="0x0"/>
    </TTGlyph>
    <TTGlyph name="ibreve" xMin="-21" yMin="0" xMax="257" yMax="743">
      <component glyphName="dotlessi" x="0" y="0" flags="0x0"/>
      <component glyphName="uni0306" x="264" y="0" flags="0x0"/>
    </TTGlyph>
    <TTGlyph name="icircumflex" xMin="-34" yMin="0" xMax="272" yMax="743">
      <component glyphName="dotlessi" x="0" y="0" flags="0x0"/>
      <component glyphName="circumflex" x="-41" y="0" flags="0x0"/>
    </TTGlyph>
    <TTGlyph name="idieresis" xMin="-40" yMin="0" xMax="277" yMax="730">
      <component glyphName="dotlessi" x="0" y="0" flags="0x0"/>
      <component glyphName="dieresis" x="-45" y="0" flags="0x0"/>
    </TTGlyph>
    <TTGlyph name="igrave" xMin="-8" yMin="0" xMax="203" yMax="743">
      <component glyphName="dotlessi" x="0" y="0" flags="0x0"/>
      <component glyphName="grave" x="-15" y="0" flags="0x0"/>
    </TTGlyph>
    <TTGlyph name="ij" xMin="35" yMin="-198" xMax="441" yMax="743">
      <component glyphName="i" x="0" y="0" flags="0x0"/>
      <component glyphName="j" x="238" y="0" flags="0x0"/>
    </TTGlyph>
    <TTGlyph name="imacron" xMin="10" yMin="0" xMax="227" yMax="743">
      <component glyphName="dotlessi" x="0" y="0" flags="0x0"/>
      <component glyphName="uni0304" x="270" y="0" flags="0x0"/>
    </TTGlyph>
    <TTGlyph name="infinity" xMin="40" yMin="30" xMax="752" yMax="482">
      <contour>
        <pt x="123" y="30" on="0"/>
        <pt x="40" y="142" on="0"/>
        <pt x="40" y="256" on="1"/>
        <pt x="40" y="369" on="0"/>
        <pt x="123" y="482" on="0"/>
        <pt x="225" y="482" on="1"/>
        <pt x="344" y="482" on="0"/>
        <pt x="396" y="382" on="1"/>
        <pt x="448" y="482" on="0"/>
        <pt x="567" y="482" on="1"/>
        <pt x="670" y="482" on="0"/>
        <pt x="752" y="370" on="0"/>
        <pt x="752" y="256" on="1"/>
        <pt x="752" y="142" on="0"/>
        <pt x="670" y="30" on="0"/>
        <pt x="567" y="30" on="1"/>
        <pt x="447" y="30" on="0"/>
        <pt x="396" y="133" on="1"/>
        <pt x="372" y="84" on="0"/>
        <pt x="290" y="30" on="0"/>
        <pt x="225" y="30" on="1"/>
      </contour>
      <contour>
        <pt x="275" y="148" on="0"/>
        <pt x="322" y="207" on="0"/>
        <pt x="330" y="256" on="1"/>
        <pt x="322" y="307" on="0"/>
        <pt x="276" y="364" on="0"/>
        <pt x="239" y="364" on="1"/>
        <pt x="202" y="364" on="0"/>
        <pt x="175" y="311" on="0"/>
        <pt x="175" y="256" on="1"/>
        <pt x="175" y="201" on="0"/>
        <pt x="202" y="148" on="0"/>
        <pt x="239" y="148" on="1"/>
      </contour>
      <contour>
        <pt x="591" y="148" on="0"/>
        <pt x="617" y="201" on="0"/>
        <pt x="617" y="256" on="1"/>
        <pt x="617" y="310" on="0"/>
        <pt x="591" y="364" on="0"/>
        <pt x="554" y="364" on="1"/>
        <pt x="517" y="364" on="0"/>
        <pt x="470" y="308" on="0"/>
        <pt x="462" y="256" on="1"/>
        <pt x="471" y="206" on="0"/>
        <pt x="517" y="148" on="0"/>
        <pt x="554" y="148" on="1"/>
      </contour>
    </TTGlyph>
    <TTGlyph name="integral" xMin="25" yMin="-190" xMax="306" yMax="696">
      <contour>
        <pt x="25" y="-71" on="1"/>
        <pt x="56" y="-71" on="0"/>
        <pt x="80" y="-67" on="0"/>
        <pt x="90" y="-51" on="0"/>
        <pt x="90" y="-31" on="1"/>
        <pt x="90" y="-11" on="0"/>
        <pt x="87" y="44" on="1"/>
        <pt x="67" y="492" on="1"/>
        <pt x="66" y="507" on="0"/>
        <pt x="66" y="538" on="1"/>
        <pt x="66" y="615" on="0"/>
        <pt x="108" y="680" on="0"/>
        <pt x="199" y="696" on="0"/>
        <pt x="306" y="696" on="1"/>
        <pt x="306" y="577" on="1"/>
        <pt x="272" y="577" on="0"/>
        <pt x="248" y="572" on="0"/>
        <pt x="240" y="552" on="0"/>
        <pt x="240" y="524" on="1"/>
        <pt x="241" y="481" on="1"/>
        <pt x="261" y="51" on="1"/>
        <pt x="263" y="-1" on="0"/>
        <pt x="263" y="-21" on="1"/>
        <pt x="263" y="-103" on="0"/>
        <pt x="220" y="-173" on="0"/>
        <pt x="130" y="-190" on="0"/>
        <pt x="25" y="-190" on="1"/>
      </contour>
    </TTGlyph>
    <TTGlyph name="iogonek" xMin="25" yMin="-196" xMax="203" yMax="730">
      <contour>
        <pt x="187" y="615" on="1"/>
        <pt x="51" y="615" on="1"/>
        <pt x="51" y="730" on="1"/>
        <pt x="187" y="730" on="1"/>
      </contour>
      <contour>
        <pt x="183" y="-12" on="0"/>
        <pt x="153" y="-55" on="0"/>
        <pt x="153" y="-79" on="1"/>
        <pt x="153" y="-112" on="0"/>
        <pt x="191" y="-112" on="1"/>
        <pt x="203" y="-111" on="1"/>
        <pt x="203" y="-191" on="1"/>
        <pt x="176" y="-196" on="0"/>
        <pt x="140" y="-196" on="1"/>
        <pt x="79" y="-196" on="0"/>
        <pt x="25" y="-147" on="0"/>
        <pt x="25" y="-109" on="1"/>
        <pt x="25" y="-51" on="0"/>
        <pt x="81" y="0" on="1"/>
        <pt x="35" y="0" on="1"/>
        <pt x="35" y="510" on="1"/>
        <pt x="203" y="510" on="1"/>
        <pt x="203" y="0" on="1"/>
      </contour>
    </TTGlyph>
    <TTGlyph name="itilde" xMin="-46" yMin="0" xMax="282" yMax="743">
      <component glyphName="dotlessi" x="0" y="0" flags="0x0"/>
      <component glyphName="tildecomb" x="289" y="0" flags="0x0"/>
    </TTGlyph>
    <TTGlyph name="j" xMin="-20" yMin="-198" xMax="203" yMax="743">
      <contour>
        <pt x="35" y="743" on="1"/>
        <pt x="203" y="743" on="1"/>
        <pt x="203" y="604" on="1"/>
        <pt x="35" y="604" on="1"/>
      </contour>
      <contour>
        <pt x="-20" y="-80" on="1"/>
        <pt x="6" y="-80" on="0"/>
        <pt x="29" y="-70" on="0"/>
        <pt x="35" y="-50" on="0"/>
        <pt x="35" y="-29" on="1"/>
        <pt x="35" y="510" on="1"/>
        <pt x="203" y="510" on="1"/>
        <pt x="203" y="35" on="1"/>
        <pt x="203" y="-74" on="0"/>
        <pt x="168" y="-169" on="0"/>
        <pt x="80" y="-198" on="0"/>
        <pt x="-20" y="-198" on="1"/>
      </contour>
    </TTGlyph>
    <TTGlyph name="jcircumflex" xMin="-34" yMin="-198" xMax="272" yMax="743">
      <component glyphName="uni0237" x="0" y="0" flags="0x0"/>
      <component glyphName="uni0302" x="278" y="0" flags="0x0"/>
    </TTGlyph>
    <TTGlyph name="k" xMin="35" yMin="0" xMax="453" yMax="743">
      <contour>
        <pt x="214" y="186" on="1"/>
        <pt x="202" y="186" on="1"/>
        <pt x="202" y="0" on="1"/>
        <pt x="35" y="0" on="1"/>
        <pt x="35" y="743" on="1"/>
        <pt x="202" y="743" on="1"/>
        <pt x="202" y="318" on="1"/>
        <pt x="214" y="318" on="1"/>
        <pt x="283" y="510" on="1"/>
        <pt x="452" y="510" on="1"/>
        <pt x="353" y="269" on="1"/>
        <pt x="453" y="0" on="1"/>
        <pt x="278" y="0" on="1"/>
      </contour>
    </TTGlyph>
    <TTGlyph name="kcommaaccent" xMin="35" yMin="-289" xMax="453" yMax="743">
      <component glyphName="k" x="0" y="0" flags="0x0"/>
      <component glyphName="uni0326" x="363" y="0" flags="0x0"/>
    </TTGlyph>
    <TTGlyph name="kgreenlandic" xMin="35" yMin="0" xMax="453" yMax="510">
      <contour>
        <pt x="214" y="186" on="1"/>
        <pt x="202" y="186" on="1"/>
        <pt x="202" y="0" on="1"/>
        <pt x="35" y="0" on="1"/>
        <pt x="35" y="510" on="1"/>
        <pt x="202" y="510" on="1"/>
        <pt x="202" y="318" on="1"/>
        <pt x="214" y="318" on="1"/>
        <pt x="283" y="510" on="1"/>
        <pt x="452" y="510" on="1"/>
        <pt x="353" y="269" on="1"/>
        <pt x="453" y="0" on="1"/>
        <pt x="278" y="0" on="1"/>
      </contour>
    </TTGlyph>
</ttFont>
